<svg width="177" height="97" viewBox="0 0 177 97" fill="none" xmlns="http://www.w3.org/2000/svg">
<path d="M21.5039 47.128C20.7999 47.128 19.9039 47.32 18.9439 47.704C16.4479 48.792 14.3359 50.904 13.7599 52.312C13.1839 53.784 12.7999 55.704 14.2079 56.6C15.8719 57.624 19.3279 57.048 21.8879 54.68C22.0799 54.424 22.3359 54.232 22.5279 53.976C23.8079 52.696 24.5119 50.648 24.1919 49.112C23.9999 48.28 23.5519 47.704 22.7199 47.32C22.3999 47.192 21.9519 47.128 21.5039 47.128ZM5.82386 67.096C6.78386 67.224 10.0479 65.496 15.4239 60.76C14.2719 60.696 13.1839 60.376 12.2239 59.8C9.53586 58.072 8.76786 54.808 10.3039 50.968C11.2639 48.344 14.2719 45.592 17.5359 44.248C19.9679 43.224 22.3359 43.096 24.1919 43.864C26.1759 44.696 27.4559 46.296 27.9039 48.408L30.1439 45.976L31.6159 44.312C32.3199 43.608 33.4719 43.544 34.2399 44.184C35.0079 44.888 35.0719 46.104 34.3679 46.872L32.7039 48.728C26.3679 55.96 22.2719 63.192 22.9759 66.072C23.1039 66.456 23.2959 66.84 24.0639 67.096C24.5119 67.288 28.3519 68.184 35.8399 56.6C36.4159 55.768 37.5679 55.512 38.4639 56.088C39.3599 56.6 39.5519 57.816 39.0399 58.648C32.7039 68.44 27.9679 71 24.7679 71C24.0639 71 23.4239 70.872 22.8479 70.68C20.9919 70.04 19.7759 68.76 19.3279 66.968C19.0079 65.496 19.1999 63.768 19.8399 61.912C12.4799 68.696 7.42386 71.64 4.60786 70.68C2.11186 69.784 0.575859 67.544 0.319859 64.344C-0.000140637 61.208 0.895859 58.2 1.34386 57.048C1.66386 56.024 2.75186 55.512 3.71186 55.896C4.67186 56.216 5.18386 57.24 4.86386 58.264C4.22386 60.184 3.90386 62.36 4.03186 63.96C4.28786 66.52 5.37586 66.968 5.82386 67.096ZM50.1784 71C48.3224 71 46.7224 70.36 45.8264 69.464C44.4824 68.12 43.9704 66.008 44.6744 63.512C41.2824 65.304 38.5304 65.624 36.1624 65.944L34.5624 66.136L32.2584 70.04C31.7464 70.936 30.5944 71.256 29.6984 70.744C28.8024 70.232 28.4824 69.08 28.9944 68.184L31.7464 63.512L42.8184 45.08C43.3304 44.184 44.4824 43.864 45.3784 44.376C46.2744 44.952 46.5304 46.104 46.0184 47L36.9944 62.04C40.3224 61.592 44.2264 60.504 50.1784 54.296C53.0584 50.84 57.4104 44.952 57.4744 44.888C58.0504 44.056 59.2664 43.864 60.0984 44.504C60.9304 45.144 61.1224 46.296 60.4824 47.128C60.2904 47.384 56.0024 53.208 53.0584 56.728V56.792C48.1304 62.68 47.4904 65.88 48.4504 66.84C49.9224 68.248 56.7064 66.136 60.7384 63C61.5064 62.36 62.7224 62.488 63.3624 63.32C64.0024 64.088 63.8744 65.304 63.0424 65.944C60.8024 67.672 57.5384 69.336 54.5944 70.232C52.9304 70.744 51.4584 71 50.1784 71ZM96.9724 13.528C96.5244 13.592 93.1964 14.104 85.0044 29.016C83.4684 31.832 81.8684 34.84 80.2044 38.232C87.9484 31.896 94.4124 23.832 96.8444 18.008C97.8684 15.64 97.7404 14.36 97.5484 14.04C97.2284 13.592 97.1004 13.528 96.9724 13.528ZM72.5244 58.776C72.2684 59.672 72.1404 60.76 72.0764 61.784C71.8844 64.92 73.1004 66.648 75.6604 67.096C80.3964 67.992 83.5964 64.6 85.1324 62.488C88.0764 58.328 89.1644 52.504 87.5004 49.56C86.6684 48.088 85.2604 47.512 83.0844 47.704C79.5644 48.024 74.9564 52.184 73.0364 57.368L72.7164 58.328C72.7164 58.456 72.5244 58.776 72.5244 58.776ZM77.1324 71C76.4924 71 75.6604 70.936 74.9564 70.808C70.4764 69.976 68.0444 66.52 68.3004 61.592C68.3644 60.056 68.6844 58.584 69.1964 57.048C70.0924 53.784 71.1164 50.84 72.0764 48.024C69.5164 49.24 67.0844 50.2 64.5884 50.712C63.6284 50.904 62.6044 50.264 62.4124 49.24C62.1564 48.152 62.8604 47.192 63.8204 47C67.1484 46.296 70.7324 44.696 74.1884 42.584C76.6844 36.504 79.3084 31.576 81.6764 27.16C90.1884 11.736 94.4124 9.88 96.8444 9.816C98.4444 9.752 99.7244 10.52 100.684 11.992C101.772 13.656 101.644 16.152 100.3 19.416C97.1644 26.904 87.8204 38.168 77.2604 45.08L76.7484 46.36C78.6044 45.016 80.6524 44.12 82.7644 43.928C86.2844 43.608 89.2284 44.952 90.7644 47.704C93.1964 51.928 92.0444 59.224 88.1404 64.664C85.1964 68.76 81.2924 71 77.1324 71ZM109.413 47.576C106.213 47.576 102.437 50.264 98.8534 55.32C96.2294 58.968 94.8214 62.808 95.3974 65.048C95.5894 65.816 95.9094 66.264 96.5494 66.584C100.389 68.504 107.237 63.512 114.597 53.4C114.917 51.352 113.701 48.984 111.589 48.024C110.885 47.704 110.181 47.576 109.413 47.576ZM113.829 67.16C113.829 67.16 113.957 67.224 114.021 67.224C117.733 67.544 122.021 62.744 124.581 59.8L126.309 57.88C126.949 57.24 128.293 57.24 128.933 57.88C129.573 58.52 129.637 59.8 128.933 60.504L127.397 62.296C124.325 65.752 119.781 71 114.405 71L113.701 70.936C112.229 70.808 111.141 70.104 110.501 68.888C109.925 67.8 109.797 66.328 110.181 64.408C105.317 69.08 99.7494 72.408 94.8854 69.976C93.2854 69.144 92.1974 67.736 91.7494 65.944C90.9174 62.552 92.3894 57.88 95.7814 53.144C103.781 41.944 110.629 43.48 113.125 44.632C116.965 46.36 119.141 50.584 118.181 54.616C118.181 54.744 118.053 55 117.989 55.128C117.989 55.128 116.453 57.88 115.237 60.888C113.189 65.816 113.765 67.032 113.829 67.16ZM119.809 71.64C119.425 71.64 118.977 71.512 118.657 71.256C117.825 70.616 117.697 69.4 118.337 68.632C124.033 61.528 129.665 55.64 134.721 51.416L131.713 55.704L121.345 70.808L121.281 70.936C120.897 71.384 120.385 71.64 119.809 71.64ZM103.169 96.024C102.849 96.024 102.465 95.896 102.145 95.704C101.249 95.128 101.057 93.912 101.633 93.08L128.641 53.528L138.049 39.96C138.625 39.128 139.777 38.936 140.673 39.512C141.505 40.088 141.697 41.24 141.121 42.136L134.721 51.416C140.737 46.36 145.793 43.736 149.121 44.312C150.785 44.568 152.001 45.592 152.577 47.192C153.921 50.968 150.657 54.616 147.201 58.456C145.793 59.992 144.385 61.592 143.297 63.064C142.337 64.536 142.081 66.072 142.657 66.712C143.553 67.672 147.649 67.992 156.609 62.488C157.505 61.976 158.657 62.232 159.169 63.128C159.745 64.024 159.425 65.176 158.593 65.688C153.345 68.888 144.001 73.56 139.969 69.272C138.049 67.288 138.177 63.96 140.225 60.952C141.377 59.224 142.913 57.56 144.385 55.896C146.817 53.208 149.633 50.136 149.057 48.472C148.929 48.152 148.801 48.088 148.545 48.024C145.281 47.448 134.721 54.232 121.345 70.808L104.705 95.192C104.385 95.768 103.809 96.024 103.169 96.024ZM162.153 59.544C160.745 61.656 160.169 63.512 160.553 64.92C160.745 65.688 161.321 66.328 162.473 66.84C164.777 67.928 167.081 66.392 168.169 65.432C170.793 63.128 172.009 59.672 171.497 58.072C171.305 57.432 170.665 57.048 169.577 56.856C167.401 56.472 164.009 57.304 162.153 59.544ZM164.137 71C162.985 71 161.961 70.744 160.873 70.232C158.249 69.016 157.289 67.288 156.905 65.88C156.265 63.512 157.033 60.504 159.145 57.432C161.449 54.04 168.681 46.424 171.881 44.312C172.777 43.736 173.929 43.928 174.505 44.824C175.081 45.72 174.761 46.872 173.993 47.384C172.649 48.28 170.153 50.648 167.785 53.08C168.681 53.016 169.513 53.08 170.217 53.208C172.713 53.656 174.505 55.064 175.081 56.92C176.297 60.76 173.609 65.624 170.601 68.248C168.553 70.04 166.313 71 164.137 71Z" fill="#63BAFF"/>
</svg>
