<svg width="220" height="97" viewBox="0 0 220 97" fill="none" xmlns="http://www.w3.org/2000/svg">
<path d="M14.6559 47.64C9.40786 48.088 4.35186 55.832 4.03186 61.528C3.83986 64.792 4.99186 66.584 7.55186 67.096C12.0319 67.992 15.0399 64.792 16.5119 62.744C19.5839 58.52 20.6719 52.568 18.9439 49.56C18.1759 48.152 16.7679 47.448 14.6559 47.64ZM9.02386 71C8.31986 71 7.48786 70.872 6.78386 70.744C2.36786 69.848 -0.000140637 66.328 0.255859 61.336C0.703859 53.848 7.03986 44.504 14.3359 43.864C17.8559 43.608 20.6719 44.952 22.2079 47.704C24.7039 52.12 23.5519 59.48 19.5839 64.984C16.7679 68.824 12.9919 71 9.02386 71ZM22.5994 71C22.3434 71 22.0234 70.936 21.7674 70.808C20.8714 70.36 20.4874 69.272 20.9354 68.312L26.6954 56.344L26.7594 56.28L32.1354 44.696C32.5834 43.736 33.7354 43.352 34.6314 43.8C35.5914 44.184 35.9754 45.336 35.5274 46.232L34.6314 48.216C37.8954 45.592 41.6074 43.48 44.6154 44.248C46.0874 44.632 48.0074 45.912 48.7114 49.624C48.9034 50.584 48.1994 51.608 47.1754 51.8C46.1514 51.992 45.1914 51.288 44.9994 50.264C44.8074 49.304 44.4874 48.088 43.6554 47.896C42.2474 47.512 39.4954 49.048 36.3594 51.672C36.6154 51.736 36.9354 51.8 37.1914 51.928C40.1994 53.08 41.4794 55.896 40.5194 59.16C40.3274 60.12 39.9434 61.08 39.6234 61.976C38.3434 65.624 38.4714 66.392 39.4954 66.84C40.5834 67.352 44.6794 65.56 52.1034 55.256C52.7434 54.424 53.8954 54.232 54.7274 54.808C55.6234 55.448 55.7514 56.6 55.1754 57.432C48.7754 66.328 43.7194 70.68 39.8794 70.68C39.1754 70.68 38.5354 70.552 37.9594 70.296C33.4154 68.248 35.0794 63.576 36.1034 60.76C36.4234 59.864 36.7434 58.968 36.8714 58.264C36.8714 58.2 36.8714 58.136 36.9354 58.136C37.3194 56.728 36.9994 55.896 35.8474 55.448C34.8234 55.064 33.2874 55.128 32.0074 55.896C31.3034 56.6 30.6634 57.368 30.0234 58.136L24.2634 69.976C23.9434 70.616 23.3034 71 22.5994 71ZM73.1234 70.936C72.9314 70.936 72.6754 70.872 72.4194 70.744C71.5234 70.36 71.0114 69.336 71.3954 68.376C72.6754 64.856 74.9794 61.464 77.0274 58.456C79.7794 54.36 82.4034 50.456 81.1234 48.536C80.8034 48.088 80.3554 47.768 79.7154 47.704C78.8194 47.576 76.3234 47.704 72.0354 51.288C67.0434 55.32 59.8754 64.216 56.0994 70.04C55.5234 70.936 54.4354 71.192 53.5394 70.616C52.6434 70.104 52.3874 68.952 52.8994 68.12L63.5234 49.624C62.0514 50.008 60.5794 50.456 59.1714 51.928C58.4034 52.632 57.2514 52.632 56.4834 51.928C55.9074 51.352 55.9074 49.88 56.4834 49.304C58.9154 46.872 61.4114 46.232 63.4594 45.784C65.1874 45.4 66.0834 45.144 66.7234 44.184C67.2354 43.288 68.3874 43.032 69.2834 43.544C70.1154 44.12 70.4354 45.208 69.9234 46.104L67.4914 50.264L69.6034 48.344C73.6354 45.08 77.2834 43.544 80.2274 43.992C81.8914 44.248 83.2994 45.08 84.1954 46.424C85.0914 47.704 85.3474 49.112 85.1554 50.52L86.7554 49.304L87.7794 48.472L87.9074 48.344C92.3874 44.76 96.6754 43.16 99.6834 44.056C101.155 44.44 102.179 45.464 102.691 46.872C103.971 50.648 100.771 54.296 97.4434 58.136C96.0994 59.672 94.6914 61.272 93.6674 62.808C92.7074 64.28 92.5794 66.008 93.0914 66.52C93.9874 67.416 97.8914 67.672 106.467 62.232C107.363 61.72 108.515 61.976 109.091 62.808C109.603 63.704 109.347 64.856 108.515 65.432C97.3794 72.472 92.5154 71.32 90.4034 69.144C88.4834 67.16 88.5474 63.768 90.5954 60.696C91.7474 58.968 93.2194 57.304 94.6274 55.64C96.9954 52.888 99.6834 49.816 99.1074 48.088C99.0434 47.896 98.9154 47.768 98.5954 47.64C97.2514 47.256 94.1154 48.216 90.2754 51.224L89.0594 52.248C86.1794 54.552 79.3314 59.928 74.8514 69.784C74.5314 70.488 73.8914 70.936 73.1234 70.936ZM127.641 47.128C126.937 47.128 126.041 47.32 125.081 47.704C122.585 48.792 120.473 50.904 119.897 52.312C119.321 53.784 118.937 55.704 120.345 56.6C122.009 57.624 125.465 57.048 128.025 54.68C128.217 54.424 128.473 54.232 128.665 53.976C129.945 52.696 130.649 50.648 130.329 49.112C130.137 48.28 129.689 47.704 128.857 47.32C128.537 47.192 128.089 47.128 127.641 47.128ZM111.961 67.096C112.921 67.224 116.185 65.496 121.561 60.76C120.409 60.696 119.321 60.376 118.361 59.8C115.673 58.072 114.905 54.808 116.441 50.968C117.401 48.344 120.409 45.592 123.673 44.248C126.105 43.224 128.473 43.096 130.329 43.864C132.313 44.696 133.593 46.296 134.041 48.408L136.281 45.976L137.753 44.312C138.457 43.608 139.609 43.544 140.377 44.184C141.145 44.888 141.209 46.104 140.505 46.872L138.841 48.728C132.505 55.96 128.409 63.192 129.113 66.072C129.241 66.456 129.433 66.84 130.201 67.096C130.649 67.288 134.489 68.184 141.977 56.6C142.553 55.768 143.705 55.512 144.601 56.088C145.497 56.6 145.689 57.816 145.177 58.648C138.841 68.44 134.105 71 130.905 71C130.201 71 129.561 70.872 128.985 70.68C127.129 70.04 125.913 68.76 125.465 66.968C125.145 65.496 125.337 63.768 125.977 61.912C118.617 68.696 113.561 71.64 110.745 70.68C108.249 69.784 106.713 67.544 106.457 64.344C106.137 61.208 107.033 58.2 107.481 57.048C107.801 56.024 108.889 55.512 109.849 55.896C110.809 56.216 111.321 57.24 111.001 58.264C110.361 60.184 110.041 62.36 110.169 63.96C110.425 66.52 111.513 66.968 111.961 67.096ZM156.316 47.96H155.612C151.132 48.344 145.052 54.936 144.668 61.848C144.604 63.064 144.54 66.392 148.252 67.096C152.924 67.992 156.06 64.6 157.532 62.552C157.788 62.168 158.3 61.464 158.94 60.312C160.796 56.6 161.244 52.184 159.9 49.816C159.196 48.6 158.044 47.96 156.316 47.96ZM149.724 71C148.956 71 148.188 70.936 147.548 70.808C143.196 69.976 140.7 66.584 140.956 61.656C141.34 54.232 147.868 44.888 155.292 44.248C158.876 43.928 161.628 45.272 163.164 47.96L163.356 48.28C164.7 43.16 165.98 36.44 166.812 27.8C166.876 26.968 167.516 26.2 168.412 26.072C169.372 25.944 170.14 26.456 170.46 27.288C172.06 31.576 178.332 31.832 183.644 30.744C188.188 29.848 194.14 26.84 195.804 21.4C196.124 20.376 197.084 19.8 198.108 20.12C199.132 20.44 199.708 21.464 199.388 22.488C197.98 27.096 193.372 32.6 184.412 34.456C176.924 35.992 172.636 34.584 170.076 32.664C168.028 48.984 164.508 57.816 162.204 62.104C161.756 63 161.244 63.832 160.604 64.728C157.66 68.824 153.82 71 149.724 71ZM162.677 71.64C162.293 71.64 161.845 71.512 161.525 71.256C160.693 70.616 160.565 69.4 161.205 68.632C166.901 61.528 172.533 55.64 177.589 51.416L174.581 55.704L164.213 70.808L164.149 70.936C163.765 71.384 163.253 71.64 162.677 71.64ZM146.037 96.024C145.717 96.024 145.333 95.896 145.013 95.704C144.117 95.128 143.925 93.912 144.501 93.08L171.509 53.528L180.917 39.96C181.493 39.128 182.645 38.936 183.541 39.512C184.373 40.088 184.565 41.24 183.989 42.136L177.589 51.416C183.605 46.36 188.661 43.736 191.989 44.312C193.653 44.568 194.869 45.592 195.445 47.192C196.789 50.968 193.525 54.616 190.069 58.456C188.661 59.992 187.253 61.592 186.165 63.064C185.205 64.536 184.949 66.072 185.525 66.712C186.421 67.672 190.517 67.992 199.477 62.488C200.373 61.976 201.525 62.232 202.037 63.128C202.613 64.024 202.293 65.176 201.461 65.688C196.213 68.888 186.869 73.56 182.837 69.272C180.917 67.288 181.045 63.96 183.093 60.952C184.245 59.224 185.781 57.56 187.253 55.896C189.685 53.208 192.501 50.136 191.925 48.472C191.797 48.152 191.669 48.088 191.413 48.024C188.149 47.448 177.589 54.232 164.213 70.808L147.573 95.192C147.253 95.768 146.677 96.024 146.037 96.024ZM205.021 59.544C203.613 61.656 203.037 63.512 203.421 64.92C203.613 65.688 204.189 66.328 205.341 66.84C207.645 67.928 209.949 66.392 211.037 65.432C213.661 63.128 214.877 59.672 214.365 58.072C214.173 57.432 213.533 57.048 212.445 56.856C210.269 56.472 206.877 57.304 205.021 59.544ZM207.005 71C205.853 71 204.829 70.744 203.741 70.232C201.117 69.016 200.157 67.288 199.773 65.88C199.133 63.512 199.901 60.504 202.013 57.432C204.317 54.04 211.549 46.424 214.749 44.312C215.645 43.736 216.797 43.928 217.373 44.824C217.949 45.72 217.629 46.872 216.861 47.384C215.517 48.28 213.021 50.648 210.653 53.08C211.549 53.016 212.381 53.08 213.085 53.208C215.581 53.656 217.373 55.064 217.949 56.92C219.165 60.76 216.477 65.624 213.469 68.248C211.421 70.04 209.181 71 207.005 71Z" fill="#63BAFF"/>
</svg>
