<svg width="170" height="97" viewBox="0 0 170 97" fill="none" xmlns="http://www.w3.org/2000/svg">
<path d="M21.6956 71C19.8396 71 18.2396 70.36 17.3436 69.464C15.9996 68.12 15.4876 66.008 16.1916 63.512C12.7996 65.304 10.0476 65.624 7.67963 65.944L6.07963 66.136L3.77562 70.04C3.26362 70.936 2.11162 71.256 1.21562 70.744C0.319625 70.232 -0.000375271 69.08 0.511625 68.184L3.26362 63.512L14.3356 45.08C14.8476 44.184 15.9996 43.864 16.8956 44.376C17.7916 44.952 18.0476 46.104 17.5356 47L8.51163 62.04C11.8396 61.592 15.7436 60.504 21.6956 54.296C24.5756 50.84 28.9276 44.952 28.9916 44.888C29.5676 44.056 30.7836 43.864 31.6156 44.504C32.4476 45.144 32.6396 46.296 31.9996 47.128C31.8076 47.384 27.5196 53.208 24.5756 56.728V56.792C19.6476 62.68 19.0076 65.88 19.9676 66.84C21.4396 68.248 28.2236 66.136 32.2556 63C33.0236 62.36 34.2396 62.488 34.8796 63.32C35.5196 64.088 35.3916 65.304 34.5596 65.944C32.3196 67.672 29.0556 69.336 26.1116 70.232C24.4476 70.744 22.9756 71 21.6956 71ZM46.6656 47.64C41.4176 48.088 36.3616 55.832 36.0416 61.528C35.8496 64.792 37.0016 66.584 39.5616 67.096C44.0416 67.992 47.0496 64.792 48.5216 62.744C51.5936 58.52 52.6816 52.568 50.9536 49.56C50.1856 48.152 48.7776 47.448 46.6656 47.64ZM41.0336 71C40.3296 71 39.4976 70.872 38.7936 70.744C34.3776 69.848 32.0096 66.328 32.2656 61.336C32.7136 53.848 39.0496 44.504 46.3456 43.864C49.8656 43.608 52.6816 44.952 54.2176 47.704C56.7136 52.12 55.5616 59.48 51.5936 64.984C48.7776 68.824 45.0016 71 41.0336 71ZM77.2011 47.128C76.4971 47.128 75.6011 47.32 74.6411 47.704C72.1451 48.792 70.0331 50.904 69.4571 52.312C68.8811 53.784 68.4971 55.704 69.9051 56.6C71.5691 57.624 75.0251 57.048 77.5851 54.68C77.7771 54.424 78.0331 54.232 78.2251 53.976C79.5051 52.696 80.2091 50.648 79.8891 49.112C79.6971 48.28 79.2491 47.704 78.4171 47.32C78.0971 47.192 77.6491 47.128 77.2011 47.128ZM61.5211 67.096C62.4811 67.224 65.7451 65.496 71.1211 60.76C69.9691 60.696 68.8811 60.376 67.9211 59.8C65.2331 58.072 64.4651 54.808 66.0011 50.968C66.9611 48.344 69.9691 45.592 73.2331 44.248C75.6651 43.224 78.0331 43.096 79.8891 43.864C81.8731 44.696 83.1531 46.296 83.6011 48.408L85.8411 45.976L87.3131 44.312C88.0171 43.608 89.1691 43.544 89.9371 44.184C90.7051 44.888 90.7691 46.104 90.0651 46.872L88.4011 48.728C82.0651 55.96 77.9691 63.192 78.6731 66.072C78.8011 66.456 78.9931 66.84 79.7611 67.096C80.2091 67.288 84.0491 68.184 91.5371 56.6C92.1131 55.768 93.2651 55.512 94.1611 56.088C95.0571 56.6 95.2491 57.816 94.7371 58.648C88.4011 68.44 83.6651 71 80.4651 71C79.7611 71 79.1211 70.872 78.5451 70.68C76.6891 70.04 75.4731 68.76 75.0251 66.968C74.7051 65.496 74.8971 63.768 75.5371 61.912C68.1771 68.696 63.1211 71.64 60.3051 70.68C57.8091 69.784 56.2731 67.544 56.0171 64.344C55.6971 61.208 56.5931 58.2 57.0411 57.048C57.3611 56.024 58.4491 55.512 59.4091 55.896C60.3691 56.216 60.8811 57.24 60.5611 58.264C59.9211 60.184 59.6011 62.36 59.7291 63.96C59.9851 66.52 61.0731 66.968 61.5211 67.096ZM105.876 47.96H105.172C100.692 48.344 94.6116 54.936 94.2276 61.848C94.1636 63.064 94.0996 66.392 97.8116 67.096C102.484 67.992 105.62 64.6 107.092 62.552C107.348 62.168 107.86 61.464 108.5 60.312C110.356 56.6 110.804 52.184 109.46 49.816C108.756 48.6 107.604 47.96 105.876 47.96ZM99.2836 71C98.5156 71 97.7476 70.936 97.1076 70.808C92.7556 69.976 90.2596 66.584 90.5156 61.656C90.8996 54.232 97.4276 44.888 104.852 44.248C108.436 43.928 111.188 45.272 112.724 47.96L112.916 48.28C114.26 43.16 115.54 36.44 116.372 27.8C116.436 26.968 117.076 26.2 117.972 26.072C118.932 25.944 119.7 26.456 120.02 27.288C121.62 31.576 127.892 31.832 133.204 30.744C137.748 29.848 143.7 26.84 145.364 21.4C145.684 20.376 146.644 19.8 147.668 20.12C148.692 20.44 149.268 21.464 148.948 22.488C147.54 27.096 142.932 32.6 133.972 34.456C126.484 35.992 122.196 34.584 119.636 32.664C117.588 48.984 114.068 57.816 111.764 62.104C111.316 63 110.804 63.832 110.164 64.728C107.22 68.824 103.38 71 99.2836 71ZM112.237 71.64C111.853 71.64 111.405 71.512 111.085 71.256C110.253 70.616 110.125 69.4 110.765 68.632C116.461 61.528 122.093 55.64 127.149 51.416L124.141 55.704L113.773 70.808L113.709 70.936C113.325 71.384 112.813 71.64 112.237 71.64ZM95.5966 96.024C95.2766 96.024 94.8926 95.896 94.5726 95.704C93.6766 95.128 93.4846 93.912 94.0606 93.08L121.069 53.528L130.477 39.96C131.053 39.128 132.205 38.936 133.101 39.512C133.933 40.088 134.125 41.24 133.549 42.136L127.149 51.416C133.165 46.36 138.221 43.736 141.549 44.312C143.213 44.568 144.429 45.592 145.005 47.192C146.349 50.968 143.085 54.616 139.629 58.456C138.221 59.992 136.813 61.592 135.725 63.064C134.765 64.536 134.509 66.072 135.085 66.712C135.981 67.672 140.077 67.992 149.037 62.488C149.933 61.976 151.085 62.232 151.597 63.128C152.173 64.024 151.853 65.176 151.021 65.688C145.773 68.888 136.429 73.56 132.397 69.272C130.477 67.288 130.605 63.96 132.653 60.952C133.805 59.224 135.341 57.56 136.813 55.896C139.245 53.208 142.061 50.136 141.485 48.472C141.357 48.152 141.229 48.088 140.973 48.024C137.709 47.448 127.149 54.232 113.773 70.808L97.1326 95.192C96.8126 95.768 96.2366 96.024 95.5966 96.024ZM154.581 59.544C153.173 61.656 152.597 63.512 152.981 64.92C153.173 65.688 153.749 66.328 154.901 66.84C157.205 67.928 159.509 66.392 160.597 65.432C163.221 63.128 164.437 59.672 163.925 58.072C163.733 57.432 163.093 57.048 162.005 56.856C159.829 56.472 156.437 57.304 154.581 59.544ZM156.565 71C155.413 71 154.389 70.744 153.301 70.232C150.677 69.016 149.717 67.288 149.333 65.88C148.693 63.512 149.461 60.504 151.573 57.432C153.877 54.04 161.109 46.424 164.309 44.312C165.205 43.736 166.357 43.928 166.933 44.824C167.509 45.72 167.189 46.872 166.421 47.384C165.077 48.28 162.581 50.648 160.213 53.08C161.109 53.016 161.941 53.08 162.645 53.208C165.141 53.656 166.933 55.064 167.509 56.92C168.725 60.76 166.037 65.624 163.029 68.248C160.981 70.04 158.741 71 156.565 71Z" fill="#63BAFF"/>
</svg>
