<svg width="216" height="117" viewBox="0 0 216 117" fill="none" xmlns="http://www.w3.org/2000/svg">
<path d="M34.656 47.832C30.176 48.216 24.16 54.808 23.776 61.72C23.584 66.2 26.4 66.776 27.296 66.904C31.968 67.8 35.168 64.472 36.64 62.424C39.584 58.264 40.672 52.568 39.008 49.688C38.24 48.216 36.768 47.64 34.656 47.832ZM28.768 75.608C10.528 88.984 -0.288 100.504 -1.248 107.544C-1.504 109.336 -1.12 110.744 -0.160002 111.96C0.863998 113.176 1.632 113.304 2.272 113.24C3.936 113.048 7.136 111.192 12.576 103.32C16.672 97.304 21.024 89.496 24.864 82.584C26.208 80.152 27.488 77.784 28.768 75.608ZM2.016 116.952C0.608 116.952 -1.312 116.44 -3.04 114.392C-4.704 112.344 -5.344 109.848 -4.96 107.032C-4.128 100.952 2.592 89.752 28.896 70.808C28.192 70.808 27.36 70.744 26.592 70.616C22.24 69.784 19.808 66.392 20.064 61.528C20.384 54.168 26.912 44.696 34.336 44.056C37.92 43.8 40.736 45.08 42.272 47.832C43.04 49.112 43.424 50.712 43.488 52.504L48.48 44.952C49.056 44.056 50.208 43.8 51.04 44.376C51.936 44.952 52.192 46.104 51.616 47L41.248 62.744C45.216 60.504 49.952 57.88 54.432 55.64C55.328 55.128 56.48 55.512 56.928 56.408C57.44 57.368 57.056 58.456 56.16 58.968C48.544 62.872 40.16 67.608 36.448 70.104C34.08 73.688 31.2 78.872 28.128 84.44C17.824 103.064 9.952 116.248 2.592 116.952H2.016ZM63.1195 55.256C67.6635 55.896 71.0555 55.128 73.5515 52.888C75.3435 51.352 76.1115 49.688 75.5995 48.728C75.2155 48.088 74.1915 47.576 72.7835 47.96C71.3115 48.344 66.5115 51.288 63.1195 55.256ZM64.1435 71C63.0555 71 62.0955 70.872 61.1355 70.616C58.7035 69.848 56.9755 68.12 56.1435 65.56C55.3755 63.064 55.6315 60.44 56.9755 57.624C55.4395 57.112 53.9675 56.6 52.6235 56.024C51.6635 55.64 51.1515 54.552 51.5355 53.592C51.9195 52.632 53.0075 52.184 53.9675 52.568C55.7595 53.272 57.4235 53.848 59.0235 54.296C62.8635 49.24 69.0715 45.08 71.8235 44.376C74.7035 43.544 77.6475 44.632 78.8635 46.936C79.4395 47.896 80.8475 51.48 76.1115 55.704C71.6955 59.608 65.9995 59.736 60.6875 58.648C60.6875 58.648 60.6235 58.648 60.6235 58.712C59.4715 60.824 59.2155 62.744 59.7275 64.408C60.1755 65.816 61.0075 66.648 62.2235 67.032C66.0635 68.184 73.6155 64.984 78.3515 61.336C79.1835 60.696 80.3355 60.888 80.9755 61.72C81.6155 62.552 81.4875 63.704 80.6555 64.344C76.7515 67.288 69.7755 71 64.1435 71ZM76.8135 71C76.5575 71 76.2375 70.936 75.9815 70.808C75.0855 70.36 74.7015 69.272 75.1495 68.312L80.9095 56.344L80.9735 56.28L86.3495 44.696C86.7975 43.736 87.9495 43.352 88.8455 43.8C89.8055 44.184 90.1895 45.336 89.7415 46.232L88.8455 48.216C92.1095 45.592 95.8215 43.48 98.8295 44.248C100.302 44.632 102.222 45.912 102.926 49.624C103.118 50.584 102.414 51.608 101.39 51.8C100.366 51.992 99.4055 51.288 99.2135 50.264C99.0215 49.304 98.7015 48.088 97.8695 47.896C96.4615 47.512 93.7095 49.048 90.5735 51.672C90.8295 51.736 91.1495 51.8 91.4055 51.928C94.4135 53.08 95.6935 55.896 94.7335 59.16C94.5415 60.12 94.1575 61.08 93.8375 61.976C92.5575 65.624 92.6855 66.392 93.7095 66.84C94.7975 67.352 98.8935 65.56 106.318 55.256C106.958 54.424 108.11 54.232 108.942 54.808C109.838 55.448 109.966 56.6 109.39 57.432C102.99 66.328 97.9335 70.68 94.0935 70.68C93.3895 70.68 92.7495 70.552 92.1735 70.296C87.6295 68.248 89.2935 63.576 90.3175 60.76C90.6375 59.864 90.9575 58.968 91.0855 58.264C91.0855 58.2 91.0855 58.136 91.1495 58.136C91.5335 56.728 91.2135 55.896 90.0615 55.448C89.0375 55.064 87.5015 55.128 86.2215 55.896C85.5175 56.6 84.8775 57.368 84.2375 58.136L78.4775 69.976C78.1575 70.616 77.5175 71 76.8135 71ZM121.578 47.576C118.378 47.576 114.602 50.264 111.018 55.32C108.394 58.968 106.986 62.808 107.562 65.048C107.754 65.816 108.074 66.264 108.714 66.584C112.554 68.504 119.402 63.512 126.762 53.4C127.082 51.352 125.866 48.984 123.754 48.024C123.05 47.704 122.346 47.576 121.578 47.576ZM125.994 67.16C125.994 67.16 126.122 67.224 126.186 67.224C129.898 67.544 134.186 62.744 136.746 59.8L138.474 57.88C139.114 57.24 140.458 57.24 141.098 57.88C141.738 58.52 141.802 59.8 141.098 60.504L139.562 62.296C136.49 65.752 131.946 71 126.57 71L125.866 70.936C124.394 70.808 123.306 70.104 122.666 68.888C122.09 67.8 121.962 66.328 122.346 64.408C117.482 69.08 111.914 72.408 107.05 69.976C105.45 69.144 104.362 67.736 103.914 65.944C103.082 62.552 104.554 57.88 107.946 53.144C115.946 41.944 122.794 43.48 125.29 44.632C129.13 46.36 131.306 50.584 130.346 54.616C130.346 54.744 130.218 55 130.154 55.128C130.154 55.128 128.618 57.88 127.402 60.888C125.354 65.816 125.93 67.032 125.994 67.16ZM153.158 47.96H152.454C147.974 48.344 141.894 54.936 141.51 61.848C141.446 63.064 141.382 66.392 145.094 67.096C149.766 67.992 152.902 64.6 154.374 62.552C154.63 62.168 155.142 61.464 155.782 60.312C157.638 56.6 158.086 52.184 156.742 49.816C156.038 48.6 154.886 47.96 153.158 47.96ZM146.566 71C145.798 71 145.03 70.936 144.39 70.808C140.038 69.976 137.542 66.584 137.798 61.656C138.182 54.232 144.71 44.888 152.134 44.248C155.718 43.928 158.47 45.272 160.006 47.96L160.198 48.28C161.542 43.16 162.822 36.44 163.654 27.8C163.718 26.968 164.358 26.2 165.254 26.072C166.214 25.944 166.982 26.456 167.302 27.288C168.902 31.576 175.174 31.832 180.486 30.744C185.03 29.848 190.982 26.84 192.646 21.4C192.966 20.376 193.926 19.8 194.95 20.12C195.974 20.44 196.55 21.464 196.23 22.488C194.822 27.096 190.214 32.6 181.254 34.456C173.766 35.992 169.478 34.584 166.918 32.664C164.87 48.984 161.35 57.816 159.046 62.104C158.598 63 158.086 63.832 157.446 64.728C154.502 68.824 150.662 71 146.566 71ZM159.519 71.64C159.135 71.64 158.687 71.512 158.367 71.256C157.535 70.616 157.407 69.4 158.047 68.632C163.743 61.528 169.375 55.64 174.431 51.416L171.423 55.704L161.055 70.808L160.991 70.936C160.607 71.384 160.095 71.64 159.519 71.64ZM142.878 96.024C142.559 96.024 142.174 95.896 141.854 95.704C140.958 95.128 140.767 93.912 141.342 93.08L168.351 53.528L177.759 39.96C178.335 39.128 179.487 38.936 180.383 39.512C181.215 40.088 181.407 41.24 180.831 42.136L174.431 51.416C180.447 46.36 185.503 43.736 188.831 44.312C190.495 44.568 191.711 45.592 192.287 47.192C193.631 50.968 190.367 54.616 186.911 58.456C185.503 59.992 184.095 61.592 183.007 63.064C182.047 64.536 181.791 66.072 182.367 66.712C183.263 67.672 187.359 67.992 196.319 62.488C197.215 61.976 198.367 62.232 198.879 63.128C199.455 64.024 199.135 65.176 198.303 65.688C193.055 68.888 183.711 73.56 179.679 69.272C177.759 67.288 177.887 63.96 179.935 60.952C181.087 59.224 182.623 57.56 184.095 55.896C186.527 53.208 189.343 50.136 188.767 48.472C188.639 48.152 188.511 48.088 188.255 48.024C184.991 47.448 174.431 54.232 161.055 70.808L144.414 95.192C144.094 95.768 143.518 96.024 142.878 96.024ZM201.863 59.544C200.455 61.656 199.879 63.512 200.263 64.92C200.455 65.688 201.031 66.328 202.183 66.84C204.487 67.928 206.791 66.392 207.879 65.432C210.503 63.128 211.719 59.672 211.207 58.072C211.015 57.432 210.375 57.048 209.287 56.856C207.111 56.472 203.719 57.304 201.863 59.544ZM203.847 71C202.695 71 201.671 70.744 200.583 70.232C197.959 69.016 196.999 67.288 196.615 65.88C195.975 63.512 196.743 60.504 198.855 57.432C201.159 54.04 208.391 46.424 211.591 44.312C212.487 43.736 213.639 43.928 214.215 44.824C214.791 45.72 214.471 46.872 213.703 47.384C212.359 48.28 209.863 50.648 207.495 53.08C208.391 53.016 209.223 53.08 209.927 53.208C212.423 53.656 214.215 55.064 214.791 56.92C216.007 60.76 213.319 65.624 210.311 68.248C208.263 70.04 206.023 71 203.847 71Z" fill="#63BAFF"/>
</svg>
