<svg width="226" height="97" viewBox="0 0 226 97" fill="none" xmlns="http://www.w3.org/2000/svg">
<path d="M24.5764 47.128C21.0564 47.128 15.8084 48.92 11.6484 53.592C7.48841 58.264 6.08041 63.128 8.12841 66.008C8.44841 66.52 9.47241 67.096 11.2004 67.032C12.6724 67.032 17.6644 66.392 22.0164 59.672L24.2564 56.216L24.7044 55.448L27.3924 51.288C28.4804 49.688 28.5444 48.536 27.7124 47.896C27.0724 47.448 25.9844 47.128 24.5764 47.128ZM27.8404 57.496L27.4564 58.2C25.9204 60.696 25.5364 63.192 26.4324 64.92C27.2004 66.328 28.7364 67.16 30.8484 67.16C33.6004 67.16 37.1844 65.56 39.8724 63.192C42.1124 61.144 44.8644 57.624 44.8644 52.312C44.8644 48.408 43.0724 47.896 42.4964 47.704C39.0404 46.68 32.6404 50.136 30.5924 53.336L27.9044 57.496H27.8404ZM1.15241 95.384C0.256406 94.872 0.000406027 93.656 0.576406 92.824L15.2964 70.04C13.9524 70.552 12.6084 70.808 11.3284 70.808C8.57641 70.872 6.20841 69.848 5.05641 68.184C1.98441 63.768 3.39241 57.24 8.83241 51.096C11.9044 47.64 15.9364 45.08 20.1604 43.992C24.1284 42.904 27.8404 43.288 30.0164 44.952C30.2084 45.08 30.5924 45.4 30.9124 45.848L32.9604 42.776C33.6004 41.752 35.1364 41.56 36.0324 42.648C36.4804 43.288 36.5444 44.12 36.0964 44.824C38.6564 43.864 41.3444 43.48 43.5204 44.12C45.4404 44.696 48.6404 46.488 48.6404 52.312C48.6404 57.496 46.4004 62.36 42.3684 66.008C38.9764 69.016 34.5604 70.872 30.8484 70.872C27.3284 70.872 24.5124 69.336 23.1044 66.648C22.9124 66.328 22.7844 65.944 22.6564 65.624L3.71241 94.872C3.13641 95.704 1.98441 95.96 1.15241 95.384ZM59.0609 55.256C63.6049 55.896 66.9969 55.128 69.4929 52.888C71.2849 51.352 72.0529 49.688 71.5409 48.728C71.1569 48.088 70.1329 47.576 68.7249 47.96C67.2529 48.344 62.4529 51.288 59.0609 55.256ZM60.0849 71C58.9969 71 58.0369 70.872 57.0769 70.616C54.6449 69.848 52.9169 68.12 52.0849 65.56C51.3169 63.064 51.5729 60.44 52.9169 57.624C51.3809 57.112 49.9089 56.6 48.5649 56.024C47.6049 55.64 47.0929 54.552 47.4769 53.592C47.8609 52.632 48.9489 52.184 49.9089 52.568C51.7009 53.272 53.3649 53.848 54.9649 54.296C58.8049 49.24 65.0129 45.08 67.7649 44.376C70.6449 43.544 73.5889 44.632 74.8049 46.936C75.3809 47.896 76.7889 51.48 72.0529 55.704C67.6369 59.608 61.9409 59.736 56.6289 58.648C56.6289 58.648 56.5649 58.648 56.5649 58.712C55.4129 60.824 55.1569 62.744 55.6689 64.408C56.1169 65.816 56.9489 66.648 58.1649 67.032C62.0049 68.184 69.5569 64.984 74.2929 61.336C75.1249 60.696 76.2769 60.888 76.9169 61.72C77.5569 62.552 77.4289 63.704 76.5969 64.344C72.6929 67.288 65.7169 71 60.0849 71ZM111.603 13.528C111.155 13.592 107.827 14.104 99.6349 29.016C98.0989 31.832 96.4989 34.84 94.8349 38.232C102.579 31.896 109.043 23.832 111.475 18.008C112.499 15.64 112.371 14.36 112.179 14.04C111.859 13.592 111.731 13.528 111.603 13.528ZM87.1549 58.776C86.8989 59.672 86.7709 60.76 86.7069 61.784C86.5149 64.92 87.7309 66.648 90.2909 67.096C95.0269 67.992 98.2269 64.6 99.7629 62.488C102.707 58.328 103.795 52.504 102.131 49.56C101.299 48.088 99.8909 47.512 97.7149 47.704C94.1949 48.024 89.5869 52.184 87.6669 57.368L87.3469 58.328C87.3469 58.456 87.1549 58.776 87.1549 58.776ZM91.7629 71C91.1229 71 90.2909 70.936 89.5869 70.808C85.1069 69.976 82.6749 66.52 82.9309 61.592C82.9949 60.056 83.3149 58.584 83.8269 57.048C84.7229 53.784 85.7469 50.84 86.7069 48.024C84.1469 49.24 81.7149 50.2 79.2189 50.712C78.2589 50.904 77.2349 50.264 77.0429 49.24C76.7869 48.152 77.4909 47.192 78.4509 47C81.7789 46.296 85.3629 44.696 88.8189 42.584C91.3149 36.504 93.9389 31.576 96.3069 27.16C104.819 11.736 109.043 9.88 111.475 9.816C113.075 9.752 114.355 10.52 115.315 11.992C116.403 13.656 116.275 16.152 114.931 19.416C111.795 26.904 102.451 38.168 91.8909 45.08L91.3789 46.36C93.2349 45.016 95.2829 44.12 97.3949 43.928C100.915 43.608 103.859 44.952 105.395 47.704C107.827 51.928 106.675 59.224 102.771 64.664C99.8269 68.76 95.9229 71 91.7629 71ZM102.22 71.64C101.836 71.64 101.388 71.512 101.068 71.256C100.236 70.616 100.108 69.4 100.748 68.632C106.444 61.528 112.076 55.64 117.132 51.416L114.124 55.704L103.756 70.808L103.692 70.936C103.308 71.384 102.796 71.64 102.22 71.64ZM85.5799 96.024C85.2599 96.024 84.8759 95.896 84.5559 95.704C83.6599 95.128 83.4679 93.912 84.0439 93.08L111.052 53.528L120.46 39.96C121.036 39.128 122.188 38.936 123.084 39.512C123.916 40.088 124.108 41.24 123.532 42.136L117.132 51.416C123.148 46.36 128.204 43.736 131.532 44.312C133.196 44.568 134.412 45.592 134.988 47.192C136.332 50.968 133.068 54.616 129.612 58.456C128.204 59.992 126.796 61.592 125.708 63.064C124.748 64.536 124.492 66.072 125.068 66.712C125.964 67.672 130.06 67.992 139.02 62.488C139.916 61.976 141.068 62.232 141.58 63.128C142.156 64.024 141.836 65.176 141.004 65.688C135.756 68.888 126.412 73.56 122.38 69.272C120.46 67.288 120.588 63.96 122.636 60.952C123.788 59.224 125.324 57.56 126.796 55.896C129.228 53.208 132.044 50.136 131.468 48.472C131.34 48.152 131.212 48.088 130.956 48.024C127.692 47.448 117.132 54.232 103.756 70.808L87.1159 95.192C86.7959 95.768 86.2199 96.024 85.5799 96.024ZM155.764 47.576C152.564 47.576 148.788 50.264 145.204 55.32C142.58 58.968 141.172 62.808 141.748 65.048C141.94 65.816 142.26 66.264 142.9 66.584C146.74 68.504 153.588 63.512 160.948 53.4C161.268 51.352 160.052 48.984 157.94 48.024C157.236 47.704 156.532 47.576 155.764 47.576ZM160.18 67.16C160.18 67.16 160.308 67.224 160.372 67.224C164.084 67.544 168.372 62.744 170.932 59.8L172.66 57.88C173.3 57.24 174.644 57.24 175.284 57.88C175.924 58.52 175.988 59.8 175.284 60.504L173.748 62.296C170.676 65.752 166.132 71 160.756 71L160.052 70.936C158.58 70.808 157.492 70.104 156.852 68.888C156.276 67.8 156.148 66.328 156.532 64.408C151.668 69.08 146.1 72.408 141.236 69.976C139.636 69.144 138.548 67.736 138.1 65.944C137.268 62.552 138.74 57.88 142.132 53.144C150.132 41.944 156.98 43.48 159.476 44.632C163.316 46.36 165.492 50.584 164.532 54.616C164.532 54.744 164.404 55 164.34 55.128C164.34 55.128 162.804 57.88 161.588 60.888C159.54 65.816 160.116 67.032 160.18 67.16ZM197.392 71C196.752 71 196.176 70.872 195.6 70.68C193.936 70.104 192.784 68.952 192.208 67.288C191.44 65.112 191.696 62.104 193.04 58.2C187.152 64.408 179.92 70.808 175.184 70.808C174.864 70.808 174.608 70.808 174.352 70.744C172.752 70.488 171.472 69.528 170.768 68.12C169.424 65.368 170.32 61.72 171.216 59.864C171.728 58.968 172.816 58.584 173.776 59.096C174.672 59.544 175.056 60.696 174.608 61.592C173.904 62.936 173.584 65.24 174.16 66.456C174.352 66.776 174.608 66.968 174.992 67.032C178.512 67.672 190.16 57.112 199.952 44.44C200.592 43.672 201.68 43.48 202.512 44.056C203.344 44.632 203.536 45.784 203.024 46.616C199.504 52.12 194.384 62.232 195.728 66.072C195.92 66.584 196.24 66.904 196.816 67.096C198.48 67.672 202.256 65.624 207.888 58.072C208.528 57.24 209.68 57.048 210.512 57.688C211.344 58.328 211.536 59.48 210.896 60.312C205.648 67.416 201.104 71 197.392 71ZM211.611 59.544C210.203 61.656 209.627 63.512 210.011 64.92C210.203 65.688 210.779 66.328 211.931 66.84C214.235 67.928 216.539 66.392 217.627 65.432C220.251 63.128 221.467 59.672 220.955 58.072C220.763 57.432 220.123 57.048 219.035 56.856C216.859 56.472 213.467 57.304 211.611 59.544ZM213.595 71C212.443 71 211.419 70.744 210.331 70.232C207.707 69.016 206.747 67.288 206.363 65.88C205.723 63.512 206.491 60.504 208.603 57.432C210.907 54.04 218.139 46.424 221.339 44.312C222.235 43.736 223.387 43.928 223.963 44.824C224.539 45.72 224.219 46.872 223.451 47.384C222.107 48.28 219.611 50.648 217.243 53.08C218.139 53.016 218.971 53.08 219.675 53.208C222.171 53.656 223.963 55.064 224.539 56.92C225.755 60.76 223.067 65.624 220.059 68.248C218.011 70.04 215.771 71 213.595 71Z" fill="#383838"/>
</svg>
