<svg width="171" height="97" viewBox="0 0 171 97" fill="none" xmlns="http://www.w3.org/2000/svg">
<path d="M41.8557 71C41.2156 71 40.5756 70.936 39.8717 70.68C37.9516 69.976 36.6077 68.568 36.0317 66.584C32.2556 70.232 28.9277 71.64 26.1117 70.68C24.4476 70.104 23.2956 68.952 22.7197 67.288C21.8876 64.92 22.4636 61.592 23.6157 58.2C17.6636 64.472 10.4316 70.808 5.69565 70.808C5.43965 70.808 5.18365 70.808 4.86365 70.744C3.32765 70.488 2.04765 69.528 1.34365 68.12C-0.000351608 65.432 0.895648 61.656 1.79165 59.928C2.23965 59.032 3.39165 58.648 4.28765 59.096C5.18365 59.544 5.56765 60.696 5.11965 61.592C4.41565 62.936 4.09565 65.304 4.67165 66.456C4.86365 66.84 5.18365 67.032 5.50365 67.096C8.95965 67.672 20.6716 57.176 30.4636 44.504C31.1036 43.672 32.2556 43.544 33.0237 44.12C33.8557 44.696 34.1116 45.72 33.5356 46.616C33.5356 46.616 31.1677 50.328 29.1196 54.68C25.5357 62.232 25.9196 65.176 26.2396 66.072C26.4317 66.648 26.7516 66.968 27.3277 67.16C28.8636 67.672 32.4476 65.816 37.6316 59.096L38.4636 58.072C40.5756 55.256 42.6236 52.184 44.4156 49.56L47.9356 44.504C48.5117 43.736 49.6637 43.48 50.5597 44.12C51.3277 44.696 51.5837 45.848 50.9436 46.744L47.5517 51.672C45.6957 54.36 43.5836 57.496 41.4716 60.312C41.4716 60.312 41.4076 60.376 41.4076 60.312C41.1516 60.696 40.9597 61.016 40.7037 61.336C39.7436 62.744 39.2957 64.28 39.6157 65.496C39.8077 66.264 40.3196 66.84 41.1516 67.16C43.9677 68.184 50.5597 62.872 54.0157 56.92C54.5277 56.024 55.6796 55.704 56.5756 56.216C57.4717 56.728 57.7917 57.88 57.2797 58.776C54.0157 64.408 47.2317 71 41.8557 71ZM70.0371 47.576C66.8371 47.576 63.0611 50.264 59.4771 55.32C56.8531 58.968 55.4451 62.808 56.0211 65.048C56.2131 65.816 56.5331 66.264 57.1731 66.584C61.0132 68.504 67.8611 63.512 75.2212 53.4C75.5412 51.352 74.3251 48.984 72.2132 48.024C71.5091 47.704 70.8052 47.576 70.0371 47.576ZM74.4531 67.16C74.4531 67.16 74.5812 67.224 74.6452 67.224C78.3572 67.544 82.6452 62.744 85.2052 59.8L86.9332 57.88C87.5732 57.24 88.9172 57.24 89.5572 57.88C90.1972 58.52 90.2612 59.8 89.5572 60.504L88.0212 62.296C84.9492 65.752 80.4052 71 75.0292 71L74.3251 70.936C72.8531 70.808 71.7652 70.104 71.1252 68.888C70.5492 67.8 70.4212 66.328 70.8052 64.408C65.9411 69.08 60.3731 72.408 55.5091 69.976C53.9091 69.144 52.8211 67.736 52.3731 65.944C51.5411 62.552 53.0131 57.88 56.4051 53.144C64.4051 41.944 71.2532 43.48 73.7492 44.632C77.5892 46.36 79.7652 50.584 78.8052 54.616C78.8052 54.744 78.6772 55 78.6132 55.128C78.6132 55.128 77.0772 57.88 75.8612 60.888C73.8132 65.816 74.3892 67.032 74.4531 67.16ZM80.4332 71.64C80.0492 71.64 79.6012 71.512 79.2812 71.256C78.4492 70.616 78.3212 69.4 78.9612 68.632C84.6572 61.528 90.2892 55.64 95.3452 51.416L92.3372 55.704L81.9692 70.808L81.9052 70.936C81.5212 71.384 81.0092 71.64 80.4332 71.64ZM63.7931 96.024C63.4732 96.024 63.0891 95.896 62.7691 95.704C61.8731 95.128 61.6812 93.912 62.2571 93.08L89.2652 53.528L98.6732 39.96C99.2492 39.128 100.401 38.936 101.297 39.512C102.129 40.088 102.321 41.24 101.745 42.136L95.3452 51.416C101.361 46.36 106.417 43.736 109.745 44.312C111.409 44.568 112.625 45.592 113.201 47.192C114.545 50.968 111.281 54.616 107.825 58.456C106.417 59.992 105.009 61.592 103.921 63.064C102.961 64.536 102.705 66.072 103.281 66.712C104.177 67.672 108.273 67.992 117.233 62.488C118.129 61.976 119.281 62.232 119.793 63.128C120.369 64.024 120.049 65.176 119.217 65.688C113.969 68.888 104.625 73.56 100.593 69.272C98.6732 67.288 98.8012 63.96 100.849 60.952C102.001 59.224 103.537 57.56 105.009 55.896C107.441 53.208 110.257 50.136 109.681 48.472C109.553 48.152 109.425 48.088 109.169 48.024C105.905 47.448 95.3452 54.232 81.9692 70.808L65.3291 95.192C65.0091 95.768 64.4331 96.024 63.7931 96.024ZM133.977 70.936C133.785 70.936 133.529 70.872 133.273 70.744C132.377 70.36 131.865 69.336 132.249 68.376C133.529 64.856 135.833 61.464 137.881 58.456C140.633 54.36 143.257 50.456 141.977 48.536C141.657 48.088 141.209 47.768 140.569 47.704C139.673 47.576 137.177 47.704 132.889 51.288C127.897 55.32 120.729 64.216 116.953 70.04C116.377 70.936 115.289 71.192 114.393 70.616C113.497 70.104 113.241 68.952 113.753 68.12L124.377 49.624C122.905 50.008 121.433 50.456 120.025 51.928C119.257 52.632 118.105 52.632 117.337 51.928C116.761 51.352 116.761 49.88 117.337 49.304C119.769 46.872 122.265 46.232 124.313 45.784C126.041 45.4 126.937 45.144 127.577 44.184C128.089 43.288 129.241 43.032 130.137 43.544C130.969 44.12 131.289 45.208 130.777 46.104L128.345 50.264L130.457 48.344C134.489 45.08 138.137 43.544 141.081 43.992C142.745 44.248 144.153 45.08 145.049 46.424C145.945 47.704 146.201 49.112 146.009 50.52L147.609 49.304L148.633 48.472L148.761 48.344C153.241 44.76 157.529 43.16 160.537 44.056C162.009 44.44 163.033 45.464 163.545 46.872C164.825 50.648 161.625 54.296 158.297 58.136C156.953 59.672 155.545 61.272 154.521 62.808C153.561 64.28 153.433 66.008 153.945 66.52C154.841 67.416 158.745 67.672 167.321 62.232C168.217 61.72 169.369 61.976 169.945 62.808C170.457 63.704 170.201 64.856 169.369 65.432C158.233 72.472 153.369 71.32 151.257 69.144C149.337 67.16 149.401 63.768 151.449 60.696C152.601 58.968 154.073 57.304 155.481 55.64C157.849 52.888 160.537 49.816 159.961 48.088C159.897 47.896 159.769 47.768 159.449 47.64C158.105 47.256 154.969 48.216 151.129 51.224L149.913 52.248C147.033 54.552 140.185 59.928 135.705 69.784C135.385 70.488 134.745 70.936 133.977 70.936Z" fill="#63BAFF"/>
</svg>
