<svg width="181" height="97" viewBox="0 0 181 97" fill="none" xmlns="http://www.w3.org/2000/svg">
<path d="M18.4962 47.576C15.2962 47.576 11.5202 50.264 7.93617 55.32C5.31217 58.968 3.90417 62.808 4.48017 65.048C4.67217 65.816 4.99217 66.264 5.63217 66.584C9.47217 68.504 16.3202 63.512 23.6802 53.4C24.0002 51.352 22.7842 48.984 20.6722 48.024C19.9682 47.704 19.2642 47.576 18.4962 47.576ZM22.9122 67.16C22.9122 67.16 23.0402 67.224 23.1042 67.224C26.8162 67.544 31.1042 62.744 33.6642 59.8L35.3922 57.88C36.0322 57.24 37.3762 57.24 38.0162 57.88C38.6562 58.52 38.7202 59.8 38.0162 60.504L36.4802 62.296C33.4082 65.752 28.8642 71 23.4882 71L22.7842 70.936C21.3122 70.808 20.2242 70.104 19.5842 68.888C19.0082 67.8 18.8802 66.328 19.2642 64.408C14.4002 69.08 8.83217 72.408 3.96817 69.976C2.36817 69.144 1.28017 67.736 0.832172 65.944C0.00017184 62.552 1.47217 57.88 4.86417 53.144C12.8642 41.944 19.7122 43.48 22.2082 44.632C26.0482 46.36 28.2242 50.584 27.2642 54.616C27.2642 54.744 27.1362 55 27.0722 55.128C27.0722 55.128 25.5362 57.88 24.3202 60.888C22.2722 65.816 22.8482 67.032 22.9122 67.16ZM30.8122 70.744C30.4922 70.744 30.1722 70.68 29.8522 70.488C29.0202 69.976 28.7002 68.888 29.2122 67.992L34.7802 57.56L41.3722 44.184C41.8202 43.224 42.9722 42.84 43.8682 43.352C44.8282 43.8 45.2122 44.888 44.7642 45.848L40.9882 53.464C43.0362 51.416 44.6362 50.008 45.6602 49.112L46.4282 48.472C50.0122 44.824 54.1722 43.032 57.3082 43.736C58.9722 44.12 60.2522 45.208 60.7642 46.744C62.0442 50.456 58.8442 54.104 55.5162 57.944C54.1722 59.48 52.7642 61.08 51.8042 62.616C50.7802 64.088 50.5242 65.688 51.1642 66.392C52.0602 67.288 55.9642 67.544 64.5402 62.104C65.4362 61.528 66.5882 61.784 67.1642 62.68C67.6762 63.576 67.4202 64.728 66.5882 65.24C55.4522 72.28 50.5882 71.192 48.4762 69.016C46.5562 67.032 46.6202 63.64 48.6682 60.568C49.8202 58.84 51.2922 57.112 52.7002 55.512C55.0682 52.76 57.7562 49.624 57.1802 47.96C57.1802 47.832 57.0522 47.512 56.4762 47.384C55.0042 47.064 52.0602 48.088 49.0522 51.16H48.9882L48.0922 51.928C45.6602 54.104 39.0682 59.864 32.4122 69.912C32.0282 70.488 31.4522 70.744 30.8122 70.744ZM60.6547 71.64C60.2707 71.64 59.8227 71.512 59.5027 71.256C58.6707 70.616 58.5427 69.4 59.1827 68.632C64.8787 61.528 70.5107 55.64 75.5667 51.416L72.5587 55.704L62.1907 70.808L62.1267 70.936C61.7427 71.384 61.2307 71.64 60.6547 71.64ZM44.0147 96.024C43.6947 96.024 43.3107 95.896 42.9907 95.704C42.0947 95.128 41.9027 93.912 42.4787 93.08L69.4867 53.528L78.8947 39.96C79.4707 39.128 80.6227 38.936 81.5187 39.512C82.3507 40.088 82.5427 41.24 81.9667 42.136L75.5667 51.416C81.5827 46.36 86.6387 43.736 89.9667 44.312C91.6307 44.568 92.8467 45.592 93.4227 47.192C94.7667 50.968 91.5027 54.616 88.0467 58.456C86.6387 59.992 85.2307 61.592 84.1427 63.064C83.1827 64.536 82.9267 66.072 83.5027 66.712C84.3987 67.672 88.4947 67.992 97.4547 62.488C98.3507 61.976 99.5027 62.232 100.015 63.128C100.591 64.024 100.271 65.176 99.4387 65.688C94.1907 68.888 84.8467 73.56 80.8147 69.272C78.8947 67.288 79.0227 63.96 81.0707 60.952C82.2227 59.224 83.7587 57.56 85.2307 55.896C87.6627 53.208 90.4787 50.136 89.9027 48.472C89.7747 48.152 89.6467 48.088 89.3907 48.024C86.1267 47.448 75.5667 54.232 62.1907 70.808L45.5507 95.192C45.2307 95.768 44.6547 96.024 44.0147 96.024ZM109.911 55.256C114.455 55.896 117.847 55.128 120.343 52.888C122.135 51.352 122.903 49.688 122.391 48.728C122.007 48.088 120.983 47.576 119.575 47.96C118.103 48.344 113.303 51.288 109.911 55.256ZM110.935 71C109.847 71 108.887 70.872 107.927 70.616C105.495 69.848 103.767 68.12 102.935 65.56C102.167 63.064 102.423 60.44 103.767 57.624C102.231 57.112 100.759 56.6 99.4147 56.024C98.4547 55.64 97.9427 54.552 98.3267 53.592C98.7107 52.632 99.7987 52.184 100.759 52.568C102.551 53.272 104.215 53.848 105.815 54.296C109.655 49.24 115.863 45.08 118.615 44.376C121.495 43.544 124.439 44.632 125.655 46.936C126.231 47.896 127.639 51.48 122.903 55.704C118.487 59.608 112.791 59.736 107.479 58.648C107.479 58.648 107.415 58.648 107.415 58.712C106.263 60.824 106.007 62.744 106.519 64.408C106.967 65.816 107.799 66.648 109.015 67.032C112.855 68.184 120.407 64.984 125.143 61.336C125.975 60.696 127.127 60.888 127.767 61.72C128.407 62.552 128.279 63.704 127.447 64.344C123.543 67.288 116.567 71 110.935 71ZM151.637 71C150.997 71 150.421 70.872 149.845 70.68C148.181 70.104 147.029 68.952 146.453 67.288C145.685 65.112 145.941 62.104 147.285 58.2C141.397 64.408 134.165 70.808 129.429 70.808C129.109 70.808 128.853 70.808 128.597 70.744C126.997 70.488 125.717 69.528 125.013 68.12C123.669 65.368 124.565 61.72 125.461 59.864C125.973 58.968 127.061 58.584 128.021 59.096C128.917 59.544 129.301 60.696 128.853 61.592C128.149 62.936 127.829 65.24 128.405 66.456C128.597 66.776 128.853 66.968 129.237 67.032C132.757 67.672 144.405 57.112 154.197 44.44C154.837 43.672 155.925 43.48 156.757 44.056C157.589 44.632 157.781 45.784 157.269 46.616C153.749 52.12 148.629 62.232 149.973 66.072C150.165 66.584 150.485 66.904 151.061 67.096C152.725 67.672 156.501 65.624 162.133 58.072C162.773 57.24 163.925 57.048 164.757 57.688C165.589 58.328 165.781 59.48 165.141 60.312C159.893 67.416 155.349 71 151.637 71ZM165.856 59.544C164.448 61.656 163.872 63.512 164.256 64.92C164.448 65.688 165.024 66.328 166.176 66.84C168.48 67.928 170.784 66.392 171.872 65.432C174.496 63.128 175.712 59.672 175.2 58.072C175.008 57.432 174.368 57.048 173.28 56.856C171.104 56.472 167.712 57.304 165.856 59.544ZM167.84 71C166.688 71 165.664 70.744 164.576 70.232C161.952 69.016 160.992 67.288 160.608 65.88C159.968 63.512 160.736 60.504 162.848 57.432C165.152 54.04 172.384 46.424 175.584 44.312C176.48 43.736 177.632 43.928 178.208 44.824C178.784 45.72 178.464 46.872 177.696 47.384C176.352 48.28 173.856 50.648 171.488 53.08C172.384 53.016 173.216 53.08 173.92 53.208C176.416 53.656 178.208 55.064 178.784 56.92C180 60.76 177.312 65.624 174.304 68.248C172.256 70.04 170.016 71 167.84 71Z" fill="#63BAFF"/>
</svg>
