<svg width="121" height="90" viewBox="0 0 121 90" fill="none" xmlns="http://www.w3.org/2000/svg">
<path d="M41.8557 71C41.2156 71 40.5756 70.936 39.8717 70.68C37.9516 69.976 36.6077 68.568 36.0317 66.584C32.2556 70.232 28.9277 71.64 26.1117 70.68C24.4476 70.104 23.2956 68.952 22.7197 67.288C21.8876 64.92 22.4636 61.592 23.6157 58.2C17.6636 64.472 10.4316 70.808 5.69565 70.808C5.43965 70.808 5.18365 70.808 4.86365 70.744C3.32765 70.488 2.04765 69.528 1.34365 68.12C-0.000351608 65.432 0.895648 61.656 1.79165 59.928C2.23965 59.032 3.39165 58.648 4.28765 59.096C5.18365 59.544 5.56765 60.696 5.11965 61.592C4.41565 62.936 4.09565 65.304 4.67165 66.456C4.86365 66.84 5.18365 67.032 5.50365 67.096C8.95965 67.672 20.6716 57.176 30.4636 44.504C31.1036 43.672 32.2556 43.544 33.0237 44.12C33.8557 44.696 34.1116 45.72 33.5356 46.616C33.5356 46.616 31.1677 50.328 29.1196 54.68C25.5357 62.232 25.9196 65.176 26.2396 66.072C26.4317 66.648 26.7516 66.968 27.3277 67.16C28.8636 67.672 32.4476 65.816 37.6316 59.096L38.4636 58.072C40.5756 55.256 42.6236 52.184 44.4156 49.56L47.9356 44.504C48.5117 43.736 49.6637 43.48 50.5597 44.12C51.3277 44.696 51.5837 45.848 50.9436 46.744L47.5517 51.672C45.6957 54.36 43.5836 57.496 41.4716 60.312C41.4716 60.312 41.4076 60.376 41.4076 60.312C41.1516 60.696 40.9597 61.016 40.7037 61.336C39.7436 62.744 39.2957 64.28 39.6157 65.496C39.8077 66.264 40.3196 66.84 41.1516 67.16C43.9677 68.184 50.5597 62.872 54.0157 56.92C54.5277 56.024 55.6796 55.704 56.5756 56.216C57.4717 56.728 57.7917 57.88 57.2797 58.776C54.0157 64.408 47.2317 71 41.8557 71ZM69.7171 47.576C66.5171 47.576 62.7411 50.264 59.1571 55.32C56.5331 58.968 55.1251 62.808 55.7011 65.048C55.8931 65.816 56.2132 66.264 56.8531 66.584C60.6932 68.504 67.5412 63.512 74.9012 53.4C75.2212 51.352 74.0051 48.984 71.8932 48.024C71.1891 47.704 70.4852 47.576 69.7171 47.576ZM74.1332 67.16C74.1332 67.16 74.2612 67.224 74.3252 67.224C78.0372 67.544 82.3252 62.744 84.8852 59.8L86.6132 57.88C87.2532 57.24 88.5972 57.24 89.2372 57.88C89.8772 58.52 89.9412 59.8 89.2372 60.504L87.7012 62.296C84.6292 65.752 80.0852 71 74.7092 71L74.0051 70.936C72.5331 70.808 71.4452 70.104 70.8052 68.888C70.2292 67.8 70.1012 66.328 70.4852 64.408C65.6212 69.08 60.0532 72.408 55.1891 69.976C53.5891 69.144 52.5011 67.736 52.0531 65.944C51.2211 62.552 52.6931 57.88 56.0851 53.144C64.0851 41.944 70.9332 43.48 73.4292 44.632C77.2692 46.36 79.4452 50.584 78.4852 54.616C78.4852 54.744 78.3572 55 78.2932 55.128C78.2932 55.128 76.7572 57.88 75.5412 60.888C73.4932 65.816 74.0692 67.032 74.1332 67.16ZM104.049 42.2C102.897 42.2 101.873 41.944 101.169 41.368C98.7372 39.32 99.2492 35.736 100.785 33.304C101.361 32.408 102.513 32.152 103.409 32.728C104.305 33.304 104.561 34.392 103.985 35.288C103.537 35.992 102.897 37.784 103.537 38.424C104.753 38.808 109.361 37.464 114.545 34.904C115.505 34.456 116.657 34.904 117.105 35.8C117.553 36.696 117.105 37.848 116.209 38.296C112.945 39.896 107.633 42.2 104.049 42.2ZM89.5852 71C88.9452 71 88.4332 70.936 87.9852 70.808C85.8092 70.232 84.3372 68.568 84.0172 66.136C83.5692 62.424 88.1132 55 93.6812 46.424L94.7692 44.696C95.3452 43.864 96.4972 43.608 97.3932 44.184C98.2892 44.76 98.5452 45.848 97.9692 46.744L96.8812 48.472C94.0652 52.76 87.4092 63 87.7292 65.688C87.9212 66.968 88.6892 67.096 88.9452 67.16C90.6092 67.608 95.0252 66.328 100.913 58.392L107.825 48.856L110.769 44.632C111.409 43.736 112.497 43.608 113.329 44.184C114.161 44.76 114.417 45.848 113.841 46.744L111.217 50.584C104.625 60.504 104.561 64.28 104.945 65.56C105.137 66.2 105.393 66.456 105.969 66.712C108.721 67.8 113.969 62.104 116.593 58.584C117.169 57.816 118.449 57.624 119.217 58.2C120.049 58.84 120.177 60.056 119.601 60.824C116.273 65.304 110.065 72.344 104.625 70.168C103.025 69.528 101.809 68.248 101.361 66.648C101.105 65.816 101.041 65.048 101.105 64.088C95.9212 69.912 91.9532 71 89.5852 71Z" fill="#63BAFF"/>
</svg>
