<svg width="241" height="97" viewBox="0 0 241 97" fill="none" xmlns="http://www.w3.org/2000/svg">
<path d="M8.00038 70.808C5.95238 70.808 3.90438 70.168 2.17638 68.44C0.704383 66.904 0.000382811 64.792 0.192383 62.36C0.640383 57.816 4.86438 50.328 11.9684 45.4C14.9764 43.288 17.4724 43.416 19.0084 43.864C20.8644 44.44 22.4004 45.912 23.1044 47.768C23.4884 48.792 23.0404 49.88 22.0804 50.2C21.0564 50.584 19.9684 50.136 19.6484 49.112C19.3284 48.344 18.6884 47.704 17.8564 47.448C16.8324 47.128 15.5524 47.448 14.0804 48.472C8.89638 52.056 4.28838 58.456 3.96838 62.68C3.84038 64.024 4.09638 65.048 4.86438 65.752C9.92038 70.808 21.4404 59.544 25.7924 55.32L26.8804 54.296C27.6484 53.592 28.8004 53.592 29.5044 54.36C30.2724 55.128 30.2084 56.28 29.4404 56.984C29.1844 57.304 28.8004 57.624 28.4164 58.008C25.8564 60.568 21.3124 64.92 16.7044 67.8C14.1444 69.4 11.0084 70.808 8.00038 70.808ZM35.4044 55.256C39.9484 55.896 43.3404 55.128 45.8364 52.888C47.6284 51.352 48.3964 49.688 47.8844 48.728C47.5004 48.088 46.4764 47.576 45.0684 47.96C43.5964 48.344 38.7964 51.288 35.4044 55.256ZM36.4284 71C35.3404 71 34.3804 70.872 33.4204 70.616C30.9884 69.848 29.2604 68.12 28.4284 65.56C27.6604 63.064 27.9164 60.44 29.2604 57.624C27.7244 57.112 26.2524 56.6 24.9084 56.024C23.9484 55.64 23.4364 54.552 23.8204 53.592C24.2044 52.632 25.2924 52.184 26.2524 52.568C28.0444 53.272 29.7084 53.848 31.3084 54.296C35.1484 49.24 41.3564 45.08 44.1084 44.376C46.9884 43.544 49.9324 44.632 51.1484 46.936C51.7244 47.896 53.1324 51.48 48.3964 55.704C43.9804 59.608 38.2844 59.736 32.9724 58.648C32.9724 58.648 32.9084 58.648 32.9084 58.712C31.7564 60.824 31.5004 62.744 32.0124 64.408C32.4604 65.816 33.2924 66.648 34.5084 67.032C38.3484 68.184 45.9004 64.984 50.6364 61.336C51.4684 60.696 52.6204 60.888 53.2604 61.72C53.9004 62.552 53.7724 63.704 52.9404 64.344C49.0364 67.288 42.0604 71 36.4284 71ZM66.1224 71C64.2664 71 62.6664 70.36 61.7704 69.464C60.4264 68.12 59.9144 66.008 60.6184 63.512C57.2264 65.304 54.4744 65.624 52.1064 65.944L50.5064 66.136L48.2024 70.04C47.6904 70.936 46.5384 71.256 45.6424 70.744C44.7464 70.232 44.4264 69.08 44.9384 68.184L47.6904 63.512L58.7624 45.08C59.2744 44.184 60.4264 43.864 61.3224 44.376C62.2184 44.952 62.4744 46.104 61.9624 47L52.9384 62.04C56.2664 61.592 60.1704 60.504 66.1224 54.296C69.0024 50.84 73.3544 44.952 73.4184 44.888C73.9944 44.056 75.2104 43.864 76.0424 44.504C76.8744 45.144 77.0664 46.296 76.4264 47.128C76.2344 47.384 71.9464 53.208 69.0024 56.728V56.792C64.0744 62.68 63.4344 65.88 64.3944 66.84C65.8664 68.248 72.6504 66.136 76.6824 63C77.4504 62.36 78.6664 62.488 79.3064 63.32C79.9464 64.088 79.8184 65.304 78.9864 65.944C76.7464 67.672 73.4824 69.336 70.5384 70.232C68.8744 70.744 67.4024 71 66.1224 71ZM93.9724 70.936C93.7804 70.936 93.5244 70.872 93.2684 70.744C92.3724 70.36 91.8604 69.336 92.2444 68.376C93.5244 64.856 95.8284 61.464 97.8764 58.456C100.628 54.36 103.252 50.456 101.972 48.536C101.652 48.088 101.204 47.768 100.564 47.704C99.6684 47.576 97.1724 47.704 92.8844 51.288C87.8924 55.32 80.7244 64.216 76.9484 70.04C76.3724 70.936 75.2844 71.192 74.3884 70.616C73.4924 70.104 73.2364 68.952 73.7484 68.12L84.3724 49.624C82.9004 50.008 81.4284 50.456 80.0204 51.928C79.2524 52.632 78.1004 52.632 77.3324 51.928C76.7564 51.352 76.7564 49.88 77.3324 49.304C79.7644 46.872 82.2604 46.232 84.3084 45.784C86.0364 45.4 86.9324 45.144 87.5724 44.184C88.0844 43.288 89.2364 43.032 90.1324 43.544C90.9644 44.12 91.2844 45.208 90.7724 46.104L88.3404 50.264L90.4524 48.344C94.4844 45.08 98.1324 43.544 101.076 43.992C102.74 44.248 104.148 45.08 105.044 46.424C105.94 47.704 106.196 49.112 106.004 50.52L107.604 49.304L108.628 48.472L108.756 48.344C113.236 44.76 117.524 43.16 120.532 44.056C122.004 44.44 123.028 45.464 123.54 46.872C124.82 50.648 121.62 54.296 118.292 58.136C116.948 59.672 115.54 61.272 114.516 62.808C113.556 64.28 113.428 66.008 113.94 66.52C114.836 67.416 118.74 67.672 127.316 62.232C128.212 61.72 129.364 61.976 129.94 62.808C130.452 63.704 130.196 64.856 129.364 65.432C118.228 72.472 113.364 71.32 111.252 69.144C109.332 67.16 109.396 63.768 111.444 60.696C112.596 58.968 114.068 57.304 115.476 55.64C117.844 52.888 120.532 49.816 119.956 48.088C119.892 47.896 119.764 47.768 119.444 47.64C118.1 47.256 114.964 48.216 111.124 51.224L109.908 52.248C107.028 54.552 100.18 59.928 95.7004 69.784C95.3804 70.488 94.7404 70.936 93.9724 70.936ZM148.49 47.128C147.786 47.128 146.89 47.32 145.93 47.704C143.434 48.792 141.322 50.904 140.746 52.312C140.17 53.784 139.786 55.704 141.194 56.6C142.858 57.624 146.314 57.048 148.874 54.68C149.066 54.424 149.322 54.232 149.514 53.976C150.794 52.696 151.498 50.648 151.178 49.112C150.986 48.28 150.538 47.704 149.706 47.32C149.386 47.192 148.938 47.128 148.49 47.128ZM132.81 67.096C133.77 67.224 137.034 65.496 142.41 60.76C141.258 60.696 140.17 60.376 139.21 59.8C136.522 58.072 135.754 54.808 137.29 50.968C138.25 48.344 141.258 45.592 144.522 44.248C146.954 43.224 149.322 43.096 151.178 43.864C153.162 44.696 154.442 46.296 154.89 48.408L157.13 45.976L158.602 44.312C159.306 43.608 160.458 43.544 161.226 44.184C161.994 44.888 162.058 46.104 161.354 46.872L159.69 48.728C153.354 55.96 149.258 63.192 149.962 66.072C150.09 66.456 150.282 66.84 151.05 67.096C151.498 67.288 155.338 68.184 162.826 56.6C163.402 55.768 164.554 55.512 165.45 56.088C166.346 56.6 166.538 57.816 166.026 58.648C159.69 68.44 154.954 71 151.754 71C151.05 71 150.41 70.872 149.834 70.68C147.978 70.04 146.762 68.76 146.314 66.968C145.994 65.496 146.186 63.768 146.826 61.912C139.466 68.696 134.41 71.64 131.594 70.68C129.098 69.784 127.562 67.544 127.306 64.344C126.986 61.208 127.882 58.2 128.33 57.048C128.65 56.024 129.738 55.512 130.698 55.896C131.658 56.216 132.17 57.24 131.85 58.264C131.21 60.184 130.89 62.36 131.018 63.96C131.274 66.52 132.362 66.968 132.81 67.096ZM177.165 47.96H176.461C171.981 48.344 165.901 54.936 165.517 61.848C165.453 63.064 165.389 66.392 169.101 67.096C173.773 67.992 176.909 64.6 178.381 62.552C178.637 62.168 179.149 61.464 179.789 60.312C181.645 56.6 182.093 52.184 180.749 49.816C180.045 48.6 178.893 47.96 177.165 47.96ZM170.573 71C169.805 71 169.037 70.936 168.397 70.808C164.045 69.976 161.549 66.584 161.805 61.656C162.189 54.232 168.717 44.888 176.141 44.248C179.725 43.928 182.477 45.272 184.013 47.96L184.205 48.28C185.549 43.16 186.829 36.44 187.661 27.8C187.725 26.968 188.365 26.2 189.261 26.072C190.221 25.944 190.989 26.456 191.309 27.288C192.909 31.576 199.181 31.832 204.493 30.744C209.037 29.848 214.989 26.84 216.653 21.4C216.973 20.376 217.933 19.8 218.957 20.12C219.981 20.44 220.557 21.464 220.237 22.488C218.829 27.096 214.221 32.6 205.261 34.456C197.773 35.992 193.485 34.584 190.925 32.664C188.877 48.984 185.357 57.816 183.053 62.104C182.605 63 182.093 63.832 181.453 64.728C178.509 68.824 174.669 71 170.573 71ZM183.526 71.64C183.142 71.64 182.694 71.512 182.374 71.256C181.542 70.616 181.414 69.4 182.054 68.632C187.75 61.528 193.382 55.64 198.438 51.416L195.43 55.704L185.062 70.808L184.998 70.936C184.614 71.384 184.102 71.64 183.526 71.64ZM166.886 96.024C166.566 96.024 166.182 95.896 165.862 95.704C164.966 95.128 164.774 93.912 165.35 93.08L192.358 53.528L201.766 39.96C202.342 39.128 203.494 38.936 204.39 39.512C205.222 40.088 205.414 41.24 204.838 42.136L198.438 51.416C204.454 46.36 209.51 43.736 212.838 44.312C214.502 44.568 215.718 45.592 216.294 47.192C217.638 50.968 214.374 54.616 210.918 58.456C209.51 59.992 208.102 61.592 207.014 63.064C206.054 64.536 205.798 66.072 206.374 66.712C207.27 67.672 211.366 67.992 220.326 62.488C221.222 61.976 222.374 62.232 222.886 63.128C223.462 64.024 223.142 65.176 222.31 65.688C217.062 68.888 207.718 73.56 203.686 69.272C201.766 67.288 201.894 63.96 203.942 60.952C205.094 59.224 206.63 57.56 208.102 55.896C210.534 53.208 213.35 50.136 212.774 48.472C212.646 48.152 212.518 48.088 212.262 48.024C208.998 47.448 198.438 54.232 185.062 70.808L168.422 95.192C168.102 95.768 167.526 96.024 166.886 96.024ZM225.87 59.544C224.462 61.656 223.886 63.512 224.27 64.92C224.462 65.688 225.038 66.328 226.19 66.84C228.494 67.928 230.798 66.392 231.886 65.432C234.51 63.128 235.726 59.672 235.214 58.072C235.022 57.432 234.382 57.048 233.294 56.856C231.118 56.472 227.726 57.304 225.87 59.544ZM227.854 71C226.702 71 225.678 70.744 224.59 70.232C221.966 69.016 221.006 67.288 220.622 65.88C219.982 63.512 220.75 60.504 222.862 57.432C225.166 54.04 232.398 46.424 235.598 44.312C236.494 43.736 237.646 43.928 238.222 44.824C238.798 45.72 238.478 46.872 237.71 47.384C236.366 48.28 233.87 50.648 231.502 53.08C232.398 53.016 233.23 53.08 233.934 53.208C236.43 53.656 238.222 55.064 238.798 56.92C240.014 60.76 237.326 65.624 234.318 68.248C232.27 70.04 230.03 71 227.854 71Z" fill="#63BAFF"/>
</svg>
