<?xml version="1.0" encoding="UTF-8" standalone="no"?>
<svg
   xmlns:dc="http://purl.org/dc/elements/1.1/"
   xmlns:cc="http://creativecommons.org/ns#"
   xmlns:rdf="http://www.w3.org/1999/02/22-rdf-syntax-ns#"
   xmlns:svg="http://www.w3.org/2000/svg"
   xmlns="http://www.w3.org/2000/svg"
   xmlns:sodipodi="http://sodipodi.sourceforge.net/DTD/sodipodi-0.dtd"
   xmlns:inkscape="http://www.inkscape.org/namespaces/inkscape"
   version="1.1"
   viewBox="-5 -10 99.992485 73.597557"
   id="svg8"
   sodipodi:docname="noun-message-7139695.svg"
   width="99.992485"
   height="73.597557"
   inkscape:version="1.0.1 (3bc2e813f5, 2020-09-07)">
  <metadata
     id="metadata14">
    <rdf:RDF>
      <cc:Work
         rdf:about="">
        <dc:format>image/svg+xml</dc:format>
        <dc:type
           rdf:resource="http://purl.org/dc/dcmitype/StillImage" />
        <dc:title></dc:title>
      </cc:Work>
    </rdf:RDF>
  </metadata>
  <defs
     id="defs12" />
  <sodipodi:namedview
     pagecolor="#ffffff"
     bordercolor="#666666"
     borderopacity="1"
     objecttolerance="10"
     gridtolerance="10"
     guidetolerance="10"
     inkscape:pageopacity="0"
     inkscape:pageshadow="2"
     inkscape:window-width="1665"
     inkscape:window-height="740"
     id="namedview10"
     showgrid="false"
     fit-margin-top="0"
     fit-margin-left="0"
     fit-margin-right="0"
     fit-margin-bottom="0"
     inkscape:zoom="6.237037"
     inkscape:cx="49.999795"
     inkscape:cy="31.466387"
     inkscape:window-x="219"
     inkscape:window-y="203"
     inkscape:window-maximized="0"
     inkscape:current-layer="svg8" />
  <path
     d="m 91.151795,-9.00001 h -0.01563 c -0.08203,-0.05469 -0.17969,-0.09766 -0.26562,-0.14062 -0.14062,-0.07031 -0.27734,-0.14062 -0.41797,-0.20703 C 89.507265,-9.76563 88.468175,-10 87.370575,-10 h -84.73 c -1.1094,0 -2.1797,0.25 -3.125,0.67969 -0.125,0.05469 -0.23438,0.10938 -0.35938,0.16797 -2.4609,1.2656 -4.1562,3.8203 -4.1562,6.7773 v 58.332 c 0,4.207 3.4297,7.6406 7.6406,7.6406 h 84.723 c 2.1953,0 4.168,-0.92969 5.5547,-2.418 0.14062,-0.08203 0.26562,-0.19531 0.375,-0.32031 0.17969,-0.19531 0.30469,-0.41797 0.39062,-0.64062 0,-0.02734 0.02734,-0.04297 0.04297,-0.05469 0.79297,-1.207 1.2656,-2.6523 1.2656,-4.1953 l -0.0078,-58.344 c 0,-2.832 -1.5547,-5.3047 -3.8477,-6.625 z m -3.8047,3.5703 -42.348,36.82 -42.348,-36.82 z m -88,62.457 c -0.10938,-0.33203 -0.17969,-0.69531 -0.17969,-1.0703 v -58.332 c 0,-0.17969 0.027343,-0.34766 0.054687,-0.52734 l 33.32,28.973 z m 88.012,2.4062 h -84.484 l 32.82,-30.598 7.0156,6.0977 c 0.65234,0.57031 1.457,0.84766 2.2773,0.84766 0.82031,0 1.625,-0.27734 2.2773,-0.84766 l 7.8906,-6.8594 c 0.07031,0.08203 0.09766,0.16797 0.16797,0.23438 l 33.152,30.918 c -0.35937,0.125 -0.73437,0.20703 -1.125,0.20703 z m 3.4727,-3.7109 -32.555,-30.348 32.5,-28.266 c 0.02734,0.16797 0.05469,0.34766 0.05469,0.51562 z"
     id="path2"
     style="fill:#ffffff" />
  <text
     x="-5.000205"
     y="94.292992"
     font-size="5px"
     font-weight="bold"
     font-family="'Arbeit Regular', Helvetica, Arial-Unicode, Arial, Sans-serif"
     fill="#000000"
     id="text4">Created by Smarty</text>
  <text
     x="-5.000205"
     y="99.292992"
     font-size="5px"
     font-weight="bold"
     font-family="'Arbeit Regular', Helvetica, Arial-Unicode, Arial, Sans-serif"
     fill="#000000"
     id="text6">from Noun Project</text>
</svg>
