<svg width="46" height="50" viewBox="0 0 46 50" fill="none" xmlns="http://www.w3.org/2000/svg">
<path d="M19.5587 25.0062C18.8189 25.0084 18.1053 25.2868 17.5509 25.7893H17.2684V21.0905C17.2684 20.8828 17.188 20.6836 17.0448 20.5368C16.9017 20.3899 16.7075 20.3074 16.505 20.3074H11.3306C11.183 20.3074 11.0386 20.3513 10.9149 20.4338C10.7912 20.5163 10.6934 20.6337 10.6334 20.772C10.5733 20.9103 10.5537 21.0635 10.5768 21.213C10.5998 21.3625 10.6646 21.5019 10.7634 21.6144C10.9625 21.8389 11.0938 22.1179 11.1413 22.4175C11.1888 22.717 11.1504 23.0243 11.0308 23.3019C10.9112 23.5796 10.7155 23.8155 10.4676 23.9812C10.2197 24.1468 9.93015 24.235 9.63427 24.235C9.33839 24.235 9.04889 24.1468 8.80096 23.9812C8.55303 23.8155 8.35737 23.5796 8.23776 23.3019C8.11815 23.0243 8.07974 22.717 8.12722 22.4175C8.1747 22.1179 8.306 21.8389 8.50518 21.6144C8.60389 21.5019 8.66871 21.3625 8.69178 21.213C8.71486 21.0635 8.6952 20.9103 8.63519 20.772C8.57518 20.6337 8.47738 20.5163 8.35364 20.4338C8.2299 20.3513 8.08552 20.3074 7.93796 20.3074H2.76352C2.56105 20.3074 2.36687 20.3899 2.2237 20.5368C2.08054 20.6836 2.0001 20.8828 2.0001 21.0905V35.1868C2.0001 35.3945 2.08054 35.5937 2.2237 35.7406C2.36687 35.8874 2.56105 35.97 2.76352 35.97H3.16279L2.05431 38.8119C1.97934 39.0048 1.98209 39.2203 2.06194 39.411L4.29035 44.7449V47.7169C4.29035 47.9246 4.37079 48.1238 4.51395 48.2706C4.65712 48.4175 4.8513 48.5 5.05377 48.5C5.25624 48.5 5.45042 48.4175 5.59359 48.2706C5.73676 48.1238 5.81719 47.9246 5.81719 47.7169V44.5844C5.81748 44.4782 5.79643 44.3732 5.75535 44.2758L3.58954 39.0915L4.80719 35.97H8.10744V39.1025C8.10744 39.3102 8.18787 39.5094 8.33104 39.6562C8.47421 39.8031 8.66838 39.8856 8.87085 39.8856C9.07332 39.8856 9.2675 39.8031 9.41067 39.6562C9.55384 39.5094 9.63427 39.3102 9.63427 39.1025V32.0543C9.63427 31.6389 9.79513 31.2405 10.0815 30.9468C10.3678 30.6531 10.7562 30.4881 11.1611 30.4881C11.566 30.4881 11.9544 30.6531 12.2407 30.9468C12.5271 31.2405 12.6879 31.6389 12.6879 32.0543V38.3193C12.6879 38.527 12.7684 38.7262 12.9115 38.8731C13.0547 39.02 13.2489 39.1025 13.4514 39.1025C14.6927 39.1025 15.7416 40.8958 15.7416 43.0181C15.7416 45.1404 14.6927 46.9337 13.4514 46.9337C13.2489 46.9337 13.0547 47.0163 12.9115 47.1631C12.7684 47.31 12.6879 47.5092 12.6879 47.7169C12.6879 47.9246 12.7684 48.1238 12.9115 48.2706C13.0547 48.4175 13.2489 48.5 13.4514 48.5C15.5889 48.5 17.2684 46.0919 17.2684 43.0181C17.2684 40.321 15.9775 38.1361 14.2148 37.6419V35.97H16.505C16.7075 35.97 16.9017 35.8874 17.0448 35.7406C17.188 35.5937 17.2684 35.3945 17.2684 35.1868V30.4881H17.5509C17.9218 30.8236 18.3667 31.0618 18.8472 31.182C19.3277 31.3022 19.8295 31.3009 20.3094 31.1781C20.7893 31.0554 21.233 30.8149 21.6022 30.4774C21.9715 30.1398 22.2553 29.7153 22.4292 29.2404C22.6032 28.7654 22.6621 28.2543 22.6009 27.7508C22.5396 27.2473 22.3601 26.7667 22.0777 26.3501C21.7953 25.9336 21.4185 25.5937 20.9797 25.3596C20.5409 25.1254 20.0533 25.0042 19.5587 25.0062ZM19.5587 29.7049C19.345 29.7046 19.1338 29.6576 18.9391 29.5672C18.7444 29.4767 18.5708 29.3448 18.4296 29.1802C18.358 29.0988 18.2705 29.0337 18.1727 28.9892C18.075 28.9447 17.9693 28.9217 17.8624 28.9218H16.505C16.3025 28.9218 16.1084 29.0043 15.9652 29.1512C15.822 29.298 15.7416 29.4972 15.7416 29.7049V34.4037H14.2148V32.0543C14.2148 31.2235 13.893 30.4268 13.3204 29.8393C12.7477 29.2518 11.971 28.9218 11.1611 28.9218C10.3512 28.9218 9.57451 29.2518 9.00183 29.8393C8.42916 30.4268 8.10744 31.2235 8.10744 32.0543V34.4037H3.52694V21.8737H6.67985C6.61387 22.1292 6.58051 22.3924 6.5806 22.6568C6.5806 23.4876 6.90233 24.2843 7.475 24.8718C8.04768 25.4593 8.82439 25.7893 9.63427 25.7893C10.4442 25.7893 11.2209 25.4593 11.7935 24.8718C12.3662 24.2843 12.6879 23.4876 12.6879 22.6568C12.688 22.3924 12.6547 22.1292 12.5887 21.8737H15.7416V26.5724C15.7416 26.7801 15.822 26.9793 15.9652 27.1262C16.1084 27.273 16.3025 27.3555 16.505 27.3555H17.8624C17.9693 27.3556 18.075 27.3327 18.1727 27.2881C18.2705 27.2436 18.358 27.1785 18.4296 27.0971C18.5708 26.9325 18.7444 26.8006 18.9391 26.7102C19.1338 26.6197 19.345 26.5728 19.5587 26.5724C19.9636 26.5724 20.352 26.7374 20.6383 27.0312C20.9247 27.3249 21.0855 27.7233 21.0855 28.1387C21.0855 28.5541 20.9247 28.9525 20.6383 29.2462C20.352 29.5399 19.9636 29.7049 19.5587 29.7049Z" fill="#63BAFF"/>
<path d="M40.9343 11.693C40.1946 11.6953 39.4809 11.9736 38.9265 12.4761H38.6441V7.77736C38.6441 7.56966 38.5637 7.37047 38.4205 7.2236C38.2773 7.07674 38.0831 6.99423 37.8807 6.99423H32.7062C32.5587 6.99427 32.4143 7.03818 32.2905 7.12064C32.1668 7.2031 32.069 7.32058 32.009 7.45886C31.949 7.59715 31.9293 7.75031 31.9524 7.89982C31.9755 8.04932 32.0403 8.18876 32.139 8.30127C32.3382 8.52572 32.4695 8.8047 32.517 9.10429C32.5644 9.40388 32.526 9.71116 32.4064 9.98877C32.2868 10.2664 32.0912 10.5024 31.8432 10.668C31.5953 10.8337 31.3058 10.9219 31.0099 10.9219C30.714 10.9219 30.4245 10.8337 30.1766 10.668C29.9287 10.5024 29.733 10.2664 29.6134 9.98877C29.4938 9.71116 29.4554 9.40388 29.5029 9.10429C29.5503 8.8047 29.6817 8.52572 29.8808 8.30127C29.9795 8.18876 30.0444 8.04932 30.0674 7.89982C30.0905 7.75031 30.0708 7.59715 30.0108 7.45886C29.9508 7.32058 29.853 7.2031 29.7293 7.12064C29.6056 7.03818 29.4612 6.99427 29.3136 6.99423H19.5587V6.70447C19.9474 6.25234 20.2007 5.69475 20.2881 5.09862C20.3755 4.50249 20.2934 3.89313 20.0517 3.34368C19.8099 2.79422 19.4187 2.32801 18.925 2.00098C18.4313 1.67395 17.8561 1.5 17.2684 1.5C16.6808 1.5 16.1056 1.67395 15.6119 2.00098C15.1182 2.32801 14.727 2.79422 14.4852 3.34368C14.2434 3.89313 14.1613 4.50249 14.2488 5.09862C14.3362 5.69475 14.5895 6.25234 14.9782 6.70447V6.99423H10.3977C10.1952 6.99423 10.001 7.07674 9.85786 7.2236C9.71469 7.37047 9.63426 7.56966 9.63426 7.77736V13.0854C9.6343 13.2368 9.6771 13.3849 9.75748 13.5118C9.83787 13.6387 9.95239 13.7391 10.0872 13.8006C10.222 13.8622 10.3713 13.8824 10.517 13.8587C10.6628 13.835 10.7987 13.7685 10.9084 13.6673C11.1272 13.4629 11.3992 13.3282 11.6912 13.2795C11.9833 13.2308 12.2828 13.2702 12.5534 13.3929C12.8241 13.5156 13.0541 13.7164 13.2156 13.9707C13.3771 14.225 13.463 14.522 13.463 14.8255C13.463 15.129 13.3771 15.426 13.2156 15.6803C13.0541 15.9347 12.8241 16.1354 12.5534 16.2581C12.2828 16.3808 11.9833 16.4202 11.6912 16.3715C11.3992 16.3228 11.1272 16.1881 10.9084 15.9838C10.7987 15.8825 10.6628 15.816 10.517 15.7923C10.3713 15.7687 10.222 15.7888 10.0872 15.8504C9.95239 15.9119 9.83787 16.0123 9.75748 16.1392C9.6771 16.2661 9.6343 16.4142 9.63426 16.5656V18.7411H11.1611V17.8562C11.4102 17.9239 11.6668 17.9581 11.9245 17.958C12.7344 17.958 13.5111 17.628 14.0838 17.0405C14.6564 16.4531 14.9782 15.6563 14.9782 14.8255C14.9782 13.9947 14.6564 13.1979 14.0838 12.6105C13.5111 12.023 12.7344 11.693 11.9245 11.693C11.6668 11.6929 11.4102 11.7271 11.1611 11.7948V8.56048H15.7416C15.9441 8.56048 16.1382 8.47798 16.2814 8.33111C16.4246 8.18425 16.505 7.98506 16.505 7.77736V6.38496C16.5051 6.27528 16.4827 6.16681 16.4393 6.06658C16.3959 5.96634 16.3324 5.87658 16.2531 5.80309C16.0926 5.65827 15.9641 5.48011 15.8759 5.28041C15.7877 5.08072 15.7419 4.86407 15.7416 4.64485C15.7416 4.22945 15.9025 3.83107 16.1888 3.53734C16.4751 3.24361 16.8635 3.07859 17.2684 3.07859C17.6734 3.07859 18.0617 3.24361 18.3481 3.53734C18.6344 3.83107 18.7953 4.22945 18.7953 4.64485C18.7949 4.86407 18.7492 5.08072 18.661 5.28041C18.5728 5.48011 18.4442 5.65827 18.2838 5.80309C18.2044 5.87658 18.141 5.96634 18.0976 6.06658C18.0542 6.16681 18.0318 6.27528 18.0318 6.38496V7.77736C18.0318 7.98506 18.1123 8.18425 18.2554 8.33111C18.3986 8.47798 18.5928 8.56048 18.7953 8.56048H23.3758V11.7948C23.1267 11.7271 22.87 11.6929 22.6123 11.693C21.8025 11.693 21.0257 12.023 20.4531 12.6105C19.8804 13.1979 19.5587 13.9947 19.5587 14.8255C19.5587 15.6563 19.8804 16.4531 20.4531 17.0405C21.0257 17.628 21.8025 17.958 22.6123 17.958C22.87 17.9581 23.1267 17.9239 23.3758 17.8562V21.0905H18.7953V22.6568H23.3758V27.1817C23.3758 27.3331 23.4186 27.4812 23.499 27.6081C23.5794 27.7351 23.6939 27.8354 23.8287 27.8969C23.9635 27.9585 24.1128 27.9787 24.2585 27.955C24.4043 27.9313 24.5402 27.8648 24.6499 27.7636C24.8687 27.5592 25.1407 27.4245 25.4327 27.3758C25.7248 27.3271 26.0243 27.3665 26.2949 27.4892C26.5655 27.6119 26.7956 27.8127 26.9571 28.067C27.1186 28.3213 27.2045 28.6183 27.2045 28.9218C27.2045 29.2253 27.1186 29.5223 26.9571 29.7766C26.7956 30.031 26.5655 30.2317 26.2949 30.3544C26.0243 30.4771 25.7248 30.5165 25.4327 30.4678C25.1407 30.4191 24.8687 30.2844 24.6499 30.0801C24.5402 29.9788 24.4043 29.9123 24.2585 29.8886C24.1128 29.865 23.9635 29.8851 23.8287 29.9467C23.6939 30.0082 23.5794 30.1086 23.499 30.2355C23.4186 30.3624 23.3758 30.5105 23.3758 30.6619V35.97C23.3758 36.1777 23.4562 36.3768 23.5994 36.5237C23.7425 36.6706 23.9367 36.7531 24.1392 36.7531H28.7197V37.0428C28.331 37.495 28.0777 38.0526 27.9902 38.6487C27.9028 39.2448 27.9849 39.8542 28.2267 40.4036C28.4685 40.9531 28.8597 41.4193 29.3534 41.7463C29.8471 42.0734 30.4223 42.2473 31.0099 42.2473C31.5976 42.2473 32.1728 42.0734 32.6665 41.7463C33.1601 41.4193 33.5514 40.9531 33.7931 40.4036C34.0349 39.8542 34.117 39.2448 34.0296 38.6487C33.9422 38.0526 33.6889 37.495 33.3002 37.0428V36.7531H37.8807C38.0831 36.7531 38.2773 36.6706 38.4205 36.5237C38.5637 36.3768 38.6441 36.1777 38.6441 35.97V30.6619C38.644 30.5105 38.6012 30.3624 38.5209 30.2355C38.4405 30.1086 38.326 30.0082 38.1911 29.9467C38.0563 29.8851 37.907 29.865 37.7613 29.8886C37.6156 29.9123 37.4796 29.9788 37.3699 30.0801C37.1511 30.2844 36.8792 30.4191 36.5871 30.4678C36.2951 30.5165 35.9955 30.4771 35.7249 30.3544C35.4543 30.2317 35.2243 30.031 35.0628 29.7766C34.9013 29.5223 34.8153 29.2253 34.8153 28.9218C34.8153 28.6183 34.9013 28.3213 35.0628 28.067C35.2243 27.8127 35.4543 27.6119 35.7249 27.4892C35.9955 27.3665 36.2951 27.3271 36.5871 27.3758C36.8792 27.4245 37.1511 27.5592 37.3699 27.7636C37.4796 27.8648 37.6156 27.9313 37.7613 27.955C37.907 27.9787 38.0563 27.9585 38.1911 27.8969C38.326 27.8354 38.4405 27.7351 38.5209 27.6081C38.6012 27.4812 38.644 27.3331 38.6441 27.1817V17.1749H38.9265C39.2975 17.5105 39.7424 17.7486 40.2229 17.8688C40.7034 17.989 41.2052 17.9877 41.6851 17.865C42.165 17.7422 42.6086 17.5017 42.9779 17.1642C43.3471 16.8267 43.6309 16.4022 43.8049 15.9272C43.9789 15.4523 44.0377 14.9411 43.9765 14.4376C43.9153 13.9342 43.7357 13.4535 43.4533 13.037C43.171 12.6204 42.7942 12.2805 42.3554 12.0464C41.9166 11.8123 41.4289 11.691 40.9343 11.693ZM36.3538 25.7893C35.544 25.7893 34.7672 26.1193 34.1946 26.7068C33.6219 27.2942 33.3002 28.091 33.3002 28.9218C33.3002 29.7526 33.6219 30.5494 34.1946 31.1368C34.7672 31.7243 35.544 32.0543 36.3538 32.0543C36.6115 32.0544 36.8681 32.0202 37.1173 31.9525V35.1868H32.5368C32.3343 35.1868 32.1401 35.2693 31.9969 35.4162C31.8538 35.5631 31.7733 35.7623 31.7733 35.97V37.3624C31.7733 37.472 31.7957 37.5805 31.8391 37.6807C31.8825 37.781 31.9459 37.8707 32.0253 37.9442C32.1857 38.089 32.3143 38.2672 32.4025 38.4669C32.4907 38.6666 32.5364 38.8832 32.5368 39.1025C32.5368 39.5179 32.3759 39.9162 32.0896 40.21C31.8032 40.5037 31.4149 40.6687 31.0099 40.6687C30.605 40.6687 30.2166 40.5037 29.9303 40.21C29.6439 39.9162 29.4831 39.5179 29.4831 39.1025C29.4834 38.8832 29.5292 38.6666 29.6174 38.4669C29.7056 38.2672 29.8341 38.089 29.9946 37.9442C30.0739 37.8707 30.1374 37.781 30.1808 37.6807C30.2242 37.5805 30.2466 37.472 30.2465 37.3624V35.97C30.2465 35.7623 30.1661 35.5631 30.0229 35.4162C29.8797 35.2693 29.6856 35.1868 29.4831 35.1868H24.9026V31.9525C25.1517 32.0202 25.4083 32.0544 25.666 32.0543C26.4759 32.0543 27.2526 31.7243 27.8253 31.1368C28.3979 30.5494 28.7197 29.7526 28.7197 28.9218C28.7197 28.091 28.3979 27.2942 27.8253 26.7068C27.2526 26.1193 26.4759 25.7893 25.666 25.7893C25.4083 25.7892 25.1517 25.8234 24.9026 25.8911V22.6568H29.3136C29.4612 22.6567 29.6056 22.6128 29.7293 22.5304C29.853 22.4479 29.9508 22.3304 30.0108 22.1922C30.0708 22.0539 30.0905 21.9007 30.0674 21.7512C30.0444 21.6017 29.9795 21.4623 29.8808 21.3497C29.6817 21.1253 29.5503 20.8463 29.5029 20.5467C29.4554 20.2471 29.4938 19.9399 29.6134 19.6622C29.733 19.3846 29.9287 19.1487 30.1766 18.983C30.4245 18.8173 30.714 18.7292 31.0099 18.7292C31.3058 18.7292 31.5953 18.8173 31.8432 18.983C32.0912 19.1487 32.2868 19.3846 32.4064 19.6622C32.526 19.9399 32.5644 20.2471 32.517 20.5467C32.4695 20.8463 32.3382 21.1253 32.139 21.3497C32.0403 21.4623 31.9755 21.6017 31.9524 21.7512C31.9293 21.9007 31.949 22.0539 32.009 22.1922C32.069 22.3304 32.1668 22.4479 32.2905 22.5304C32.4143 22.6128 32.5587 22.6567 32.7062 22.6568H37.1173V25.8911C36.8681 25.8234 36.6115 25.7892 36.3538 25.7893ZM40.9343 16.3918C40.7206 16.3914 40.5094 16.3445 40.3148 16.254C40.1201 16.1636 39.9464 16.0317 39.8052 15.8671C39.7336 15.7856 39.6461 15.7206 39.5484 15.6761C39.4507 15.6315 39.3449 15.6086 39.238 15.6086H37.8807C37.6782 15.6086 37.484 15.6911 37.3409 15.838C37.1977 15.9849 37.1173 16.1841 37.1173 16.3918V21.0905H33.9643C34.0303 20.835 34.0637 20.5718 34.0636 20.3074C34.0636 19.4766 33.7419 18.6798 33.1692 18.0924C32.5965 17.5049 31.8198 17.1749 31.0099 17.1749C30.2 17.1749 29.4233 17.5049 28.8507 18.0924C28.278 18.6798 27.9563 19.4766 27.9563 20.3074C27.9562 20.5718 27.9895 20.835 28.0555 21.0905H24.9026V16.5656C24.9025 16.4142 24.8598 16.2661 24.7794 16.1392C24.699 16.0123 24.5845 15.9119 24.4497 15.8504C24.3148 15.7888 24.1655 15.7687 24.0198 15.7923C23.8741 15.816 23.7381 15.8825 23.6284 15.9838C23.4096 16.1881 23.1377 16.3228 22.8456 16.3715C22.5536 16.4202 22.254 16.3808 21.9834 16.2581C21.7128 16.1354 21.4828 15.9347 21.3213 15.6803C21.1598 15.426 21.0738 15.129 21.0738 14.8255C21.0738 14.522 21.1598 14.225 21.3213 13.9707C21.4828 13.7164 21.7128 13.5156 21.9834 13.3929C22.254 13.2702 22.5536 13.2308 22.8456 13.2795C23.1377 13.3282 23.4096 13.4629 23.6284 13.6673C23.7381 13.7685 23.8741 13.835 24.0198 13.8587C24.1655 13.8824 24.3148 13.8622 24.4497 13.8006C24.5845 13.7391 24.699 13.6387 24.7794 13.5118C24.8598 13.3849 24.9025 13.2368 24.9026 13.0854V8.56048H28.0555C27.9895 8.81602 27.9562 9.07926 27.9563 9.34361C27.9563 10.1744 28.278 10.9712 28.8507 11.5586C29.4233 12.1461 30.2 12.4761 31.0099 12.4761C31.8198 12.4761 32.5965 12.1461 33.1692 11.5586C33.7419 10.9712 34.0636 10.1744 34.0636 9.34361C34.0637 9.07926 34.0303 8.81602 33.9643 8.56048H37.1173V13.2593C37.1173 13.467 37.1977 13.6661 37.3409 13.813C37.484 13.9599 37.6782 14.0424 37.8807 14.0424H39.238C39.3449 14.0424 39.4507 14.0195 39.5484 13.975C39.6461 13.9304 39.7336 13.8654 39.8052 13.7839C39.9464 13.6194 40.1201 13.4875 40.3148 13.397C40.5094 13.3065 40.7206 13.2596 40.9343 13.2593C41.3393 13.2593 41.7276 13.4243 42.014 13.718C42.3003 14.0117 42.4612 14.4101 42.4612 14.8255C42.4612 15.2409 42.3003 15.6393 42.014 15.933C41.7276 16.2267 41.3393 16.3918 40.9343 16.3918Z" fill="#63BAFF"/>
</svg>
