<svg width="76" height="76" viewBox="0 0 76 76" fill="none" xmlns="http://www.w3.org/2000/svg">
<circle r="38" transform="matrix(-1 0 0 1 38 38)" fill="none"/>
<path d="M26.8205 25.5663V25.5662L26.8168 25.5663C20.7863 25.7805 20.7879 34.4714 26.8168 34.6849L26.8168 34.685L26.8205 34.685C28.0292 34.6835 29.1882 34.2029 30.0428 33.348C30.8976 32.4932 31.3782 31.3344 31.3797 30.1257L31.3797 30.1255C31.3782 28.9168 30.8976 27.7578 30.0427 26.9032C29.1882 26.0484 28.0291 25.5677 26.8205 25.5663ZM26.8204 33.2108C22.7443 33.078 22.7451 27.1726 26.8203 27.0404C30.8963 27.1732 30.8956 33.0786 26.8204 33.2108Z" fill="white" stroke="white" stroke-width="0.2"/>
<path d="M22.4594 34.1397H22.4591C21.2107 34.1412 20.0135 34.6376 19.1309 35.5206C18.2479 36.4032 17.7515 37.6004 17.75 38.8487V38.849L17.75 44.5825L17.75 44.5827C17.7506 45.1558 17.9786 45.705 18.3834 46.1101L18.3836 46.1102C18.7887 46.515 19.3379 46.743 19.9109 46.7436H19.9112H21.5723L21.5723 54.1382L21.5723 54.1385C21.573 54.7115 21.8009 55.2607 22.2057 55.6658L22.2059 55.666C22.611 56.0708 23.1602 56.2988 23.7332 56.2994H23.7335H30.104H30.1043C30.6773 56.2988 31.2265 56.0708 31.6316 55.666L31.6318 55.6658C32.0365 55.2607 32.2645 54.7115 32.2652 54.1385V54.1382V39.7043C32.7121 39.5422 33.7493 39.1416 34.0271 39.0186C37.3773 37.535 40.1934 35.0621 42.0978 31.932L42.0994 31.9294C42.405 31.413 42.4837 30.7932 42.3166 30.2167C42.1495 29.6401 41.7513 29.1584 41.2166 28.8856L41.2156 28.8851L40.0734 28.3089L40.0734 28.3089C39.5891 28.0646 39.0307 28.0122 38.5093 28.1615L38.5092 28.1615C37.9882 28.3109 37.5427 28.6508 37.2611 29.1135C36.3635 30.5546 35.1811 31.797 33.7862 32.7648L33.7802 32.7685L33.741 32.7925L33.5974 32.8798C33.4781 32.9521 33.3191 33.0483 33.1599 33.1445L32.7222 33.4088L32.578 33.4959L32.5376 33.5203L32.5281 33.526C32.1048 33.7559 31.6683 33.9607 31.221 34.1397H22.4594Z" fill="white" stroke="white" stroke-width="0.5"/>
<path d="M31.2011 38.4354C30.9272 38.513 30.7381 38.7633 30.7384 39.048V54.134C30.7381 54.4858 30.4531 54.7708 30.1013 54.7711H27.5531V47.1265C27.5531 46.7747 27.2679 46.4894 26.9161 46.4894C26.5643 46.4894 26.279 46.7747 26.279 47.1265V54.7711H23.7308C23.379 54.7708 23.0941 54.4858 23.0938 54.134V38.8448C23.087 38.4979 22.8037 38.22 22.4567 38.22C22.1098 38.22 21.8265 38.4979 21.8197 38.8448V45.2153H19.9085C19.5567 45.2151 19.2718 44.9301 19.2715 44.5783V38.8448C19.2723 38.0004 19.6085 37.1908 20.2054 36.5935C20.8027 35.9966 21.6123 35.6605 22.4567 35.6596H26.8848H31.3128C34.3357 34.6691 36.9044 32.6302 38.5553 29.9113C38.7263 29.6261 39.0874 29.5197 39.3857 29.6668L40.5273 30.2415C40.6852 30.3209 40.8032 30.4619 40.8535 30.6312C40.9039 30.8004 40.8823 30.9827 40.7938 31.1357C38.6344 34.6944 35.2066 37.302 31.2011 38.4354Z" fill="none"/>
<path d="M35.7773 31.5024V27C35.7773 24.7909 37.5682 23 39.7773 23H53.9996C56.2088 23 57.9996 24.7909 57.9996 27V38.5556C57.9996 40.7648 56.2088 42.5556 53.9996 42.5556H39.7773C37.5682 42.5556 35.7773 40.7648 35.7773 38.5556V37.4542" stroke="white" stroke-width="1.75"/>
<rect x="45.5547" y="42.2117" width="1.55556" height="2.85398" fill="white"/>
<circle cx="46.444" cy="46.9994" r="1.79168" stroke="white" stroke-width="1.75"/>
<path d="M53.7737 28.1823L53.7737 28.1823H53.771H46.2273V28.1823L46.2246 28.1823C45.7797 28.1904 45.4047 28.5306 45.4047 28.9693C45.4047 29.4081 45.7797 29.7482 46.2246 29.7564L46.2246 29.7564H46.2273H53.771V29.7564L53.7737 29.7564C54.2186 29.7482 54.5936 29.408 54.5936 28.9693C54.5936 28.5306 54.2186 28.1904 53.7737 28.1823Z" fill="white" stroke="white" stroke-width="0.3"/>
<path d="M51.7164 32.8503L51.7164 32.8502H51.7136H46.2273V32.8502L46.2246 32.8503C45.7797 32.8584 45.4047 33.1986 45.4047 33.6373C45.4047 34.076 45.7797 34.4162 46.2246 34.4243L46.2246 34.4243H46.2273H51.7136V34.4244L51.7164 34.4243C52.1613 34.4162 52.5362 34.076 52.5362 33.6373C52.5362 33.1986 52.1613 32.8584 51.7164 32.8503Z" fill="white" stroke="white" stroke-width="0.3"/>
</svg>
