<svg width="76" height="76" viewBox="0 0 76 76" fill="none" xmlns="http://www.w3.org/2000/svg">
<circle r="38" transform="matrix(-1 0 0 1 38 38)" fill="none"/>
<path d="M44.1678 22.0397V22.0798C44.1303 22.0557 44.0914 22.034 44.0512 22.0146L44.0307 22.0047H44.0078H43.9399C43.8506 21.9582 43.7559 21.9239 43.6578 21.9023L43.6472 21.9H43.6363H31.4999C30.9295 21.9 30.4715 22.3741 30.4715 22.9532V27.6205L25.9284 27.6208C25.358 27.6208 24.9 28.0949 24.9 28.674V53.4646C24.9 53.7431 25.0075 54.0105 25.2 54.2085L25.2002 54.2086C25.3931 54.4064 25.6548 54.5178 25.9284 54.5178H44.5007C44.7743 54.5178 45.036 54.4064 45.2289 54.2086L45.229 54.2085C45.4215 54.0105 45.5291 53.7431 45.5291 53.4646V48.797H50.0722C50.3458 48.797 50.6075 48.6856 50.8005 48.4878L50.8006 48.4877C50.9931 48.2897 51.1006 48.0223 51.1006 47.7438V29.6277V29.5706V29.4895L51.0894 29.4872C51.0792 29.4247 51.0647 29.3631 51.046 29.3027C51.0484 29.2728 51.0475 29.2429 51.0433 29.2132L51.0413 29.199L51.0353 29.1859C50.9865 29.0784 50.921 28.9792 50.8418 28.8926L50.8418 28.8925L50.8396 28.8903L44.3394 22.2159L44.1678 22.0397ZM31.4996 48.7968H43.4715L43.4713 52.4106H26.9567V29.7275H30.4712V47.7435C30.4712 48.022 30.5787 48.2895 30.7712 48.4875L30.7713 48.4876C30.9643 48.6854 31.226 48.7968 31.4996 48.7968ZM44.6 28.574L44.5997 25.4971L47.5966 28.574H44.6ZM49.0428 46.6898H32.5283V24.0067H42.5425V29.6275C42.5425 29.906 42.6503 30.1738 42.8429 30.3715C43.0355 30.5693 43.2975 30.6811 43.5712 30.6811H49.0427L49.0428 46.6898Z" fill="white" stroke="none" stroke-width="0.2"/>
</svg>
