<svg width="18" height="18" viewBox="0 0 18 18" fill="none" xmlns="http://www.w3.org/2000/svg">
<g clip-path="url(#clip0_2030_4680)">
<mask id="path-1-outside-1_2030_4680" maskUnits="userSpaceOnUse" x="0" y="0" width="18" height="18" fill="black">
<rect fill="white" width="18" height="18"/>
<path d="M14.5785 10.7087C14.89 10.7118 15.145 10.4618 15.1482 10.1503L15.1482 4.58003C15.1485 4.4304 15.089 4.28681 14.9831 4.18115C14.8773 4.07525 14.7338 4.01579 14.5842 4.01599L9.01386 4.01599C8.70681 4.0191 8.45868 4.26724 8.45557 4.57428C8.45245 4.88581 8.70238 5.14091 9.01386 5.14407L13.2224 5.14407L9.18115 9.18529C8.96087 9.40557 8.96087 9.76277 9.18115 9.98305C9.40143 10.2033 9.75863 10.2033 9.97891 9.98305L14.0201 5.94183L14.0202 10.1504C14.0232 10.4574 14.2714 10.7056 14.5785 10.7087Z"/>
<path d="M15.9905 2.46372C16.548 2.46372 17 2.91567 17 3.47319V15.9905C17 16.548 16.548 17 15.9905 17H2.00946C1.45195 17 1 16.548 1 15.9905V2.00946C1 1.45195 1.45195 1 2.00946 1H8.57098C9.12849 1 9.58044 1.45195 9.58044 2.00946V2.46372H15.9905Z"/>
</mask>
<path d="M14.5785 10.7087C14.89 10.7118 15.145 10.4618 15.1482 10.1503L15.1482 4.58003C15.1485 4.4304 15.089 4.28681 14.9831 4.18115C14.8773 4.07525 14.7338 4.01579 14.5842 4.01599L9.01386 4.01599C8.70681 4.0191 8.45868 4.26724 8.45557 4.57428C8.45245 4.88581 8.70238 5.14091 9.01386 5.14407L13.2224 5.14407L9.18115 9.18529C8.96087 9.40557 8.96087 9.76277 9.18115 9.98305C9.40143 10.2033 9.75863 10.2033 9.97891 9.98305L14.0201 5.94183L14.0202 10.1504C14.0232 10.4574 14.2714 10.7056 14.5785 10.7087Z" fill="#63BAFF"/>
<path d="M14.5785 10.7087C14.89 10.7118 15.145 10.4618 15.1482 10.1503L15.1482 4.58003C15.1485 4.4304 15.089 4.28681 14.9831 4.18115C14.8773 4.07525 14.7338 4.01579 14.5842 4.01599L9.01386 4.01599C8.70681 4.0191 8.45868 4.26724 8.45557 4.57428C8.45245 4.88581 8.70238 5.14091 9.01386 5.14407L13.2224 5.14407L9.18115 9.18529C8.96087 9.40557 8.96087 9.76277 9.18115 9.98305C9.40143 10.2033 9.75863 10.2033 9.97891 9.98305L14.0201 5.94183L14.0202 10.1504C14.0232 10.4574 14.2714 10.7056 14.5785 10.7087Z" stroke="#63BAFF" stroke-width="2" mask="url(#path-1-outside-1_2030_4680)"/>
<path d="M15.9905 2.46372C16.548 2.46372 17 2.91567 17 3.47319V15.9905C17 16.548 16.548 17 15.9905 17H2.00946C1.45195 17 1 16.548 1 15.9905V2.00946C1 1.45195 1.45195 1 2.00946 1H8.57098C9.12849 1 9.58044 1.45195 9.58044 2.00946V2.46372H15.9905Z" stroke="#63BAFF" stroke-width="2" mask="url(#path-1-outside-1_2030_4680)"/>
</g>
<defs>
<clipPath id="clip0_2030_4680">
<rect width="18" height="18" fill="white"/>
</clipPath>
</defs>
</svg>
