<svg width="46" height="50" viewBox="0 0 46 50" fill="none" xmlns="http://www.w3.org/2000/svg">
<path d="M44.2903 39.9032H42.1613V20.7419C42.1613 19.9891 41.8622 19.267 41.3298 18.7347C40.7975 18.2023 40.0755 17.9032 39.3226 17.9032H39.1892L39.3226 13.6672C39.3255 13.5721 39.3093 13.4775 39.275 13.3888C39.2407 13.3002 39.1889 13.2193 39.1227 13.1511C39.0565 13.0828 38.9772 13.0286 38.8897 12.9915C38.8021 12.9545 38.708 12.9354 38.6129 12.9355H37.1935V5.83871C37.1935 5.65049 37.1188 5.46999 36.9857 5.3369C36.8526 5.20381 36.6721 5.12904 36.4839 5.12904H21.9603L20.7539 3.31581C20.6888 3.21834 20.6007 3.13849 20.4973 3.08339C20.3939 3.02828 20.2785 2.99963 20.1613 3H9.51613C9.32791 3 9.1474 3.07477 9.01431 3.20786C8.88122 3.34095 8.80645 3.52146 8.80645 3.70968V15.0645H7.3871C7.29177 15.0645 7.19741 15.0836 7.10965 15.1208C7.02189 15.158 6.94252 15.2125 6.87629 15.2811C6.81005 15.3496 6.75831 15.4308 6.72414 15.5198C6.68997 15.6088 6.67408 15.7038 6.67742 15.799L6.74839 17.9032H6.67742C5.92455 17.9032 5.20251 18.2023 4.67015 18.7347C4.13779 19.267 3.83871 19.9891 3.83871 20.7419V39.9032H1.70968C1.52146 39.9032 1.34095 39.978 1.20786 40.1111C1.07477 40.2442 1 40.4247 1 40.6129C1.00188 42.3063 1.67541 43.9298 2.87281 45.1272C4.07022 46.3246 5.69371 46.9981 7.3871 47H38.6129C40.3063 46.9981 41.9298 46.3246 43.1272 45.1272C44.3246 43.9298 44.9981 42.3063 45 40.6129C45 40.4247 44.9252 40.2442 44.7921 40.1111C44.659 39.978 44.4785 39.9032 44.2903 39.9032ZM10.2258 4.41936H19.7816L20.9881 6.23258C21.0531 6.33005 21.1412 6.4099 21.2446 6.46501C21.348 6.52011 21.4635 6.54876 21.5806 6.54839H35.7742V12.9355H34.3548V8.67742C34.3548 8.4892 34.2801 8.3087 34.147 8.1756C34.0139 8.04251 33.8334 7.96775 33.6452 7.96775H17.3226C17.1533 7.96755 16.9895 8.02826 16.8613 8.13878L11.8935 12.3968C11.8157 12.4634 11.7533 12.546 11.7104 12.639C11.6675 12.7319 11.6453 12.8331 11.6452 12.9355V15.0645H10.2258V4.41936ZM13.0645 13.6452H17.3226C17.5108 13.6452 17.6913 13.5704 17.8244 13.4373C17.9575 13.3042 18.0323 13.1237 18.0323 12.9355V9.3871H32.9355V12.9355H30.0968C29.98 12.9355 29.865 12.9643 29.762 13.0194C29.659 13.0745 29.5711 13.1541 29.5063 13.2513L28.2977 15.0645H13.0645V13.6452ZM14.271 12.2258L16.6129 10.2203V12.2258H14.271ZM28.6774 16.4839C28.7942 16.4839 28.9092 16.4551 29.0122 16.4C29.1152 16.3449 29.203 16.2652 29.2679 16.1681L30.4764 14.3548H37.8812L37.2155 35.6452H8.78232L8.12161 16.4839H28.6774ZM5.25806 20.7419C5.25806 20.3655 5.4076 20.0045 5.67378 19.7383C5.93996 19.4721 6.30098 19.3226 6.67742 19.3226H6.79948L7.3871 36.379C7.39336 36.563 7.47088 36.7373 7.6033 36.8653C7.73572 36.9932 7.91266 37.0646 8.09677 37.0645H37.9032C38.0877 37.0646 38.2649 36.9929 38.3974 36.8645C38.5299 36.7361 38.6072 36.5612 38.6129 36.3768L39.1452 19.3226H39.3226C39.699 19.3226 40.06 19.4721 40.3262 19.7383C40.5924 20.0045 40.7419 20.3655 40.7419 20.7419V39.9032H5.25806V20.7419ZM28.4688 41.3226C28.3422 41.7332 28.0875 42.0926 27.7419 42.348C27.3964 42.6034 26.9781 42.7414 26.5484 42.7419H19.4516C19.0219 42.7414 18.6036 42.6034 18.2581 42.348C17.9125 42.0926 17.6578 41.7332 17.5312 41.3226H28.4688ZM38.6129 45.5806H7.3871C6.19288 45.5792 5.03903 45.1482 4.13624 44.3664C3.23345 43.5847 2.64195 42.5043 2.46974 41.3226H16.0594L16.1183 41.5582C16.3032 42.3021 16.7319 42.9627 17.3361 43.4345C17.9403 43.9063 18.685 44.1622 19.4516 44.1613H26.5484C27.3153 44.1627 28.0606 43.907 28.6652 43.4352C29.2698 42.9633 29.6989 42.3025 29.8839 41.5582L29.9406 41.3226H43.5303C43.3581 42.5043 42.7665 43.5847 41.8638 44.3664C40.961 45.1482 39.8071 45.5792 38.6129 45.5806Z" fill="#63BAFF"/>
<path d="M23 34.2258C24.544 34.2258 26.0533 33.768 27.337 32.9102C28.6208 32.0524 29.6214 30.8332 30.2122 29.4068C30.8031 27.9803 30.9577 26.4107 30.6565 24.8964C30.3552 23.3821 29.6117 21.9911 28.52 20.8994C27.4282 19.8076 26.0373 19.0641 24.523 18.7629C23.0087 18.4617 21.439 18.6163 20.0126 19.2071C18.5862 19.798 17.367 20.7986 16.5092 22.0823C15.6514 23.3661 15.1935 24.8754 15.1935 26.4194C15.196 28.489 16.0192 30.4732 17.4827 31.9367C18.9462 33.4001 20.9303 34.2234 23 34.2258ZM23 20.0323C24.2632 20.0323 25.4981 20.4069 26.5485 21.1087C27.5988 21.8105 28.4175 22.808 28.9009 23.9751C29.3843 25.1422 29.5108 26.4264 29.2644 27.6654C29.0179 28.9044 28.4096 30.0425 27.5164 30.9357C26.6231 31.829 25.485 32.4373 24.2461 32.6837C23.0071 32.9302 21.7229 32.8037 20.5558 32.3203C19.3887 31.8368 18.3911 31.0182 17.6893 29.9678C16.9875 28.9175 16.6129 27.6826 16.6129 26.4194C16.6148 24.726 17.2883 23.1025 18.4857 21.9051C19.6831 20.7077 21.3066 20.0341 23 20.0323Z" fill="#63BAFF"/>
<path d="M20.4984 29.862C20.6012 29.9255 20.7185 29.9617 20.8392 29.9671C20.96 29.9726 21.0801 29.9472 21.1882 29.8932L26.8656 27.0545C26.9837 26.9956 27.0831 26.905 27.1525 26.7928C27.2219 26.6806 27.2587 26.5513 27.2587 26.4193C27.2587 26.2874 27.2219 26.1581 27.1525 26.0459C27.0831 25.9337 26.9837 25.843 26.8656 25.7842L21.1882 22.9455C21.08 22.8914 20.9597 22.8659 20.8389 22.8713C20.718 22.8768 20.6005 22.9131 20.4977 22.9767C20.3948 23.0404 20.3098 23.1293 20.251 23.235C20.1921 23.3407 20.1612 23.4596 20.1613 23.5806V29.258C20.1613 29.3791 20.1923 29.4982 20.2513 29.6039C20.3103 29.7096 20.3954 29.7984 20.4984 29.862ZM21.5806 24.7289L24.9615 26.4193L21.5806 28.1098V24.7289Z" fill="#63BAFF"/>
</svg>
