<svg width="46" height="50" viewBox="0 0 46 50" fill="none" xmlns="http://www.w3.org/2000/svg">
<path d="M3.24217 19.1928C3.24627 18.395 2.90643 16.3307 3.64142 16.019C4.44469 15.9771 5.27173 16.0175 6.07719 16.018L14.3043 16.0177C18.1874 16.0172 20.4598 16.9083 22.9535 20.2569C25.5944 16.4115 28.2211 16.0202 32.3372 16.0188L40.3349 16.0184C43.3625 16.019 42.6713 15.8491 42.6652 19.1928C46.5734 19.1707 45.9662 19.8755 45.9654 23.3401L45.9657 43.9276C45.9676 45.4276 46.2972 47.2514 44.4285 47.7384C43.7214 47.7771 42.9959 47.74 42.2867 47.7391L25.1585 47.7384C24.8036 48.1255 23.3037 50.0046 22.9487 50C22.546 49.9949 20.9301 48.1307 20.5603 47.7384L3.39679 47.7399C2.00796 47.7402 0.0634483 48.0809 0.0156015 45.986C-0.02237 44.3228 0.0210656 42.6476 0.0198636 40.9831L0.018388 21.7553C0.0190163 18.9424 0.62611 19.1874 3.24217 19.1928ZM4.43062 17.2319V43.1733L13.1249 43.1722C17.0193 43.167 19.922 44.4533 22.3241 47.7384L22.3242 23.742C22.3238 21.4032 22.6009 21.4123 20.7925 19.592C18.7345 17.5206 16.8872 17.2278 14.1788 17.2305L4.43062 17.2319ZM30.141 17.2319C27.2552 17.4178 25.0833 19.1669 23.5438 21.5086V47.7384C25.6552 45.1954 27.1635 43.929 30.6092 43.2762C31.9886 43.0882 33.4239 43.1718 34.8153 43.1722L41.4524 43.1733V17.2319H33.9207C32.6617 17.232 31.3997 17.2505 30.141 17.2319ZM1.35187 20.3944C0.98255 20.7317 1.18538 23.7125 1.18537 24.3319L1.18325 40.7005C1.18324 41.4243 1.02518 46.0243 1.31518 46.3648C1.53926 46.628 3.21772 46.4875 3.57681 46.4874H19.357L19.4597 46.4806C19.1645 45.7133 15.9307 44.5457 14.9543 44.434C13.9161 44.3152 12.791 44.4117 11.7425 44.4124C9.04839 44.4142 6.32865 44.4975 3.64142 44.3331C2.96298 43.8698 3.24203 42.3605 3.24299 41.5742L3.24217 20.3944C2.61482 20.3924 1.97818 20.3667 1.35187 20.3944ZM42.6652 20.3944L42.6656 41.3148C42.6674 42.774 43.2425 44.4246 41.5157 44.4188L34.9814 44.4115C31.6339 44.4112 29.0906 44.2099 26.282 46.4874L42.8329 46.489C43.3571 46.4902 43.9085 46.5399 44.4285 46.4874C45.0122 45.8222 44.7506 42.5875 44.7507 41.609L44.7499 22.4943C44.749 20.0491 45.14 20.3724 42.6652 20.3944Z" fill="#63BAFF"/>
<path d="M17.5487 25.4145C17.2141 25.4423 16.8619 25.4159 16.5254 25.4158L10.7431 25.4156C10.2638 25.4155 9.24619 25.4894 8.82523 25.3674C8.23517 25.1965 8.34444 24.4599 8.82605 24.2365L15.1293 24.2343C15.6072 24.2344 17.2505 24.1639 17.6334 24.2699C18.1695 24.4186 18.0315 25.1719 17.5487 25.4145ZM36.9819 25.4145C36.6852 25.4564 36.3554 25.419 36.0548 25.4166L30.3357 25.4152C29.7904 25.4152 27.6919 25.7605 28.0204 24.653C28.087 24.4281 28.2158 24.34 28.4146 24.2365C28.7678 24.2037 29.1342 24.2336 29.4892 24.2348L35.2154 24.2345C35.7055 24.2334 36.5678 24.1624 37.0279 24.2672C37.6494 24.4088 37.3583 25.1706 36.9819 25.4145ZM8.82605 30.6153C8.30401 30.2551 8.26645 29.7436 8.82605 29.4197C9.4467 29.3953 10.0775 29.4183 10.6989 29.4183L16.3101 29.4187C16.8134 29.4188 18.2333 29.2203 17.9622 30.1578C17.894 30.3939 17.7528 30.4984 17.5487 30.6153C17.0838 30.6433 16.6067 30.6191 16.1402 30.6175L10.4887 30.6158C9.93514 30.6166 9.37923 30.6379 8.82605 30.6153ZM36.9819 30.7332C35.9362 30.7642 28.6708 30.8311 28.292 30.6198C27.7671 30.3272 27.9737 29.6229 28.5013 29.5027L33.805 29.5031C34.4526 29.5035 36.5355 29.4208 36.9864 29.5718C37.577 29.7695 37.5035 30.5155 36.9819 30.7332ZM17.6582 36.0612C17.3937 36.0971 17.1007 36.0659 16.8333 36.064L10.759 36.0618C10.3169 36.0616 9.25111 36.1302 8.86183 36.0272C8.26085 35.8682 8.37012 35.1347 8.82605 34.8801C9.20904 34.8503 9.61116 34.8789 9.99633 34.8789L15.5699 34.8786C16.1574 34.8787 16.7533 34.8586 17.3399 34.8887C18.1265 34.9292 18.1935 35.6226 17.6582 36.0612ZM36.8063 36.0612C36.4537 36.1022 36.0879 36.066 35.7331 36.0631L30.2145 36.0612C29.7859 36.0618 28.611 36.2126 28.2553 35.9879C27.7005 35.6371 28.0227 34.9666 28.6158 34.8801L34.3239 34.8832C35.0872 34.8854 35.9367 34.8135 36.685 34.8808C37.6429 34.9669 37.6407 35.9877 36.8063 36.0612Z" fill="#63BAFF"/>
</svg>
