<svg width="18" height="18" viewBox="0 0 18 18" fill="none" xmlns="http://www.w3.org/2000/svg">
<g clip-path="url(#clip0_230_8497)">
<g clip-path="url(#clip1_230_8497)">
<path d="M0 15.9902V2.00977C0 0.899969 0.89997 0 2.00977 0V1L1.90625 1.00488C1.39721 1.05656 1 1.48709 1 2.00977V15.9902C1 16.5129 1.39721 16.9434 1.90625 16.9951L2.00977 17H15.9902C16.5477 17 17 16.5477 17 15.9902V3.47363C17 2.95096 16.6028 2.52044 16.0938 2.46875L15.9902 2.46387V1.46387C17.1 1.46387 18 2.36384 18 3.47363V15.9902C18 17.1 17.1 18 15.9902 18H2.00977C0.89997 18 0 17.1 0 15.9902ZM8.57129 0C9.4917 0.000139351 10.2661 0.619498 10.5039 1.46387H15.9902V2.46387H9.58008V2.00977C9.58008 1.48696 9.18304 1.0564 8.67383 1.00488L8.57129 1V0ZM8.57129 0V1H2.00977V0H8.57129Z" fill="#63BAFF"/>
<path d="M4.861 9.22674C4.63851 9.44482 4.63493 9.80193 4.85294 10.0244L8.79174 13.9632C8.89737 14.0692 9.04095 14.1287 9.19058 14.1285C9.34021 14.1286 9.48372 14.0692 9.58942 13.9632L13.5282 10.0244C13.7431 9.8051 13.7431 9.45418 13.5282 9.23487C13.3101 9.01238 12.953 9.00873 12.7305 9.22674L9.75468 12.2026V6.48746C9.75468 6.17593 9.5021 5.92335 9.19058 5.92335C8.87906 5.92335 8.62648 6.17593 8.62648 6.48746V12.2026L5.65055 9.22674C5.4313 9.01183 5.08032 9.01183 4.861 9.22674Z" fill="#63BAFF"/>
</g>
</g>
<defs>
<clipPath id="clip0_230_8497">
<rect width="18" height="18" fill="white"/>
</clipPath>
<clipPath id="clip1_230_8497">
<rect width="18" height="18" fill="white"/>
</clipPath>
</defs>
</svg>
