<svg width="18" height="18" viewBox="0 0 18 18" fill="none" xmlns="http://www.w3.org/2000/svg">
<g clip-path="url(#clip0_2030_4512)">
<g clip-path="url(#clip1_2030_4512)">
<mask id="path-1-outside-1_2030_4512" maskUnits="userSpaceOnUse" x="0" y="0" width="18" height="18" fill="black">
<rect fill="white" width="18" height="18"/>
<path d="M4.861 9.22674C4.63851 9.44482 4.63493 9.80193 4.85294 10.0244L8.79174 13.9632C8.89737 14.0692 9.04095 14.1287 9.19058 14.1285C9.34021 14.1286 9.48372 14.0692 9.58942 13.9632L13.5282 10.0244C13.7431 9.8051 13.7431 9.45418 13.5282 9.23487C13.3101 9.01238 12.953 9.00873 12.7305 9.22674L9.75468 12.2026V6.48746C9.75468 6.17593 9.5021 5.92335 9.19058 5.92335C8.87906 5.92335 8.62648 6.17593 8.62648 6.48746V12.2026L5.65055 9.22674C5.4313 9.01183 5.08032 9.01183 4.861 9.22674Z"/>
<path d="M15.9905 2.46372C16.548 2.46372 17 2.91567 17 3.47319V15.9905C17 16.548 16.548 17 15.9905 17H2.00946C1.45195 17 1 16.548 1 15.9905V2.00946C1 1.45195 1.45195 1 2.00946 1H8.57098C9.12849 1 9.58044 1.45195 9.58044 2.00946V2.46372H15.9905Z"/>
</mask>
<path d="M4.861 9.22674C4.63851 9.44482 4.63493 9.80193 4.85294 10.0244L8.79174 13.9632C8.89737 14.0692 9.04095 14.1287 9.19058 14.1285C9.34021 14.1286 9.48372 14.0692 9.58942 13.9632L13.5282 10.0244C13.7431 9.8051 13.7431 9.45418 13.5282 9.23487C13.3101 9.01238 12.953 9.00873 12.7305 9.22674L9.75468 12.2026V6.48746C9.75468 6.17593 9.5021 5.92335 9.19058 5.92335C8.87906 5.92335 8.62648 6.17593 8.62648 6.48746V12.2026L5.65055 9.22674C5.4313 9.01183 5.08032 9.01183 4.861 9.22674Z" fill="#63BAFF"/>
<path d="M4.861 9.22674C4.63851 9.44482 4.63493 9.80193 4.85294 10.0244L8.79174 13.9632C8.89737 14.0692 9.04095 14.1287 9.19058 14.1285C9.34021 14.1286 9.48372 14.0692 9.58942 13.9632L13.5282 10.0244C13.7431 9.8051 13.7431 9.45418 13.5282 9.23487C13.3101 9.01238 12.953 9.00873 12.7305 9.22674L9.75468 12.2026V6.48746C9.75468 6.17593 9.5021 5.92335 9.19058 5.92335C8.87906 5.92335 8.62648 6.17593 8.62648 6.48746V12.2026L5.65055 9.22674C5.4313 9.01183 5.08032 9.01183 4.861 9.22674Z" stroke="#63BAFF" stroke-width="2" mask="url(#path-1-outside-1_2030_4512)"/>
<path d="M15.9905 2.46372C16.548 2.46372 17 2.91567 17 3.47319V15.9905C17 16.548 16.548 17 15.9905 17H2.00946C1.45195 17 1 16.548 1 15.9905V2.00946C1 1.45195 1.45195 1 2.00946 1H8.57098C9.12849 1 9.58044 1.45195 9.58044 2.00946V2.46372H15.9905Z" stroke="#63BAFF" stroke-width="2" mask="url(#path-1-outside-1_2030_4512)"/>
</g>
</g>
<defs>
<clipPath id="clip0_2030_4512">
<rect width="18" height="18" fill="white"/>
</clipPath>
<clipPath id="clip1_2030_4512">
<rect width="18" height="18" fill="white"/>
</clipPath>
</defs>
</svg>
