<svg width="18" height="18" viewBox="0 0 18 18" fill="none" xmlns="http://www.w3.org/2000/svg">
<g clip-path="url(#clip0_230_8495)">
<path d="M0 15.9902V2.00977C0 0.899969 0.89997 0 2.00977 0V1L1.90625 1.00488C1.39721 1.05656 1 1.48709 1 2.00977V15.9902C1 16.5129 1.39721 16.9434 1.90625 16.9951L2.00977 17H15.9902C16.5477 17 17 16.5477 17 15.9902V3.47363C17 2.95096 16.6028 2.52044 16.0938 2.46875L15.9902 2.46387V1.46387C17.1 1.46387 18 2.36384 18 3.47363V15.9902C18 17.1 17.1 18 15.9902 18H2.00977C0.89997 18 0 17.1 0 15.9902ZM8.57129 0C9.4917 0.000139351 10.2661 0.619498 10.5039 1.46387H15.9902V2.46387H9.58008V2.00977C9.58008 1.48696 9.18304 1.0564 8.67383 1.00488L8.57129 1V0ZM8.57129 0V1H2.00977V0H8.57129Z" fill="#63BAFF"/>
<path d="M14.5785 10.7087C14.89 10.7118 15.145 10.4618 15.1482 10.1503L15.1482 4.58003C15.1485 4.4304 15.089 4.28681 14.9831 4.18115C14.8773 4.07525 14.7338 4.01579 14.5842 4.01599H9.01386C8.70681 4.0191 8.45868 4.26724 8.45557 4.57428C8.45245 4.88581 8.70238 5.14091 9.01386 5.14407L13.2224 5.14407L9.18115 9.18529C8.96087 9.40557 8.96087 9.76277 9.18115 9.98305C9.40143 10.2033 9.75863 10.2033 9.97891 9.98305L14.0201 5.94183L14.0202 10.1504C14.0232 10.4574 14.2714 10.7056 14.5785 10.7087Z" fill="#63BAFF"/>
</g>
<defs>
<clipPath id="clip0_230_8495">
<rect width="18" height="18" fill="white"/>
</clipPath>
</defs>
</svg>
