<svg width="76" height="76" viewBox="0 0 76 76" fill="none" xmlns="http://www.w3.org/2000/svg">
<circle r="38" transform="matrix(-1 0 0 1 38 38)" fill="none"/>
<path d="M37.9712 54.7414C37.3499 54.7414 36.777 54.5202 36.3146 54.103L36.28 54.0697C35.9672 53.7557 35.6523 53.443 35.3382 53.1306C34.2564 52.055 33.138 50.9422 32.0911 49.7784C31.7327 49.3797 31.2206 48.4658 31.5737 47.5693C31.7677 47.0765 32.2725 46.4746 33.5751 46.3879C34.7068 46.2311 35.6242 45.3799 35.8101 44.3092C35.9738 43.3701 35.7045 42.5002 35.0082 41.7231C34.224 40.8484 33.3037 40.4975 32.2672 40.6815C31.2048 40.8697 30.3907 41.8024 30.2436 43.0024C30.0779 44.8884 29.2374 45.2917 28.5612 45.2917C28.0405 45.2917 27.4982 45.0168 26.9045 44.4512C26.1549 43.6922 25.4309 42.9481 24.7064 42.204C24.1159 41.597 23.5254 40.9906 22.932 40.3862C22.6967 40.1459 21.9821 39.4167 22.0003 38.3311C22.0126 37.5944 22.3572 36.8991 23.0239 36.2643C24.3514 34.9141 25.529 33.7028 26.6021 32.5822C26.8635 32.3096 27.0474 32.0722 27.1643 31.8565C27.2603 31.678 27.282 31.5066 27.226 31.3614C27.1718 31.2211 27.0439 31.1089 26.8647 31.0419C26.8332 31.0367 26.7932 31.0322 26.7469 31.0257C26.0178 30.9287 23.7987 30.6341 22.919 28.3856C22.5247 27.3776 22.6078 26.1917 23.1461 25.1307C23.7187 24.0024 24.7401 23.1664 25.8783 22.8948C26.449 22.7567 27.088 22.7431 27.6549 22.8586C29.2064 23.1726 30.3642 24.5127 30.6048 26.2736C30.7742 27.3181 31.114 27.5629 31.1597 27.5629C31.1773 27.5629 31.2233 27.5499 31.286 27.5001L31.4006 27.4219C31.8671 27.0785 34.4985 24.4813 36.0843 22.8586C36.6424 22.2888 37.2506 22 37.8934 22C38.3331 22 39.0002 22.1468 39.6842 22.8476C41.0659 24.2582 42.4451 25.6752 43.8192 27.0969C44.0724 27.3585 44.6645 28.2416 44.3647 29.1682C44.2012 29.673 43.7288 30.3175 42.4057 30.5193C41.2407 30.6958 40.3295 31.5299 40.1387 32.5944C39.9651 33.5591 40.247 34.4481 40.9768 35.2355C41.762 36.0837 42.6744 36.4181 43.6872 36.2299C44.7909 36.0259 45.7149 34.8487 45.6973 34.0276C45.6834 33.3766 45.9307 32.703 46.3426 32.2701C46.6708 31.926 47.0963 31.7368 47.541 31.7368C48.0676 31.7368 48.5781 31.9868 49.0581 32.4799C49.5519 32.9867 50.1515 33.6001 50.7853 34.2476C51.555 35.0344 52.3745 35.872 53.1147 36.6332C54.2922 37.8433 54.2955 39.23 53.1222 40.4372L51.9447 41.6463C51.0786 42.5349 50.2128 43.4236 49.3539 44.3204C49.0436 44.6444 48.6279 45.3734 48.7158 45.6292C48.741 45.7006 48.9967 45.926 49.8194 46.0205C51.454 46.2494 52.7478 47.3706 53.1393 48.8783C53.4051 49.9034 53.2256 51.056 52.6467 52.041C52.0521 53.0532 51.1047 53.775 50.0487 54.0221C49.4742 54.1556 48.8386 54.1663 48.2739 54.0499C46.8368 53.7546 45.7738 52.5484 45.3584 50.7384C45.1858 49.9888 44.9241 49.5228 44.6743 49.5228C44.4022 49.5228 43.9739 49.8122 43.7443 50.0819L43.6942 50.1372C42.4518 51.3787 41.2083 52.6658 40.1372 53.7779C39.741 54.2497 38.9139 54.7413 37.9713 54.7413L37.9712 54.7414ZM37.5215 52.7231C37.6509 52.8344 37.7942 52.8868 37.9706 52.8868C38.3394 52.8868 38.6868 52.6624 38.7627 52.5724L38.8244 52.5016C39.9003 51.3843 41.1519 50.0882 42.4086 48.8322C42.8832 48.2879 43.7487 47.668 44.6731 47.668C45.3584 47.668 46.5861 48.0115 47.1142 50.3123C47.2311 50.82 47.6119 52.022 48.6273 52.2313C48.9426 52.2967 49.3221 52.2892 49.6465 52.2139C50.2266 52.078 50.7564 51.6654 51.0991 51.083C51.4263 50.5261 51.5334 49.8965 51.3926 49.3551C51.1895 48.5722 50.4843 47.9853 49.5955 47.8601C48.2022 47.7007 47.3257 47.1567 47.012 46.2474C46.4765 44.6938 48.0013 43.0866 48.0667 43.0184C48.9272 42.12 49.7974 41.2274 50.667 40.3346L51.8427 39.1274C52.3132 38.643 52.3123 38.4328 51.8364 37.9441C51.0969 37.1842 50.2786 36.3476 49.5101 35.5618C48.8758 34.913 48.2749 34.2983 47.7804 33.7909C47.6979 33.7065 47.6343 33.6563 47.5899 33.6272C47.5458 33.7074 47.4992 33.8436 47.5026 33.9862C47.5411 35.802 45.9081 37.7026 44.007 38.0537C42.4001 38.3522 40.8654 37.807 39.667 36.5118C38.5329 35.2868 38.0812 33.8155 38.3616 32.2564C38.6929 30.4122 40.2119 28.9763 42.1397 28.6833C42.3948 28.6445 42.5403 28.5921 42.6165 28.5549C42.5907 28.4932 42.5501 28.4204 42.5176 28.381C41.165 26.9823 39.7886 25.5691 38.4085 24.1598C38.296 24.0444 38.0806 23.8529 37.8923 23.8529C37.7483 23.8529 37.5581 23.9661 37.3578 24.1708C37.1871 24.3451 33.3834 28.2352 32.3844 28.9682L32.3847 28.9692C32.0143 29.2612 31.5901 29.4158 31.1583 29.4158C30.718 29.4158 29.2484 29.2095 28.8185 26.5525C28.683 25.5623 28.0897 24.835 27.3042 24.6762C26.9889 24.6119 26.6104 24.6206 26.2881 24.6986C25.6548 24.8496 25.079 25.3308 24.7468 25.9856C24.4523 26.5661 24.3969 27.1883 24.594 27.6931C25.0211 28.7855 26.039 29.0608 26.9775 29.1855C27.1432 29.2072 27.2626 29.2237 27.3848 29.2638C28.0921 29.496 28.6471 30.0115 28.9038 30.6761C29.1586 31.3354 29.0997 32.0928 28.7425 32.7544C28.5419 33.1247 28.2711 33.4824 27.8887 33.8811C26.81 35.0071 25.627 36.2247 24.2724 37.6016C24.0497 37.8141 23.8097 38.0974 23.805 38.3619C23.8 38.6578 24.0932 38.9566 24.2031 39.0688C24.7977 39.6742 25.3902 40.2831 25.9826 40.892C26.7041 41.6329 27.4251 42.3738 28.1513 43.1095C28.2395 43.1932 28.3144 43.2556 28.3765 43.3032C28.4013 43.1887 28.4272 43.0273 28.4473 42.801C28.6983 40.7546 30.109 39.1807 31.9599 38.8521C33.6065 38.5646 35.1409 39.1325 36.3358 40.4648C37.4195 41.6742 37.852 43.1162 37.5872 44.6335C37.2568 46.5338 35.7233 47.9793 33.7719 48.2296L33.7114 48.2358C33.5001 48.2478 33.3675 48.2778 33.2887 48.3034C33.318 48.3761 33.3668 48.4635 33.4169 48.5191C34.4298 49.6451 35.5296 50.7394 36.5938 51.7973C36.9037 52.1058 37.2133 52.414 37.5213 52.7232L37.5215 52.7231Z" fill="white"/>
</svg>
