<?xml version="1.0" encoding="utf-8"?>
<svg version="1.1" id="Слой_1" xmlns="http://www.w3.org/2000/svg" xmlns:xlink="http://www.w3.org/1999/xlink" x="0px" y="0px"
	 viewBox="0 0 141.7 141.7" style="enable-background:new 0 0 141.7 141.7;" xml:space="preserve">
<style type="text/css">
	.st0{fill:#FFFFFF;}
</style>
<g>
	<path class="st0" d="M71.2,44.5c-12.3,0-22.3,8.1-25.6,20.1c-0.7,2.6-0.9,5.7-0.9,9.4c0,7.6,1.3,16.6,3.8,21.9c0,0,0.5,1.2,1.2,1.3
		c0.2,0,0.3,0,0.3,0c1.2-0.2,4.3-2.5,5.1-3.2c0,0,0.9-0.8,1.8-2c4.1,2.7,9,4.3,14.3,4.3c14.3,0,25.9-11.6,25.9-25.9
		C97.1,56.1,85.5,44.5,71.2,44.5z"/>
	<path class="st0" d="M113.3,0H28.4C12.7,0,0,12.7,0,28.4v84.9c0,15.7,12.7,28.4,28.4,28.4h84.9c15.7,0,28.4-12.7,28.4-28.4V28.4
		C141.7,12.7,129,0,113.3,0z M123.1,70.9c0,5.9-1,11.5-2.9,16.7c-0.1,0.2-0.1,0.4-0.2,0.6c-0.1,0.2-0.2,0.4-0.2,0.6
		c-7.2,19.1-25.3,32.6-46.6,32.6c-0.7,0-1.4,0-2.1-0.1c0,0-0.1,0-0.1,0c-1.6,0-3.2-0.2-4.8-0.5c-6.5-0.9-12.5-3.1-17.9-6.3
		c-1.1,1.3-2.5,2.7-4.6,4c-2.2,1.4-4.1,2.1-5.1,2.4c-2.2,0.7-3.9,0.9-4.9,1c-2.4,0.2-3.5-0.2-4-0.4c-0.5-0.2-1.4-0.6-2.1-1.5
		c-0.6-0.8-0.8-1.7-0.8-1.8c-0.1-0.8,0-1.3,0.2-2.1c0.1-0.8,0.1-1.6,0-3.2c0-1-0.2-2.7-0.7-5c-0.5-2.6-1.2-4.1-1.9-6.2
		c-0.1-0.3-0.9-3-2.4-8.3c-0.8-2.6-2.6-13.7-2.6-16.1c0,0,0,0,0,0c-0.3-2.1-0.4-4.3-0.4-6.5c0-28.3,23.4-51.3,52.2-51.3
		c0.4,0,0.8,0,1.2,0c0.4,0,0.7,0,1.1,0c27.6,0,49.9,22.8,49.9,50.9c0,0.1,0,0.1,0,0.2C123.1,70.8,123.1,70.8,123.1,70.9z"/>
</g>
</svg>
