<svg width="42" height="42" viewBox="0 0 42 42" fill="none" xmlns="http://www.w3.org/2000/svg">
<path d="M38.6758 9.43257C38.6758 9.44972 38.6718 9.4704 38.6758 9.48302C38.708 9.58946 38.849 9.68228 38.8772 9.73525C40.776 13.2952 41.6252 15.7469 41.9982 19.8244C41.9157 19.8754 41.9172 20.0792 41.9982 20.1271C42.0022 20.7148 41.9982 21.305 41.9982 21.8927C41.9151 21.9563 41.9151 22.1823 41.9982 22.2459C41.963 22.5985 41.9358 22.9531 41.8975 23.3052L41.8547 23.3743L41.8975 23.4061C41.8849 23.5146 41.8593 23.6114 41.8472 23.7088L41.7979 23.7794L41.8472 23.8097C40.78 31.4507 35.6021 38.1126 28.3059 40.7091C25.8725 41.5752 23.0429 41.9617 20.4529 41.8693C18.239 41.7901 16.1348 41.3402 14.2305 40.2626C13.6153 39.9146 13.0928 39.4252 12.5154 39.1039C11.9415 38.7846 11.7658 39.2628 11.3923 39.5746C9.77188 40.93 6.21943 42.6613 4.14343 41.7422C2.79534 41.1454 3.11701 40.1108 3.03495 38.9182C2.75909 34.9275 1.09588 30.9135 0.468142 26.9368C0.231043 25.4361 0.0543516 23.8823 0.0130733 22.3735C-0.0725038 19.2347 0.248662 16.2973 1.37425 13.3669C5.49353 2.64456 18.2204 -2.77687 28.9225 1.42427C32.9396 3.00121 36.2867 5.86049 38.6758 9.43257ZM10.8381 20.8334C10.6146 23.0197 10.826 29.3259 12.3966 30.9498C12.9141 31.4845 13.6264 30.9281 14.1046 30.5891C14.5013 30.3076 15.1074 29.6443 15.4502 29.4662C15.5358 29.4218 15.5982 29.4046 15.6958 29.4046C15.9314 29.4051 16.9236 30.0276 17.2473 30.1749C18.5239 30.7561 19.6012 31.0018 21.0066 31.0235C21.0736 31.0245 21.1411 31.0235 21.208 31.0235C21.275 31.0235 21.3424 31.025 21.4094 31.0235C22.0703 31.0083 22.7378 30.9725 23.3852 30.8181C29.3675 29.391 33.2296 23.058 30.8475 17C28.7619 11.6961 22.6457 8.90844 17.2981 11.0882C13.2785 12.7267 11.2634 16.6736 10.8386 20.8334H10.8381Z" fill="#FEFEFE"/>
</svg>
