<svg width="43" height="42" viewBox="0 0 43 42" fill="none" xmlns="http://www.w3.org/2000/svg">
<path d="M0.0303372 20.9948C0.0303372 14.4754 0.0505042 7.956 0.0101616 1.44162C0.00511872 0.425154 0.14632 0.034591 1.33643 0.0395983C14.5991 0.0896704 27.8617 0.0846634 41.1244 0.0496129C42.0977 0.0496129 42.375 0.279945 42.375 1.27137C42.3397 14.4303 42.3397 27.5943 42.375 40.7533C42.375 41.7797 42.0422 41.955 41.1042 41.955C27.8416 41.9249 14.5789 41.9249 1.31625 41.96C0.27743 41.96 -0.0049768 41.7196 6.60381e-05 40.6731C0.0504944 34.1137 0.0252894 27.5542 0.0252894 20.9948H0.0303372ZM0.690947 20.8796C0.690947 27.2338 0.721195 33.5879 0.665724 39.9421C0.655638 41.0637 0.988475 41.3341 2.07773 41.3091C5.43625 41.239 8.79477 41.284 12.1533 41.284C21.5582 41.284 30.958 41.284 40.3629 41.284C40.9882 41.284 41.7144 41.5194 41.7094 40.3927C41.6741 34.2038 41.6841 28.0199 41.7043 21.831C41.7043 21.1951 41.5076 20.9848 40.847 20.9497C39.3392 20.8696 37.8566 20.5742 36.3942 20.1836C35.7639 20.0134 35.5218 19.733 35.5621 19.047C35.6277 17.8903 35.5924 16.7236 35.542 15.562C35.3907 11.9017 33.2071 9.32798 29.6166 8.58191C27.7558 8.19635 25.8547 8.27146 23.9737 8.32654C23.0963 8.35157 22.713 8.01108 22.4457 7.23496C21.8507 5.50247 21.3766 3.72491 21.2909 1.9123C21.2354 0.750623 20.7362 0.710565 19.8335 0.715572C13.9133 0.745616 7.99297 0.75563 2.07773 0.705558C0.988475 0.695543 0.655638 0.950911 0.665724 2.07253C0.721195 8.34156 0.69598 14.6156 0.69598 20.8846L0.690947 20.8796Z" fill="#FEFEFE"/>
<path d="M28.9554 24.6698C30.6397 26.9381 32.2333 29.0912 33.9983 31.4696C31.9912 31.4696 30.2514 31.4546 28.5117 31.4796C27.967 31.4896 27.8309 31.0991 27.5989 30.7636C26.3785 28.981 25.138 27.2085 23.9479 25.4059C23.61 24.8951 23.2419 24.6898 22.6216 24.6948C19.9792 24.7249 17.3367 24.7399 14.6943 24.6898C13.8219 24.6698 13.6404 25.0003 13.6605 25.7714C13.7059 27.3887 13.6504 29.006 13.6857 30.6234C13.7009 31.2543 13.5193 31.5147 12.8436 31.4846C11.6282 31.4395 10.4129 31.4446 9.19761 31.4846C8.56221 31.5046 8.3252 31.3344 8.3252 30.6584C8.35041 24.2292 8.35041 17.7999 8.3252 11.3656C8.3252 10.7097 8.52692 10.5244 9.18248 10.5244C15.3902 10.5595 21.5979 10.5044 27.8006 10.5945C31.4113 10.6496 33.146 12.5123 33.3377 16.1075C33.3982 17.2291 33.378 18.3407 33.3225 19.4573C33.1662 22.4967 32.0517 23.8686 28.9504 24.6698H28.9554ZM20.428 20.0431V20.0081C22.4401 20.0081 24.4471 20.0081 26.4592 20.0081C27.5485 20.0081 28.078 19.4923 28.0276 18.4058C28.0124 18.0753 28.0276 17.7448 28.0276 17.4093C28.0276 15.4765 27.7603 15.1811 25.8087 15.1661C23.0452 15.1411 20.2818 15.126 17.5183 15.1761C16.2828 15.1961 14.6741 14.6203 13.9076 15.4515C13.1663 16.2627 13.7765 17.8299 13.6706 19.0617C13.605 19.8128 13.8673 20.0782 14.6489 20.0581C16.5753 20.0081 18.5016 20.0431 20.428 20.0431Z" fill="#FEFEFE"/>
</svg>
