<?xml version="1.0" encoding="UTF-8" standalone="no"?>
<svg
   xmlns:dc="http://purl.org/dc/elements/1.1/"
   xmlns:cc="http://creativecommons.org/ns#"
   xmlns:rdf="http://www.w3.org/1999/02/22-rdf-syntax-ns#"
   xmlns:svg="http://www.w3.org/2000/svg"
   xmlns="http://www.w3.org/2000/svg"
   xmlns:sodipodi="http://sodipodi.sourceforge.net/DTD/sodipodi-0.dtd"
   xmlns:inkscape="http://www.inkscape.org/namespaces/inkscape"
   width="132"
   height="132"
   viewBox="0 0 132 132"
   fill="none"
   version="1.1"
   id="svg15"
   sodipodi:docname="rutube.svg"
   inkscape:version="1.0.1 (3bc2e813f5, 2020-09-07)">
  <metadata
     id="metadata19">
    <rdf:RDF>
      <cc:Work
         rdf:about="">
        <dc:format>image/svg+xml</dc:format>
        <dc:type
           rdf:resource="http://purl.org/dc/dcmitype/StillImage" />
        <dc:title></dc:title>
      </cc:Work>
    </rdf:RDF>
  </metadata>
  <sodipodi:namedview
     pagecolor="#ffffff"
     bordercolor="#666666"
     borderopacity="1"
     objecttolerance="10"
     gridtolerance="10"
     guidetolerance="10"
     inkscape:pageopacity="0"
     inkscape:pageshadow="2"
     inkscape:window-width="1920"
     inkscape:window-height="1009"
     id="namedview17"
     showgrid="false"
     fit-margin-top="0"
     fit-margin-left="0"
     fit-margin-right="0"
     fit-margin-bottom="0"
     inkscape:zoom="2.2552421"
     inkscape:cx="63.68723"
     inkscape:cy="62.869766"
     inkscape:window-x="-8"
     inkscape:window-y="-8"
     inkscape:window-maximized="1"
     inkscape:current-layer="svg15" />
  <g
     clip-path="url(#clip0_519_1951)"
     id="g6">
    <path
       d="M 81.5361,62.9865 H 42.5386 V 47.5547 h 38.9975 c 2.2779,0 3.8618,0.3971 4.6567,1.0904 0.7949,0.6934 1.2873,1.9794 1.2873,3.858 v 5.541 c 0,1.9793 -0.4924,3.2653 -1.2873,3.9587 -0.7949,0.6933 -2.3788,0.9897 -4.6567,0.9897 z M 84.2115,33.0059 H 26 V 99 H 42.5386 V 77.5294 H 73.0177 L 87.4801,99 H 106 L 90.0546,77.4287 c 5.8787,-0.8712 8.5184,-2.6728 10.6954,-5.6418 2.177,-2.969 3.269,-7.7159 3.269,-14.051 v -4.9483 c 0,-3.7573 -0.398,-6.7263 -1.092,-9.0019 -0.694,-2.2757 -1.88,-4.255 -3.565,-6.0329 -1.7796,-1.683 -3.7609,-2.8683 -6.1397,-3.6624 C 90.8435,33.3971 87.8716,33 84.2115,33 Z"
       fill="#ffffff"
       id="path2" />
    <path
       d="M 198,3.05176e-5 C 198,36.4508 168.451,66.0001 132,66.0001 c -7.411,0 -14.536,-1.2215 -21.186,-3.474 0.142,-1.5684 0.205,-3.172 0.205,-4.7902 v -4.9483 c 0,-4.2016 -0.439,-7.9052 -1.396,-11.044 -1.033,-3.3848 -2.803,-6.2978 -5.18,-8.8056 l -0.132,-0.1392 -0.139,-0.1318 C 101.64,30.2721 98.7694,28.5625 95.4389,27.4506 L 95.3108,27.4079 95.1812,27.3701 C 92.0109,26.446 88.3508,26 84.2115,26 h -7 v 0.0059 H 71.3211 C 67.8964,18.0257 66,9.23434 66,3.05176e-5 66,-36.4508 95.5492,-66 132,-66 c 36.451,0 66,29.5492 66,66.0000305176 z"
       fill="#ffffff"
       id="path4" />
  </g>
  <rect
     x="1"
     y="1"
     width="130"
     height="130"
     stroke="#ffffff"
     stroke-width="2"
     id="rect8" />
  <defs
     id="defs13">
    <clipPath
       id="clip0_519_1951">
      <rect
         width="132"
         height="132"
         fill="#ffffff"
         id="rect10"
         x="0"
         y="0" />
    </clipPath>
  </defs>
</svg>
