<svg width="43" height="42" viewBox="0 0 43 42" fill="none" xmlns="http://www.w3.org/2000/svg">
<path d="M42.2977 23.6154C42.3279 37.2651 27.7441 46.0928 15.8077 39.9089C13.6645 38.7973 11.5717 37.5004 10.3009 35.3574C8.66198 32.5984 8.95951 29.6291 9.9832 26.815C12.9534 18.6182 18.677 12.9851 26.9019 9.96077C30.0385 8.80911 33.382 8.51368 36.2866 10.6167C38.4853 12.209 39.8872 14.5474 40.916 17.0209C41.8287 19.2091 42.3532 21.5124 42.2977 23.6104V23.6154Z" fill="#FEFEFE"/>
<path d="M29.1708 3.97185C24.723 2.45967 20.9157 3.65139 17.3554 5.60921C11.4452 8.8639 6.95204 13.4856 4.42558 19.7997C3.34137 22.5086 2.80179 25.2826 3.73471 28.1667C3.79523 28.352 3.74479 28.5673 3.74479 28.8076C-1.85275 22.0429 -1.40394 10.7166 6.64442 4.10705C13.8658 -1.8265 24.1683 -0.624772 29.1708 3.97185Z" fill="#FEFEFE"/>
</svg>
