<svg width="60" height="60" viewBox="0 0 60 60" fill="none" xmlns="http://www.w3.org/2000/svg">
<rect width="60" height="60" rx="30" fill="white"/>
<path d="M44.9646 20.6508C43.9671 19.6541 42.6677 19.0552 41.1739 18.8261C40.9448 17.3322 40.3459 16.0329 39.3493 15.0354C32.6354 8.32155 21.7491 8.32155 15.0354 15.0354C8.32155 21.7491 8.32155 32.6353 15.0354 39.3492C16.0329 40.3467 17.3322 40.9447 18.8261 41.1748C19.0553 42.6686 19.6541 43.9679 20.6508 44.9646C27.3645 51.6785 38.2509 51.6785 44.9646 44.9646C51.6792 38.2508 51.6792 27.3654 44.9646 20.6508Z" fill="url(#paint0_linear_2_11391)"/>
<path d="M25.6884 25.6884C30.7001 20.6766 36.7788 18.1505 41.1748 18.826C40.9456 17.3322 40.3468 16.0329 39.3501 15.0354C35.4182 11.1034 26.7876 13.3583 20.0738 20.0729C13.36 26.7867 11.1043 35.4173 15.0362 39.3492C16.0337 40.3467 17.333 40.9447 18.8269 41.1747C18.1498 36.7788 20.6766 30.7001 25.6884 25.6884Z" fill="url(#paint1_radial_2_11391)"/>
<defs>
<linearGradient id="paint0_linear_2_11391" x1="17.4622" y1="40.9712" x2="42.2696" y2="19.2647" gradientUnits="userSpaceOnUse">
<stop stop-color="#0000C9"/>
<stop offset="0.1277" stop-color="#2006C9"/>
<stop offset="0.3216" stop-color="#4A0EC8"/>
<stop offset="0.5106" stop-color="#6B14C8"/>
<stop offset="0.6905" stop-color="#8318C7"/>
<stop offset="0.8578" stop-color="#911BC7"/>
<stop offset="1" stop-color="#961CC7"/>
</linearGradient>
<radialGradient id="paint1_radial_2_11391" cx="0" cy="0" r="1" gradientUnits="userSpaceOnUse" gradientTransform="translate(34.4247 34.7631) rotate(-128.972) scale(15.2243 22.4547)">
<stop stop-color="#0B25CE"/>
<stop offset="0.4859" stop-color="#2C93DB"/>
<stop offset="0.8379" stop-color="#42DCE4"/>
<stop offset="1" stop-color="#4BF9E8"/>
</radialGradient>
</defs>
</svg>
