<svg width="43" height="42" viewBox="0 0 43 42" fill="none" xmlns="http://www.w3.org/2000/svg">
<path d="M42.2705 6.66764C41.8369 10.5733 41.2267 14.7593 40.5156 18.9303C39.6483 23.9976 38.7759 29.0649 37.8782 34.1322C37.7421 34.9033 37.5252 35.6744 37.2227 36.3955C36.4461 38.2581 35.2055 38.7388 33.3044 38.0428C31.7461 37.477 30.5207 36.3955 29.1693 35.4992C26.2242 33.5414 23.2591 31.6136 20.3241 29.6457C17.8178 27.9633 17.7019 26.8217 19.84 24.7387C23.4255 21.2486 27.2631 18.019 30.7477 14.4188C31.2318 13.9231 32.2403 13.3923 31.6503 12.6463C30.9645 11.775 30.1929 12.7564 29.6231 13.1269C24.5349 16.4217 19.4719 19.7565 14.4341 23.1314C12.4422 24.4633 10.3797 24.969 8.01456 24.3231C5.83102 23.7272 3.64747 23.1464 1.52948 22.3402C0.813395 22.0698 0.0367989 21.7293 0.00149909 20.8681C-0.0388436 20.0019 0.742797 19.5812 1.41349 19.2808C4.57031 17.8487 7.73721 16.4417 10.9243 15.0747C15.4174 13.152 19.9157 11.2392 24.434 9.38155C29.023 7.49383 33.5616 5.46591 38.317 3.99379C38.5943 3.90867 38.8717 3.81353 39.1591 3.75845C41.388 3.34285 42.326 4.12898 42.2705 6.66263V6.66764Z" fill="#FEFEFE"/>
</svg>
