<svg width="42" height="42" viewBox="0 0 42 42" fill="none" xmlns="http://www.w3.org/2000/svg">
<path d="M41.9055 21.0923C41.9955 24.6575 42.1155 28.2276 41.7604 31.7878C41.5204 34.2012 41.0703 36.5496 39.46 38.5024C37.5847 40.7707 34.9492 41.4166 32.2387 41.6069C24.8473 42.1276 17.4459 42.1277 10.0545 41.6269C6.43377 41.3816 3.12814 40.32 1.44783 36.6898C0.477643 34.5968 0.242599 32.3035 0.182588 30.0252C0.00255387 23.3506 -0.17748 16.671 0.342618 10.0014C0.622671 6.39116 1.67787 3.10142 5.31856 1.42901C7.37895 0.48265 9.63937 0.247312 11.8798 0.187225C18.6561 0.00696535 25.4374 -0.188316 32.2036 0.35747C35.8343 0.652896 39.1049 1.78453 40.7052 5.44981C41.6254 7.55785 41.8455 9.85115 41.8905 12.1344C41.9505 15.1187 41.9055 18.108 41.9055 21.0923ZM34.049 12.7653C32.8688 12.7653 31.7886 12.8154 30.7134 12.7503C29.8982 12.7003 29.5181 12.9306 29.1981 13.7568C28.2079 16.3054 26.5926 18.3534 23.9521 19.4099C23.272 19.6803 22.8419 19.6052 22.8869 18.7039C22.9369 17.7926 22.8969 16.8763 22.8969 15.965C22.8969 12.7453 22.8969 12.7854 19.6613 12.7453C18.6961 12.7353 18.381 12.9756 18.401 13.9721C18.461 17.2518 18.401 20.5315 18.436 23.8113C18.446 24.7376 18.201 24.9128 17.3708 24.4772C16.2906 23.9064 15.3655 23.1854 14.6253 22.1989C13.3001 20.4264 12.69 18.4035 12.2299 16.2704C11.9798 15.1187 12.5799 13.5014 11.5797 12.9206C10.6746 12.3948 9.2293 12.8204 8.02907 12.7553C7.32894 12.7153 7.1089 12.9005 7.16891 13.6316C7.29893 15.2439 7.45896 16.8462 7.80403 18.4285C9.39433 25.6539 14.6653 30.0753 21.8217 30.2205C22.5918 30.2355 22.9519 30.0803 22.9119 29.214C22.8469 27.8871 22.9669 26.5552 22.8719 25.2283C22.7869 24.0366 23.2519 23.9414 24.2321 24.2419C26.2225 24.8478 28.1329 25.8542 28.848 27.7369C29.8582 30.3857 31.7236 30.4158 33.909 30.2105C34.034 30.2005 34.159 30.1955 34.284 30.2105C34.9042 30.2756 35.1142 30.0753 34.8791 29.4394C34.339 27.9973 33.6589 26.6403 32.7137 25.4086C31.4635 23.7912 29.9082 22.5394 28.0379 21.4879C31.1384 19.2747 33.3088 16.5758 34.049 12.7653Z" fill="#FEFEFE"/>
</svg>
