<?xml version="1.0" encoding="UTF-8" standalone="no"?>
<svg
   xmlns:dc="http://purl.org/dc/elements/1.1/"
   xmlns:cc="http://creativecommons.org/ns#"
   xmlns:rdf="http://www.w3.org/1999/02/22-rdf-syntax-ns#"
   xmlns:svg="http://www.w3.org/2000/svg"
   xmlns="http://www.w3.org/2000/svg"
   xmlns:sodipodi="http://sodipodi.sourceforge.net/DTD/sodipodi-0.dtd"
   xmlns:inkscape="http://www.inkscape.org/namespaces/inkscape"
   width="100"
   height="100"
   viewBox="0 0 100 100"
   fill="none"
   version="1.1"
   id="svg11"
   sodipodi:docname="vk.svg"
   inkscape:version="1.0.1 (3bc2e813f5, 2020-09-07)">
  <metadata
     id="metadata15">
    <rdf:RDF>
      <cc:Work
         rdf:about="">
        <dc:format>image/svg+xml</dc:format>
        <dc:type
           rdf:resource="http://purl.org/dc/dcmitype/StillImage" />
        <dc:title></dc:title>
      </cc:Work>
    </rdf:RDF>
  </metadata>
  <sodipodi:namedview
     pagecolor="#ffffff"
     bordercolor="#666666"
     borderopacity="1"
     objecttolerance="10"
     gridtolerance="10"
     guidetolerance="10"
     inkscape:pageopacity="0"
     inkscape:pageshadow="2"
     inkscape:window-width="1920"
     inkscape:window-height="1009"
     id="namedview13"
     showgrid="false"
     fit-margin-top="0"
     fit-margin-left="0"
     fit-margin-right="0"
     fit-margin-bottom="0"
     inkscape:zoom="8.42"
     inkscape:cx="50"
     inkscape:cy="45.249406"
     inkscape:window-x="-8"
     inkscape:window-y="-8"
     inkscape:window-maximized="1"
     inkscape:current-layer="svg11" />
  <g
     clip-path="url(#clip0_2_2)"
     id="g4"
     transform="translate(-0.5)">
    <path
       fill-rule="evenodd"
       clip-rule="evenodd"
       d="M 7.52944,7.02944 C 0.5,14.0589 0.5,25.3726 0.5,48 v 4 c 0,22.6274 0,33.9411 7.02944,40.9706 C 14.5589,100 25.8726,100 48.5,100 h 4 c 22.6274,0 33.9411,0 40.9706,-7.0294 C 100.5,85.9411 100.5,74.6274 100.5,52 v -4 c 0,-22.6274 0,-33.9411 -7.0294,-40.97056 C 86.4411,0 75.1274,0 52.5,0 h -4 C 25.8726,0 14.5589,0 7.52944,7.02944 Z M 17.3752,30.4169 c 0.5416,26 13.5415,41.6249 36.3332,41.6249 h 1.2919 v -14.875 c 8.375,0.8333 14.7079,6.9584 17.2495,14.875 H 84.0835 C 80.8335,60.2085 72.2914,53.6668 66.9581,51.1668 72.2914,48.0835 79.7915,40.5835 81.5831,30.4169 H 70.8328 c -2.3333,8.25 -9.2492,15.7499 -15.8325,16.4582 V 30.4169 H 44.2499 V 59.2501 C 37.5833,57.5835 29.1668,49.5002 28.7918,30.4169 Z"
       fill="#ffffff"
       id="path2" />
  </g>
  <defs
     id="defs9">
    <clipPath
       id="clip0_2_2">
      <rect
         width="100"
         height="100"
         fill="#ffffff"
         transform="translate(0.5)"
         id="rect6"
         x="0"
         y="0" />
    </clipPath>
  </defs>
</svg>
