<svg width="12" height="6" viewBox="0 0 12 6" fill="none" xmlns="http://www.w3.org/2000/svg">
<path d="M12 2.57632L11.5 2.57632L1.707 2.57061L3.853 0.727686C3.94408 0.646703 3.99448 0.538238 3.99334 0.425655C3.9922 0.313071 3.93961 0.205376 3.84691 0.125764C3.75421 0.046152 3.6288 0.00099405 3.4977 1.60462e-05C3.3666 -0.000962434 3.2403 0.0423172 3.146 0.120533L0.146 2.69685C0.0997349 2.73635 0.0630175 2.78332 0.0379616 2.83505C0.0129057 2.88678 5.31994e-06 2.94226 5.46264e-07 2.99828L5.46102e-07 3C5.40821e-07 3.05582 0.0130001 3.11164 0.0390001 3.16403C0.0639205 3.21608 0.100631 3.26337 0.147001 3.30315L3.147 5.87947C3.2413 5.95768 3.3676 6.00096 3.4987 5.99998C3.6298 5.99901 3.75521 5.95385 3.84791 5.87424C3.94061 5.79462 3.9932 5.68693 3.99434 5.57434C3.99548 5.46176 3.94508 5.3533 3.854 5.27231L1.707 3.42939L11.5 3.43509L12 3.43509L12 2.57632Z" fill="#63BAFF"/>
</svg>
