<svg width="18" height="30" viewBox="0 0 18 30" fill="none" xmlns="http://www.w3.org/2000/svg">
<path d="M7.72896 0L7.72896 1.25L7.71184 25.7325L2.18306 20.3675C1.94011 20.1398 1.61472 20.0138 1.27697 20.0167C0.939214 20.0195 0.616128 20.151 0.377292 20.3827C0.138457 20.6145 0.00298406 20.928 4.86336e-05 21.2557C-0.00288488 21.5835 0.126954 21.8992 0.361602 22.135L8.09056 29.635C8.20906 29.7507 8.34996 29.8425 8.50515 29.9051C8.66035 29.9677 8.82677 30 8.99485 30L9 30C9.16746 30 9.33492 29.9675 9.49208 29.9025C9.64825 29.8402 9.79011 29.7484 9.90944 29.6325L17.6384 22.1325C17.873 21.8967 18.0029 21.581 18 21.2533C17.997 20.9255 17.8615 20.612 17.6227 20.3802C17.3839 20.1485 17.0608 20.017 16.723 20.0142C16.3853 20.0113 16.0599 20.1373 15.8169 20.365L10.2882 25.7325L10.3053 1.25L10.3053 0L7.72896 0Z" fill="#63BAFF"/>
</svg>
