<svg width="387" height="117" viewBox="0 0 387 117" fill="none" xmlns="http://www.w3.org/2000/svg">
<path d="M0 0.693713H16.996C23.2856 0.693713 27.9104 2.10426 30.8703 4.92536C33.8763 7.70022 35.3794 11.6313 35.3794 16.7185C35.3794 21.7595 33.8532 25.7136 30.8009 28.581C27.7485 31.4483 23.1469 32.882 16.996 32.882H8.32456V49.2536H0V0.693713ZM8.32456 8.32456V25.2512H16.6491C20.2102 25.2512 22.7538 24.5343 24.28 23.1007C25.8524 21.667 26.6386 19.5396 26.6386 16.7185C26.6386 14.0824 25.8293 12.0244 24.2106 10.5444C22.5919 9.06452 20.0714 8.32456 16.6491 8.32456H8.32456Z" fill="white"/>
<path d="M50.6438 0.693713H60.3558L77.6986 49.2536H68.8191L64.7955 37.1137H45.7184L41.6255 49.2536H33.301L50.6438 0.693713ZM62.2982 29.4828L55.4304 8.67142H55.2917L48.2852 29.4828H62.2982Z" fill="white"/>
<path d="M97.1145 49.9474C91.241 49.9474 86.8012 48.5137 83.7952 45.6463C80.7891 42.7327 79.101 38.6167 78.7311 33.2982H87.4718C87.8418 36.3506 88.7668 38.6167 90.2467 40.0966C91.7729 41.5765 94.0621 42.3165 97.1145 42.3165C100.167 42.3165 102.41 41.669 103.843 40.3741C105.323 39.0329 106.063 37.2524 106.063 35.0325C106.063 32.9051 105.323 31.194 103.843 29.899C102.41 28.6041 100.167 27.9566 97.1145 27.9566H91.2179V20.6033H97.1145C99.8893 20.6033 101.901 20.0483 103.15 18.9384C104.398 17.7822 105.023 16.2098 105.023 14.2211C105.023 12.14 104.398 10.5213 103.15 9.36513C101.901 8.20894 99.8893 7.63085 97.1145 7.63085C94.3396 7.63085 92.3047 8.27831 91.0098 9.57324C89.7149 10.8682 88.8824 12.9956 88.5124 15.9554H79.7716C80.1416 10.8219 81.7603 6.89089 84.6276 4.16228C87.495 1.38743 91.6572 0 97.1145 0C99.8431 0 102.248 0.346856 104.329 1.04057C106.41 1.68803 108.144 2.63611 109.532 3.88479C110.919 5.08723 111.96 6.52091 112.654 8.18582C113.394 9.80448 113.764 11.585 113.764 13.5274C113.764 18.2909 111.798 21.8057 107.867 24.0719V24.2106C112.492 26.6617 114.804 30.5003 114.804 35.7262C114.804 37.7611 114.434 39.6573 113.694 41.4147C112.954 43.1258 111.821 44.6289 110.295 45.9238C108.815 47.1725 106.965 48.1668 104.745 48.9068C102.572 49.6005 100.028 49.9474 97.1145 49.9474Z" fill="white"/>
<path d="M122.416 0.693713H152.246V8.32456H130.741V49.2536H122.416V0.693713Z" fill="white"/>
<path d="M175.789 49.9474C172.505 49.9474 169.545 49.4386 166.909 48.4212C164.273 47.3575 162.007 45.8313 160.111 43.8427C158.261 41.8078 156.827 39.3104 155.81 36.3506C154.792 33.3445 154.283 29.9222 154.283 26.0836V23.17C154.283 19.5165 154.792 16.256 155.81 13.3887C156.827 10.5213 158.261 8.09332 160.111 6.10468C162.007 4.11603 164.273 2.61299 166.909 1.59554C169.591 0.531847 172.551 0 175.789 0C179.026 0 181.963 0.531847 184.599 1.59554C187.281 2.61299 189.547 4.11603 191.397 6.10468C193.293 8.04707 194.75 10.4751 195.768 13.3887C196.785 16.256 197.294 19.5165 197.294 23.17V26.0836C197.294 29.9222 196.785 33.3214 195.768 36.2812C194.75 39.241 193.293 41.7384 191.397 43.7733C189.547 45.8082 187.281 47.3575 184.599 48.4212C181.963 49.4386 179.026 49.9474 175.789 49.9474ZM175.789 42.3165C179.627 42.3165 182.703 41.0216 185.015 38.4317C187.374 35.8419 188.553 31.7258 188.553 26.0836V23.17C188.553 17.9903 187.374 14.1055 185.015 11.5156C182.656 8.92578 179.581 7.63085 175.789 7.63085C171.904 7.63085 168.805 8.90265 166.493 11.4463C164.18 13.9899 163.024 17.8978 163.024 23.17V26.0836C163.024 31.6333 164.18 35.7262 166.493 38.3623C168.851 40.9985 171.95 42.3165 175.789 42.3165Z" fill="white"/>
<path d="M205.269 0.693713H221.918C228.161 0.693713 232.601 1.8499 235.237 4.16228C237.919 6.47466 239.261 9.71199 239.261 13.8743C239.261 18.3603 237.203 21.7132 233.087 23.9331V24.0719C238.128 26.1992 240.648 29.9222 240.648 35.2406C240.648 39.8191 239.307 43.3108 236.625 45.7157C233.988 48.0743 229.549 49.2536 223.305 49.2536H205.269V0.693713ZM213.593 8.32456V20.8114H221.571C224.947 20.8114 227.283 20.2796 228.577 19.2159C229.872 18.1522 230.52 16.6029 230.52 14.568C230.52 12.5331 229.872 10.9838 228.577 9.9201C227.283 8.85641 224.947 8.32456 221.571 8.32456H213.593ZM213.593 27.7485V41.6228H222.958C226.334 41.6228 228.67 41.0678 229.965 39.9579C231.26 38.8017 231.907 37.0443 231.907 34.6857C231.907 32.327 231.26 30.5928 229.965 29.4828C228.67 28.3266 226.334 27.7485 222.958 27.7485H213.593Z" fill="white"/>
<path d="M268.058 49.9474C264.774 49.9474 261.814 49.4386 259.178 48.4212C256.542 47.3575 254.276 45.8313 252.38 43.8427C250.53 41.8078 249.096 39.3104 248.079 36.3506C247.062 33.3445 246.553 29.9222 246.553 26.0836V23.17C246.553 19.5165 247.062 16.256 248.079 13.3887C249.096 10.5213 250.53 8.09332 252.38 6.10468C254.276 4.11603 256.542 2.61299 259.178 1.59554C261.861 0.531847 264.821 0 268.058 0C271.295 0 274.232 0.531847 276.868 1.59554C279.55 2.61299 281.817 4.11603 283.666 6.10468C285.563 8.04707 287.019 10.4751 288.037 13.3887C289.054 16.256 289.563 19.5165 289.563 23.17V26.0836C289.563 29.9222 289.054 33.3214 288.037 36.2812C287.019 39.241 285.563 41.7384 283.666 43.7733C281.817 45.8082 279.55 47.3575 276.868 48.4212C274.232 49.4386 271.295 49.9474 268.058 49.9474ZM268.058 42.3165C271.896 42.3165 274.972 41.0216 277.284 38.4317C279.643 35.8419 280.822 31.7258 280.822 26.0836V23.17C280.822 17.9903 279.643 14.1055 277.284 11.5156C274.926 8.92578 271.85 7.63085 268.058 7.63085C264.173 7.63085 261.075 8.90265 258.762 11.4463C256.45 13.9899 255.294 17.8978 255.294 23.17V26.0836C255.294 31.6333 256.45 35.7262 258.762 38.3623C261.121 40.9985 264.219 42.3165 268.058 42.3165Z" fill="white"/>
<path d="M297.538 0.693713H314.534C320.824 0.693713 325.448 2.10426 328.408 4.92536C331.414 7.70022 332.917 11.6313 332.917 16.7185C332.917 21.7595 331.391 25.7136 328.339 28.581C325.287 31.4483 320.685 32.882 314.534 32.882H305.863V49.2536H297.538V0.693713ZM305.863 8.32456V25.2512H314.187C317.748 25.2512 320.292 24.5343 321.818 23.1007C323.39 21.667 324.177 19.5396 324.177 16.7185C324.177 14.0824 323.367 12.0244 321.749 10.5444C320.13 9.06452 317.609 8.32456 314.187 8.32456H305.863Z" fill="white"/>
<path d="M378.675 0.693713H387V49.2536H378.675V0.693713ZM339.134 0.693713H347.458V17.0653H355.089C361.194 17.0653 365.772 18.5221 368.825 21.4357C371.923 24.3031 373.473 28.2341 373.473 33.2289C373.473 38.3161 371.969 42.2703 368.963 45.0914C366.004 47.8662 361.379 49.2536 355.089 49.2536H339.134V0.693713ZM354.742 41.6228C358.165 41.6228 360.685 40.8828 362.304 39.4029C363.922 37.923 364.732 35.865 364.732 33.2289C364.732 30.454 363.922 28.3497 362.304 26.9161C360.731 25.4362 358.211 24.6962 354.742 24.6962H347.458V41.6228H354.742Z" fill="white"/>
<path d="M21.5051 116.746C18.2215 116.746 15.2617 116.238 12.6256 115.22C9.98947 114.157 7.72334 112.63 5.82719 110.642C3.97729 108.607 2.54362 106.11 1.52617 103.15C0.508723 100.144 0 96.7213 0 92.8827V89.9691C0 86.3156 0.508723 83.0551 1.52617 80.1878C2.54362 77.3204 3.97729 74.8924 5.82719 72.9038C7.72334 70.9151 9.98947 69.4121 12.6256 68.3946C15.3079 67.3309 18.2678 66.7991 21.5051 66.7991C24.7424 66.7991 27.6792 67.3309 30.3153 68.3946C32.9976 69.4121 35.2638 70.9151 37.1137 72.9038C39.0098 74.8462 40.4666 77.2742 41.4841 80.1878C42.5015 83.0551 43.0102 86.3156 43.0102 89.9691V92.8827C43.0102 96.7213 42.5015 100.12 41.4841 103.08C40.4666 106.04 39.0098 108.538 37.1137 110.572C35.2638 112.607 32.9976 114.157 30.3153 115.22C27.6792 116.238 24.7424 116.746 21.5051 116.746ZM21.5051 109.116C25.3437 109.116 28.4191 107.821 30.7315 105.231C33.0901 102.641 34.2694 98.5249 34.2694 92.8827V89.9691C34.2694 84.7894 33.0901 80.9046 30.7315 78.3147C28.3729 75.7249 25.2974 74.4299 21.5051 74.4299C17.6203 74.4299 14.5217 75.7017 12.2094 78.2454C9.89698 80.789 8.74079 84.6969 8.74079 89.9691V92.8827C8.74079 98.4324 9.89698 102.525 12.2094 105.161C14.568 107.798 17.6666 109.116 21.5051 109.116Z" fill="white"/>
<path d="M68.3281 67.4928H84.9772C91.2206 67.4928 95.6604 68.649 98.2965 70.9614C100.979 73.2737 102.32 76.5111 102.32 80.6734C102.32 85.1594 100.262 88.5123 96.146 90.7322V90.8709C101.187 92.9983 103.707 96.7213 103.707 102.04C103.707 106.618 102.366 110.11 99.6839 112.515C97.0478 114.873 92.608 116.053 86.3646 116.053H68.3281V67.4928ZM76.6526 75.1236V87.6105H84.6303C88.0064 87.6105 90.3419 87.0786 91.6368 86.0149C92.9318 84.9513 93.5792 83.402 93.5792 81.3671C93.5792 79.3322 92.9318 77.7829 91.6368 76.7192C90.3419 75.6555 88.0064 75.1236 84.6303 75.1236H76.6526ZM76.6526 94.5476V108.422H86.0177C89.3938 108.422 91.7293 107.867 93.0243 106.757C94.3192 105.601 94.9666 103.843 94.9666 101.485C94.9666 99.1261 94.3192 97.3918 93.0243 96.2819C91.7293 95.1257 89.3938 94.5476 86.0177 94.5476H76.6526Z" fill="white"/>
<path d="M123.85 67.4928H133.562L150.904 116.053H142.025L138.001 103.913H118.924L114.831 116.053H106.507L123.85 67.4928ZM135.504 96.2819L128.636 75.4705H128.497L121.491 96.2819H135.504Z" fill="white"/>
<path d="M168.311 91.0097L154.367 67.4928H163.802L175.179 87.4024H180.035V67.4928H188.359V87.4024H193.215L204.731 67.4928H214.027L200.083 90.7322L215.067 116.053H205.355L193.215 94.7557H188.359V116.053H180.035V94.7557H175.179L162.9 116.053H153.327L168.311 91.0097Z" fill="white"/>
<path d="M220.959 67.4928H229.283V87.2636H252.176V67.4928H260.5V116.053H252.176V94.8945H229.283V116.053H220.959V67.4928Z" fill="white"/>
<path d="M289.98 116.746C286.697 116.746 283.737 116.238 281.101 115.22C278.465 114.157 276.199 112.63 274.302 110.642C272.452 108.607 271.019 106.11 270.001 103.15C268.984 100.144 268.475 96.7213 268.475 92.8827V89.9691C268.475 86.3156 268.984 83.0551 270.001 80.1878C271.019 77.3204 272.452 74.8924 274.302 72.9038C276.199 70.9151 278.465 69.4121 281.101 68.3946C283.783 67.3309 286.743 66.7991 289.98 66.7991C293.218 66.7991 296.154 67.3309 298.79 68.3946C301.473 69.4121 303.739 70.9151 305.589 72.9038C307.485 74.8462 308.942 77.2742 309.959 80.1878C310.977 83.0551 311.485 86.3156 311.485 89.9691V92.8827C311.485 96.7213 310.977 100.12 309.959 103.08C308.942 106.04 307.485 108.538 305.589 110.572C303.739 112.607 301.473 114.157 298.79 115.22C296.154 116.238 293.218 116.746 289.98 116.746ZM289.98 109.116C293.819 109.116 296.894 107.821 299.207 105.231C301.565 102.641 302.745 98.5249 302.745 92.8827V89.9691C302.745 84.7894 301.565 80.9046 299.207 78.3147C296.848 75.7249 293.773 74.4299 289.98 74.4299C286.096 74.4299 282.997 75.7017 280.685 78.2454C278.372 80.789 277.216 84.6969 277.216 89.9691V92.8827C277.216 98.4324 278.372 102.525 280.685 105.161C283.043 107.798 286.142 109.116 289.98 109.116Z" fill="white"/>
<path d="M319.46 67.4928H332.086L342.908 94.4089H343.047L353.869 67.4928H365.939V116.053H357.615V76.8579H357.476L346.862 103.219H338.538L327.924 76.8579H327.785V116.053H319.46V67.4928Z" fill="white"/>
</svg>
