<?xml version="1.0" encoding="UTF-8" standalone="no"?>
<svg
   xmlns:dc="http://purl.org/dc/elements/1.1/"
   xmlns:cc="http://creativecommons.org/ns#"
   xmlns:rdf="http://www.w3.org/1999/02/22-rdf-syntax-ns#"
   xmlns:svg="http://www.w3.org/2000/svg"
   xmlns="http://www.w3.org/2000/svg"
   xmlns:sodipodi="http://sodipodi.sourceforge.net/DTD/sodipodi-0.dtd"
   xmlns:inkscape="http://www.inkscape.org/namespaces/inkscape"
   version="1.1"
   id="Слой_1"
   x="0px"
   y="0px"
   viewBox="0 0 142.05723 46.123135"
   xml:space="preserve"
   sodipodi:docname="logo-white.svg"
   inkscape:version="1.0.1 (3bc2e813f5, 2020-09-07)"
   width="142.05724"
   height="46.123135"><metadata
   id="metadata239"><rdf:RDF><cc:Work
       rdf:about=""><dc:format>image/svg+xml</dc:format><dc:type
         rdf:resource="http://purl.org/dc/dcmitype/StillImage" /><dc:title></dc:title></cc:Work></rdf:RDF></metadata><defs
   id="defs237" /><sodipodi:namedview
   pagecolor="#ffffff"
   bordercolor="#666666"
   borderopacity="1"
   objecttolerance="10"
   gridtolerance="10"
   guidetolerance="10"
   inkscape:pageopacity="0"
   inkscape:pageshadow="2"
   inkscape:window-width="1904"
   inkscape:window-height="940"
   id="namedview235"
   showgrid="false"
   inkscape:zoom="2.9764356"
   inkscape:cx="15.336672"
   inkscape:cy="-46.225586"
   inkscape:window-x="0"
   inkscape:window-y="0"
   inkscape:window-maximized="0"
   inkscape:current-layer="g230"
   inkscape:document-rotation="0"
   fit-margin-top="0"
   fit-margin-left="0"
   fit-margin-right="0"
   fit-margin-bottom="0" />
<style
   type="text/css"
   id="style2">
	.st0{display:none;fill:#C12A21;}
	.st1{display:none;}
	.st2{display:inline;fill:#302E2B;}
	.st3{fill:#C12A21;}
	.st4{fill:#302E2B;}
</style>
<path
   class="st0"
   d="m -124.54277,-76.475584 c -0.2,-1.8 -2.1,-3 -3.9,-2.5 l -63.3,14.1 c -0.3,-0.1 -0.7,-0.2 -1,-0.2 l -48.1,-0.8 -18.2,-49.000006 c -0.7,-1.8 -3,-2.7 -4.8,-1.8 -0.1,0.1 -0.2,0.2 -0.3,0.3 l -25.7,12 c -1.6,0.7 -2.3,2.7 -1.6,4.3 0.7,1.100006 1.8,1.800006 3,1.800006 0.7,0 1.1,-0.2 1.6,-0.2 l 12.8,-6.000006 14,52.200006 -27.4,7 c -1,0.3 -1.8,1.1 -2.1,2 -0.6,1.1 -0.5,2.5 0.3,3.4 l 19.4,25.4 -10.9,34.6 c -0.7,1.6 0.2,3.7 2.1,4.1 0.2,0.2 0.7,0.2 0.9,0.2 1.4,0 2.7,-0.7 3.2,-2.3 l 9.6,-30.3999993 5.7,7.49999998 c 0.7,0.9 1.8,1.4 2.7,1.4 0.7,0 1.4,-0.2 1.8,-0.5 1.6,-1.1 1.8,-3.19999998 0.7,-4.59999998 l -8.6,-11.4000007 9.2,-29.3 45,6.2 21.1,58.9 c 0.5,1.4 1.8,2.3 3.2,2.3 0.5,0 0.9,0 1.4,-0.2 1.4,-0.9 1.8,-2.7 1.4,-4.3 l -20.2,-55.3 9.3,1.3 22.7,58 c 0.5,1.1 1.6,2.1 3,2.1 0.2,0 0.7,0 1.1,-0.2 1.6,-0.7 2.5,-2.7 1.8,-4.3 l -22.8,-58.8 2.2,-20.3 57.2,-12.7 c 1.8,-0.4 3,-2.2 2.5,-4 z m -139.5,-32.800006 15.8,43.200006 -8.8,-0.1 -11,-41.200006 z m 8.8,49.800006 9.4,0.2 3.5,9.6 -10.7,-1.5 z m -26.1,19.7 21,-5.5 -7.4,23.5 z m 73.7,-15 c -0.5,-1.8 -2.7,-2.7 -4.6,-1.8 -1.4,0.9 -1.8,2.7 -1.4,4.3 l 2.5,6.8 -24.9,-3.4 c 0.6,-0.9 0.7,-2.1 0.3,-3.2 l -2.7,-7.2 45.6,0.8 c 0.3,0 0.6,0 0.8,-0.1 0.3,0.1 0.5,0.1 0.8,0.1 0.1,0 0.1,0 0.2,0 l -1.7,15.4 c -0.1,0.1 -0.1,0.1 -0.2,0.2 l -11.1,-1.5 z"
   id="path4" />
<g
   class="st1"
   id="g144"
   transform="translate(-291.54277,-117.07559)">
	<path
   class="st2"
   d="m 210.4,47.7 h 2.1 v 8.5 l 5.9,-8.5 h 1.8 v 11.6 h -2.1 v -8.5 l -5.9,8.2 h -1.8 z"
   id="path6" />
	<path
   class="st2"
   d="m 223.2,47.7 h 2.1 v 4.8 h 5.5 v -4.8 h 2.1 v 11.6 h -2.1 v -4.8 h -5.5 v 4.8 h -2.1 z"
   id="path8" />
	<path
   class="st2"
   d="m 235.1,53.4 c 0,-3.2 2.5,-5.9 5.9,-5.9 2.1,0 3.4,0.7 4.6,1.8 l -1.4,1.6 c -0.9,-0.9 -1.8,-1.4 -3.2,-1.4 -2.3,0 -3.9,1.8 -3.9,4.1 0,2.3 1.6,4.1 3.9,4.1 1.4,0 2.3,-0.7 3.4,-1.6 l 1.4,1.4 c -1.1,1.1 -2.5,2.1 -4.6,2.1 -3.6,-0.3 -6.1,-3 -6.1,-6.2 z"
   id="path10" />
	<path
   class="st2"
   d="M 250.6,49.5 H 247 v -1.8 h 9.4 v 1.8 h -3.7 v 9.6 h -2.1 z"
   id="path12" />
	<path
   class="st2"
   d="m 258.6,47.7 h 2.1 v 8.5 l 5.9,-8.5 h 1.8 v 11.6 h -2.1 v -8.5 l -5.7,8.5 h -1.8 z"
   id="path14" />
	<path
   class="st2"
   d="m 274.1,49.5 h -3.7 v -1.8 h 9.4 v 1.8 h -3.7 v 9.6 H 274 v -9.6 z"
   id="path16" />
	<path
   class="st2"
   d="m 281.7,58.6 0.7,-1.6 c 0.5,0.2 0.9,0.5 1.4,0.5 0.5,0 1.1,-0.2 1.8,-1.1 l -4.8,-8.7 h 2.3 l 3.7,6.6 3.2,-6.6 h 2.3 l -4.6,8.9 c -0.9,2.1 -2.1,2.7 -3.7,2.7 -1,0 -1.6,-0.2 -2.3,-0.7 z"
   id="path18" />
	<path
   class="st2"
   d="M 296.7,49.5 H 293 v -1.8 h 9.4 v 1.8 h -3.7 v 9.6 h -2.1 v -9.6 z"
   id="path20" />
	<path
   class="st2"
   d="m 309.5,47.7 h 2.1 v 8.5 l 5.9,-8.5 h 1.8 v 11.6 h -2.1 v -8.5 l -5.7,8.5 h -1.8 z"
   id="path22" />
	<path
   class="st2"
   d="m 330.3,50.4 c 0,1.4 -0.9,2.3 -2.1,2.7 1.4,0.5 2.3,1.4 2.3,2.7 0,1.8 -1.6,3.4 -4.3,3.4 -2.3,0 -3.7,-0.7 -5,-1.8 l 1.1,-1.4 c 1.1,0.9 2.3,1.6 3.9,1.6 1.1,0 2.3,-0.7 2.3,-1.8 0,-1.1 -1.1,-1.6 -2.7,-1.6 h -1.4 v -1.8 h 1.4 c 1.4,0 2.3,-0.7 2.3,-1.6 0,-0.9 -0.9,-1.6 -2.3,-1.6 -1.4,0 -2.3,0.5 -3.2,1.4 l -1.1,-1.4 c 1.1,-1.1 2.5,-1.8 4.3,-1.8 2.9,0 4.5,1.2 4.5,3 z"
   id="path24" />
	<path
   class="st2"
   d="m 332.8,58.6 0.7,-1.6 c 0.5,0.2 0.9,0.5 1.4,0.5 0.5,0 1.1,-0.2 1.8,-1.1 l -4.8,-8.7 h 2.3 l 3.7,6.6 3.2,-6.6 h 2.3 l -4.6,8.9 c -0.9,2.1 -2.1,2.7 -3.7,2.7 -0.9,0 -1.6,-0.2 -2.3,-0.7 z"
   id="path26" />
	<path
   class="st2"
   d="m 351.8,54.5 c -0.9,0.5 -2.1,0.9 -3.2,0.9 -2.3,0 -3.9,-1.1 -3.9,-3.7 v -4.3 h 2.1 v 3.7 c 0,1.4 0.7,2.3 2.1,2.3 1.1,0 2.3,-0.5 3,-0.9 v -5.3 h 2.1 v 11.6 h -2.1 v -4.3 z"
   id="path28" />
	<path
   class="st2"
   d="m 356.8,47.7 h 8.5 v 1.8 h -6.6 v 3 h 5.7 v 1.8 h -5.7 v 3.2 h 6.6 v 1.8 h -8.7 V 47.7 Z"
   id="path30" />
	<path
   class="st2"
   d="m 368,47.7 h 2.1 v 4.8 h 5.5 v -4.8 h 2.1 v 11.6 h -2.1 v -4.8 h -5.5 v 4.8 H 368 Z"
   id="path32" />
	<path
   class="st2"
   d="m 380.6,47.7 h 2.1 v 8.5 l 5.9,-8.5 h 1.8 v 11.6 h -2.3 v -8.5 l -5.7,8.5 h -1.8 z"
   id="path34" />
	<path
   class="st2"
   d="m 395.4,54.7 c -1.6,-0.5 -2.7,-1.6 -2.7,-3.4 0,-2.3 1.6,-3.7 4.3,-3.7 h 5 v 11.6 h -2 v -3.9 h -2.5 l -3,3.9 h -2.3 z m 4.8,-1.3 v -3.9 h -3 c -1.6,0 -2.5,0.7 -2.5,2.1 0,1.1 0.9,2.1 2.3,2.1 z"
   id="path36" />
	<path
   class="st2"
   d="m 408.7,57.2 h 1.1 c 0.9,-1.8 1.4,-4.3 1.4,-8 v -1.6 h 8 v 9.8 h 1.4 l -0.2,4.3 h -1.6 v -2.5 h -8.2 l -0.2,2.5 h -1.6 v -4.5 z m 8.6,0 v -8 h -4.1 v 1.4 c 0,2.7 -0.5,5 -1.1,6.6 z"
   id="path38" />
	<path
   class="st2"
   d="m 422.6,47.7 h 8.5 v 1.8 h -6.4 v 3 h 5.7 v 1.8 h -5.7 v 3.2 h 6.6 v 1.8 h -8.7 z"
   id="path40" />
	<path
   class="st2"
   d="m 436.5,49.5 h -3.7 v -1.8 h 9.4 v 1.8 h -3.7 v 9.6 h -2.1 v -9.6 z"
   id="path42" />
	<path
   class="st2"
   d="m 442.9,53.4 c 0,-3.2 2.5,-5.9 5.9,-5.9 2.1,0 3.4,0.7 4.6,1.8 l -1.4,1.6 c -0.9,-0.9 -1.8,-1.4 -3.2,-1.4 -2.3,0 -3.9,1.8 -3.9,4.1 0,2.3 1.6,4.1 3.9,4.1 1.4,0 2.3,-0.7 3.4,-1.6 l 1.4,1.4 c -1.1,1.1 -2.5,2.1 -4.6,2.1 -3.6,-0.3 -6.1,-3 -6.1,-6.2 z"
   id="path44" />
	<path
   class="st2"
   d="m 458.4,49.5 h -3.7 v -1.8 h 9.4 v 1.8 h -3.7 v 9.6 h -2.1 v -9.6 z"
   id="path46" />
	<path
   class="st2"
   d="m 466.4,47.7 h 5.3 c 1.4,0 2.3,0.5 3,0.9 0.5,0.5 0.7,1.1 0.7,2.1 0,1.4 -0.7,2.1 -1.6,2.5 1.4,0.5 2.3,1.1 2.3,2.7 0,2.1 -1.6,3.2 -4.3,3.2 h -5.3 z m 4.8,4.8 c 1.4,0 2.3,-0.5 2.3,-1.6 0,-0.9 -0.7,-1.4 -2.1,-1.4 h -3 v 3 z m 0.5,4.7 c 1.4,0 2.3,-0.5 2.3,-1.6 0,-0.9 -0.7,-1.6 -2.3,-1.6 h -3.2 v 3.2 c 0,0 3.2,0 3.2,0 z"
   id="path48" />
	<path
   class="st2"
   d="m 482,47.4 h 1.8 l 5,11.6 h -2.1 l -1.1,-2.7 h -5.5 L 479,59 h -2.1 z m 2.9,7.1 -2.1,-4.6 -2.1,4.6 z"
   id="path50" />
	<path
   class="st2"
   d="m 490.2,60.7 c 0.9,-0.2 1.4,-0.7 1.4,-1.4 0,0 0,0 0,-0.2 h -0.9 v -2.3 h 2.3 v 1.8 c 0,1.8 -0.9,2.5 -2.5,2.7 z"
   id="path52" />
	<path
   class="st2"
   d="m 210,78.9 c 0,-3.2 2.5,-5.9 5.9,-5.9 2.1,0 3.4,0.7 4.6,1.8 l -1.4,1.4 c -0.9,-0.9 -1.8,-1.4 -3.2,-1.4 -2.3,0 -3.9,1.8 -3.9,4.1 0,2.3 1.6,4.1 3.9,4.1 1.4,0 2.3,-0.7 3.4,-1.6 l 1.4,1.4 c -1.1,1.1 -2.5,2.1 -4.6,2.1 -3.6,0 -6.1,-2.5 -6.1,-6 z"
   id="path54" />
	<path
   class="st2"
   d="M 222.5,73.2 H 231 V 75 h -6.6 v 3 h 5.7 v 1.8 h -5.7 V 83 h 6.6 v 1.8 h -8.7 V 73.2 c 0,0 0.2,0 0.2,0 z"
   id="path56" />
	<path
   class="st2"
   d="m 233.7,73.2 h 2.1 l 3.4,5.5 3.4,-5.5 h 2.1 v 11.6 h -2.1 v -8.2 l -3.7,5.5 v 0 l -3.7,-5.5 v 8.2 h -2.1 V 73.2 Z"
   id="path58" />
	<path
   class="st2"
   d="m 247.9,73.2 h 2.1 v 4.1 h 2.7 c 2.5,0 4.3,1.4 4.3,3.7 0,2.3 -1.6,3.9 -4.3,3.9 h -4.6 z m 4.5,9.6 c 1.6,0 2.3,-0.7 2.3,-2.1 0,-1.1 -0.9,-1.8 -2.5,-1.8 h -2.5 v 3.9 z"
   id="path60" />
	<path
   class="st2"
   d="m 259.1,73.2 h 2.1 v 8.5 l 5.9,-8.5 h 1.8 v 11.6 h -2.1 v -8.5 l -5.7,8.5 h -1.8 z"
   id="path62" />
	<path
   class="st2"
   d="m 276.6,73.2 h 2.1 v 8.5 l 5.9,-8.5 h 1.8 v 11.6 h -2.1 v -8.5 l -5.7,8.5 h -1.8 z"
   id="path64" />
	<path
   class="st2"
   d="m 294.5,73.2 h 5.3 c 1.4,0 2.3,0.5 3,0.9 0.5,0.5 0.7,1.1 0.7,2.1 0,1.4 -0.7,2.1 -1.6,2.5 1.4,0.5 2.3,1.1 2.3,2.7 0,2.1 -1.6,3.2 -4.3,3.2 h -5.3 V 73.2 Z m 4.8,4.8 c 1.4,0 2.3,-0.5 2.3,-1.6 0,-0.9 -0.7,-1.4 -2.1,-1.4 h -3 v 3 z m 0.4,5.1 c 1.4,0 2.3,-0.5 2.3,-1.6 0,-0.9 -0.7,-1.6 -2.3,-1.6 h -3.2 v 3.2 z"
   id="path66" />
	<path
   class="st2"
   d="m 305.9,78.9 c 0,-3.2 2.5,-5.9 5.9,-5.9 3.4,0 5.9,2.7 5.9,5.9 0,3.2 -2.5,5.9 -5.9,5.9 -3.4,0.1 -5.9,-2.4 -5.9,-5.9 z m 9.8,0 c 0,-2.3 -1.6,-4.1 -3.9,-4.1 -2.3,0 -3.9,1.8 -3.9,4.1 0,2.3 1.6,4.1 3.9,4.1 2.3,0.1 3.9,-1.8 3.9,-4.1 z"
   id="path68" />
	<path
   class="st2"
   d="m 319.8,78.9 c 0,-3.2 2.5,-5.9 5.9,-5.9 2.1,0 3.4,0.7 4.6,1.8 l -1.4,1.6 C 328,75.5 327.1,75 325.7,75 c -2.3,0 -3.9,1.8 -3.9,4.1 0,2.3 1.6,4.1 3.9,4.1 1.4,0 2.3,-0.7 3.4,-1.6 l 1.4,1.4 c -1.1,1.1 -2.5,2.1 -4.6,2.1 -3.6,-0.2 -6.1,-2.7 -6.1,-6.2 z"
   id="path70" />
	<path
   class="st2"
   d="m 332.6,73.2 h 9.4 v 11.6 h -2.1 V 75 h -5.3 v 9.8 h -2.1 z"
   id="path72" />
	<path
   class="st2"
   d="m 344.9,73.2 h 2.1 v 8.5 l 5.9,-8.5 h 1.8 v 11.6 h -2.1 v -8.5 l -5.7,8.5 h -1.8 V 73.2 Z"
   id="path74" />
	<path
   class="st2"
   d="m 360.5,75.1 h -3.7 v -1.8 h 9.4 v 1.8 h -3.7 v 9.6 h -2.1 v -9.6 z"
   id="path76" />
	<path
   class="st2"
   d="m 371,73.2 h 1.8 l 5,11.6 h -2.1 l -1.1,-2.7 h -5.5 l -1.1,2.7 h -2.1 z m 2.7,6.9 -2.1,-4.6 -2.1,4.6 z"
   id="path78" />
	<path
   class="st2"
   d="M 379.9,73.2 H 382 V 78 h 5.5 v -4.8 h 2.1 v 11.6 h -2.1 v -5 H 382 v 4.8 h -2.1 z"
   id="path80" />
	<path
   class="st2"
   d="m 392.4,73.2 h 2.1 v 8.5 l 5.9,-8.5 h 1.8 v 11.6 h -2.1 v -8.5 l -5.7,8.5 h -1.8 V 73.2 Z"
   id="path82" />
	<path
   class="st2"
   d="m 407.3,80.3 c -1.6,-0.5 -2.7,-1.6 -2.7,-3.4 0,-2.3 1.6,-3.7 4.3,-3.7 h 5 v 11.6 h -2.1 V 81 h -2.5 l -3,3.9 H 404 Z m 4.8,-1.4 V 75 h -3 c -1.6,0 -2.5,0.7 -2.5,2.1 0,1.1 0.9,2.1 2.3,2.1 h 3.2 z"
   id="path84" />
	<path
   class="st2"
   d="m 210.4,98.8 h 4.6 c 2.7,0 4.3,1.6 4.3,3.9 0,2.5 -2.1,3.9 -4.6,3.9 h -2.3 v 3.7 h -2.1 V 98.8 Z m 4.4,6.2 c 1.6,0 2.5,-0.9 2.5,-2.1 0,-1.4 -0.9,-2.1 -2.5,-2.1 h -2.3 v 4.1 h 2.3 z"
   id="path86" />
	<path
   class="st2"
   d="m 220.9,104.8 c 0,-3.2 2.5,-5.9 5.9,-5.9 3.4,0 5.9,2.7 5.9,5.9 0,3.2 -2.5,5.9 -5.9,5.9 -3.4,0 -5.9,-2.7 -5.9,-5.9 z m 9.8,0 c 0,-2.3 -1.6,-4.1 -3.9,-4.1 -2.3,0 -3.9,1.8 -3.9,4.1 0,2.3 1.6,4.1 3.9,4.1 2.3,0 3.9,-2.1 3.9,-4.1 z"
   id="path88" />
	<path
   class="st2"
   d="m 234.9,104.8 c 0,-3.2 2.5,-5.9 5.9,-5.9 2.1,0 3.4,0.7 4.6,1.8 l -1.4,1.6 c -0.9,-0.9 -1.8,-1.4 -3.2,-1.4 -2.3,0 -3.9,1.8 -3.9,4.1 0,2.3 1.6,4.1 3.9,4.1 1.4,0 2.3,-0.7 3.4,-1.6 l 1.4,1.4 c -1.1,1.1 -2.5,2.1 -4.6,2.1 -3.6,-0.3 -6.1,-3 -6.1,-6.2 z"
   id="path90" />
	<path
   class="st2"
   d="m 247.2,104.8 c 0,-3.2 2.5,-5.9 5.9,-5.9 2.1,0 3.4,0.7 4.6,1.8 l -1.4,1.6 c -0.9,-0.9 -1.8,-1.4 -3.2,-1.4 -2.3,0 -3.9,1.8 -3.9,4.1 0,2.3 1.6,4.1 3.9,4.1 1.4,0 2.3,-0.7 3.4,-1.6 l 1.4,1.4 c -1.1,1.1 -2.5,2.1 -4.6,2.1 -3.6,-0.3 -6.1,-3 -6.1,-6.2 z"
   id="path92" />
	<path
   class="st2"
   d="m 259.7,98.8 h 2.1 v 8.5 l 5.9,-8.5 h 1.8 v 11.6 h -2.1 V 102 l -5.7,8.5 H 260 Z"
   id="path94" />
	<path
   class="st2"
   d="m 272.5,98.8 h 2.1 v 8.5 l 5.9,-8.5 h 1.8 v 11.6 h -2.1 V 102 l -5.7,8.5 h -1.8 z m 2.3,-3.2 1.1,-0.2 c 0.2,0.7 0.7,1.1 1.4,1.1 0.7,0 1.1,-0.5 1.4,-1.1 l 1.1,0.2 c -0.2,1.4 -1.1,2.3 -2.5,2.3 -1.4,0 -2.3,-0.9 -2.5,-2.3 z"
   id="path96" />
	<path
   class="st2"
   d="m 284.6,104.8 c 0,-3.2 2.5,-5.9 5.9,-5.9 2.1,0 3.4,0.7 4.6,1.8 l -1.4,1.6 c -0.9,-0.9 -1.8,-1.4 -3.2,-1.4 -2.3,0 -3.9,1.8 -3.9,4.1 0,2.3 1.6,4.1 3.9,4.1 1.4,0 2.3,-0.7 3.4,-1.6 l 1.4,1.4 c -1.1,1.1 -2.5,2.1 -4.6,2.1 -3.5,-0.3 -6.1,-3 -6.1,-6.2 z"
   id="path98" />
	<path
   class="st2"
   d="m 297.4,98.8 h 2.1 v 5.7 l 5.5,-5.7 h 2.5 l -4.8,5 5,6.6 h -2.5 l -3.9,-5.3 -1.8,1.8 v 3.4 h -2.1 z"
   id="path100" />
	<path
   class="st2"
   d="m 308.4,104.8 c 0,-3.2 2.5,-5.9 5.9,-5.9 3.4,0 5.9,2.7 5.9,5.9 0,3.2 -2.5,5.9 -5.9,5.9 -3.4,0 -5.9,-2.7 -5.9,-5.9 z m 9.8,0 c 0,-2.3 -1.6,-4.1 -3.9,-4.1 -2.3,0 -3.9,1.8 -3.9,4.1 0,2.3 1.6,4.1 3.9,4.1 2.3,0 3.9,-2.1 3.9,-4.1 z"
   id="path102" />
	<path
   class="st2"
   d="m 322.8,98.8 h 2.1 v 8.5 l 5.9,-8.5 h 1.8 v 11.6 h -2.1 V 102 l -5.7,8.5 H 323 V 98.8 Z m 2.5,-3.2 1.1,-0.2 c 0.2,0.7 0.7,1.1 1.4,1.1 0.7,0 1.1,-0.5 1.4,-1.1 l 1.1,0.2 c -0.2,1.4 -1.1,2.3 -2.5,2.3 -1.4,0 -2.3,-0.9 -2.5,-2.3 z"
   id="path104" />
	<path
   class="st2"
   d="m 344.7,98.8 h 1.8 l 5,11.6 h -2.1 l -1.1,-2.7 h -5.5 l -1.1,2.7 h -2.1 z m 2.7,7.1 -2.1,-4.6 -2.1,4.6 z"
   id="path106" />
	<path
   class="st2"
   d="m 353.6,98.8 h 2.1 v 5.7 l 5.5,-5.7 h 2.5 l -4.8,5 5,6.6 h -2.5 l -3.9,-5.3 -1.8,1.8 v 3.4 h -2.1 z"
   id="path108" />
	<path
   class="st2"
   d="m 369.6,98.8 h 1.8 l 5,11.6 h -2.1 l -1.1,-2.7 h -5.5 l -1.1,2.7 h -2.1 z m 3,7.1 -2.1,-4.6 -2.1,4.6 z"
   id="path110" />
	<path
   class="st2"
   d="m 377.4,108.6 h 1.1 c 0.9,-1.8 1.4,-4.3 1.4,-8 V 99 h 8 v 9.8 h 1.4 l -0.2,4.3 h -1.6 v -2.5 h -8.2 l -0.2,2.5 h -1.8 v -4.6 h 0.1 z m 8.4,0 v -8 h -4.1 v 1.4 c 0,2.7 -0.5,5 -1.1,6.6 z"
   id="path112" />
	<path
   class="st2"
   d="m 391.1,98.8 h 8.5 v 1.8 H 393 v 3 h 5.7 v 1.8 H 393 v 3.2 h 6.6 v 1.8 h -8.7 V 98.8 Z"
   id="path114" />
	<path
   class="st2"
   d="m 402.3,98.8 h 2.1 l 3.4,5.5 3.4,-5.5 h 2.1 v 11.6 h -2.1 v -8.2 l -3.7,5.5 v 0 l -3.7,-5.5 v 8.2 h -2.1 V 98.8 Z"
   id="path116" />
	<path
   class="st2"
   d="m 416.4,98.8 h 2.1 v 8.5 l 5.9,-8.5 h 1.8 v 11.6 h -2.1 V 102 l -5.7,8.5 h -1.8 V 98.8 Z"
   id="path118" />
	<path
   class="st2"
   d="m 429.2,98.8 h 2.1 v 8.5 l 5.9,-8.5 h 1.8 v 11.6 h -2 V 102 l -5.7,8.5 h -2.1 z"
   id="path120" />
	<path
   class="st2"
   d="m 210,130.3 c 0,-3.2 2.5,-5.9 5.9,-5.9 3.4,0 5.9,2.7 5.9,5.9 0,3.2 -2.5,5.9 -5.9,5.9 -3.4,0 -5.9,-2.7 -5.9,-5.9 z m 9.8,0 c 0,-2.3 -1.6,-4.1 -3.9,-4.1 -2.3,0 -3.9,1.8 -3.9,4.1 0,2.3 1.6,4.1 3.9,4.1 2.3,0 3.9,-1.8 3.9,-4.1 z"
   id="path122" />
	<path
   class="st2"
   d="m 224.3,124.6 h 8.7 v 1.8 h -6.6 v 2.7 h 3.2 c 2.5,0 4.1,1.4 4.1,3.4 0,2.3 -1.6,3.7 -4.3,3.7 h -5 c -0.1,0.1 -0.1,-11.6 -0.1,-11.6 z m 4.8,9.6 c 1.8,0 2.7,-0.5 2.7,-1.8 0,-1.1 -0.9,-1.6 -2.3,-1.6 h -3 v 3.4 z"
   id="path124" />
	<path
   class="st2"
   d="m 236.2,124.6 h 4.6 c 2.7,0 4.3,1.6 4.3,3.9 0,2.5 -2.1,3.9 -4.6,3.9 h -2.3 v 3.7 h -2.1 v -11.5 z m 4.4,6 c 1.6,0 2.5,-0.9 2.5,-2.1 0,-1.4 -0.9,-2.1 -2.5,-2.1 h -2.3 v 4.1 c 0,0.1 2.3,0.1 2.3,0.1 z"
   id="path126" />
	<path
   class="st2"
   d="m 250.2,124.4 h 1.8 l 5,11.6 h -2 l -1.1,-2.7 h -5.5 l -1.1,2.7 h -2.1 z m 2.7,7.1 -2.1,-4.6 -2.1,4.6 z"
   id="path128" />
	<path
   class="st2"
   d="m 266.6,127.4 c 0,1.4 -0.9,2.3 -2.1,2.7 1.4,0.5 2.3,1.4 2.3,2.7 0,1.8 -1.6,3.4 -4.3,3.4 -2.3,0 -3.7,-0.7 -5,-1.8 l 1.1,-1.4 c 1.1,0.9 2.3,1.6 3.9,1.6 1.1,0 2.3,-0.7 2.3,-1.8 0,-1.1 -1.1,-1.6 -2.7,-1.6 h -1.4 v -1.6 h 1.4 c 1.4,0 2.3,-0.7 2.3,-1.6 0,-0.9 -0.9,-1.6 -2.3,-1.6 -1.4,0 -2.3,0.5 -3.2,1.4 l -1.1,-1.4 c 1.1,-1.1 2.5,-1.8 4.3,-1.8 2.9,-0.2 4.5,0.9 4.5,2.8 z"
   id="path130" />
	<path
   class="st2"
   d="m 268.9,130.3 c 0,-3.2 2.5,-5.9 5.9,-5.9 3.4,0 5.9,2.7 5.9,5.9 0,3.2 -2.5,5.9 -5.9,5.9 -3.4,0.1 -5.9,-2.7 -5.9,-5.9 z m 9.8,0 c 0,-2.3 -1.6,-4.1 -3.9,-4.1 -2.3,0 -3.9,1.8 -3.9,4.1 0,2.3 1.6,4.1 3.9,4.1 2.3,0 3.9,-1.8 3.9,-4.1 z"
   id="path132" />
	<path
   class="st2"
   d="m 283.3,124.6 h 5.3 c 1.4,0 2.3,0.5 3,0.9 0.5,0.5 0.7,1.1 0.7,2.1 0,1.4 -0.7,2.1 -1.6,2.5 1.4,0.5 2.3,1.1 2.3,2.7 0,2.1 -1.6,3.2 -4.3,3.2 h -5.3 v -11.4 z m 4.8,4.8 c 1.4,0 2.3,-0.5 2.3,-1.6 0,-0.9 -0.7,-1.4 -2.1,-1.4 h -3 v 3 z m 0.7,4.8 c 1.4,0 2.3,-0.5 2.3,-1.6 0,-0.9 -0.7,-1.6 -2.3,-1.6 h -3.4 v 3.2 z"
   id="path134" />
	<path
   class="st2"
   d="m 299,124.4 h 1.8 l 5,11.6 h -2.1 l -1.1,-2.7 h -5.5 L 296,136 h -2 z m 3,7.1 -2.1,-4.6 -2.1,4.6 z"
   id="path136" />
	<path
   class="st2"
   d="m 307.9,124.6 h 2.1 v 4.8 h 5.5 v -4.8 h 2.1 v 11.6 h -2.1 v -4.8 H 310 v 4.8 h -2.1 z"
   id="path138" />
	<path
   class="st2"
   d="m 320.5,124.6 h 2.1 v 8.5 l 5.9,-8.5 h 1.8 v 11.6 h -2.1 v -8.5 l -5.7,8.5 h -1.8 v -11.6 c 0,0 -0.2,0 -0.2,0 z"
   id="path140" />
	<path
   class="st2"
   d="m 335.6,131.7 c -1.6,-0.5 -2.7,-1.6 -2.7,-3.4 0,-2.3 1.6,-3.7 4.3,-3.7 h 5 v 11.6 h -2.1 v -3.9 h -2.5 l -3,3.9 h -2.3 z m 4.5,-1.4 v -3.9 h -3 c -1.6,0 -2.5,0.7 -2.5,2.1 0,1.1 0.9,2.1 2.3,2.1 h 3.2 z"
   id="path142" />
</g>
<g
   id="g232"
   transform="translate(-291.54277,-117.07559)">
	<g
   id="g230">
		<path
   class="st3"
   d="m 345.82396,130.2373 c -0.13109,-0.58977 -0.68805,-0.95018 -1.27782,-0.81912 l -20.60885,4.6198 c 0,0 -0.0327,0 -0.0327,0 -0.0654,-0.0327 -0.1638,-0.0327 -0.22935,-0.0327 l -15.66142,-0.26212 -5.83207,-15.82523 c -0.0327,-0.0656 -0.0327,-0.1638 -0.0656,-0.22935 -0.26212,-0.52424 -0.88464,-0.75359 -1.44163,-0.52424 l -8.51878,3.99727 c -0.52422,0.26211 -0.75357,0.88464 -0.52422,1.44164 0.19659,0.39318 0.557,0.62253 0.98294,0.62253 0.16381,0 0.29488,-0.0327 0.4587,-0.0984 l 4.16108,-1.96587 3.66963,13.66278 c 0,0.0984 0.0327,0.19659 0.0654,0.2949 l 0.81912,3.11261 -8.87918,2.26075 c 0,0 0,0 0,0 -0.0654,0.0327 -0.13108,0.0327 -0.19659,0.0654 -0.0654,0.0327 -0.13108,0.0656 -0.19659,0.0984 0,0 0,0 0,0 0,0 0,0 -0.0327,0.0327 -0.0327,0.0327 -0.0984,0.0654 -0.13108,0.13108 -0.0327,0.0327 -0.0327,0.0654 -0.0654,0.0984 -0.0327,0.0327 -0.0327,0.0654 -0.0654,0.0984 0,0 -0.0327,0.0327 -0.0327,0.0656 0,0.0327 -0.0327,0.0654 -0.0327,0.0984 0,0.0327 -0.0327,0.0656 -0.0327,0.0984 0,0.0327 -0.0327,0.0654 -0.0327,0.0984 0,0.0327 0,0.0654 0,0.0984 0,0.0327 0,0.0654 0,0.0984 0,0.0654 0,0.13108 0.0327,0.19658 0,0 0,0 0,0 0,0 0,0 0,0 0,0 0,0.0327 0,0.0327 0,0.0654 0.0327,0.0984 0.0656,0.16381 0,0.0327 0,0.0654 0.0327,0.0654 0.0327,0.0327 0.0327,0.0984 0.0654,0.13109 0,0 0,0 0,0.0327 l 6.22524,8.22389 -3.57131,11.36926 c -0.16381,0.55701 0.13108,1.17953 0.68805,1.34336 0.0984,0.0327 0.22935,0.0654 0.32763,0.0654 0.45872,0 0.88466,-0.29488 1.0157,-0.75359 l 3.11264,-9.89487 1.90034,2.49011 c 0.19658,0.26211 0.52422,0.42594 0.85187,0.42594 0.22935,0 0.4587,-0.0656 0.65529,-0.22937 0.4587,-0.3604 0.557,-1.01568 0.19659,-1.50716 l -2.81774,-3.70238 2.98157,-9.43618 14.61294,2.0314 6.84779,19.2 c 0.1638,0.42594 0.55698,0.72081 1.0157,0.72081 0.16381,0 0.32763,-0.0327 0.49146,-0.13109 0.49146,-0.26211 0.65529,-0.85187 0.49146,-1.37609 l -6.42183,-18.11877 2.9488,0.42594 7.27371,18.83957 c 0.16381,0.42594 0.557,0.68805 1.0157,0.68805 0.13109,0 0.26212,-0.0327 0.39318,-0.0654 0.55699,-0.22935 0.81912,-0.81912 0.62253,-1.3761 l -7.40478,-19.16723 0.68805,-6.5529 18.57747,-4.16108 c 0.58975,-0.16381 0.95016,-0.72083 0.8191,-1.31057 z m -45.31327,-10.64847 5.20954,14.08874 -2.91602,-0.0654 -3.57133,-13.43345 z m 3.53857,18.80682 -0.68807,-2.58839 3.1454,0.0654 1.11399,3.04711 z m -9.043,3.76791 6.68394,-1.67099 -2.32627,7.40478 z m 23.88529,-4.84914 c -0.22935,-0.62253 -0.9174,-0.88464 -1.50716,-0.58977 -0.49146,0.26212 -0.65529,0.88464 -0.49146,1.37612 l 0.78635,2.19522 -8.06006,-1.11399 c 0.16381,-0.29489 0.16381,-0.65529 0.0654,-0.98294 l -0.85188,-2.29352 14.80955,0.22935 c 0,0 0,0 0.0327,0 0.0984,0 0.16381,0 0.26211,-0.0327 0.0656,0.0327 0.16381,0.0327 0.26212,0.0327 0.0327,0 0.0327,0 0.0656,0 l -0.52424,4.98021 -3.60409,-0.49146 z"
   id="path146"
   style="stroke-width:0.327644" />
		<g
   id="g228"
   transform="matrix(0.32764477,0,0,0.32764477,291.53323,116.80385)">
			<path
   class="st4"
   d="m 208.9,33.8 h 2.3 v 9.9 l 6.8,-9.9 h 2.2 V 47.3 H 218 v -9.9 l -6.8,9.9 H 209 V 33.8 Z"
   id="path148"
   style="fill:#ffffff" />
			<path
   class="st4"
   d="m 223.8,33.8 h 2.4 v 5.6 h 6.5 v -5.6 h 2.4 v 13.5 h -2.4 v -5.7 h -6.5 v 5.7 h -2.4 z"
   id="path150"
   style="fill:#ffffff" />
			<path
   class="st4"
   d="m 237.9,40.6 c 0,-3.8 2.9,-7 7,-7 2.5,0 4,0.9 5.3,2.1 l -1.5,1.8 c -1.1,-1 -2.2,-1.7 -3.8,-1.7 -2.6,0 -4.5,2.1 -4.5,4.8 0,2.6 1.9,4.8 4.5,4.8 1.7,0 2.7,-0.7 3.9,-1.8 l 1.5,1.5 c -1.4,1.5 -3,2.4 -5.5,2.4 -3.9,0.1 -6.9,-3 -6.9,-6.9 z"
   id="path152"
   style="fill:#ffffff" />
			<path
   class="st4"
   d="m 256.1,36 h -4.3 v -2.2 h 11 V 36 h -4.3 v 11.3 h -2.4 z"
   id="path154"
   style="fill:#ffffff" />
			<path
   class="st4"
   d="m 265.3,33.8 h 2.3 v 9.9 l 6.8,-9.9 h 2.2 v 13.5 h -2.3 v -9.9 l -6.8,9.9 h -2.2 z"
   id="path156"
   style="fill:#ffffff" />
			<path
   class="st4"
   d="m 283.6,36 h -4.3 v -2.2 h 11 V 36 H 286 v 11.3 h -2.4 z"
   id="path158"
   style="fill:#ffffff" />
			<path
   class="st4"
   d="m 292.4,46.9 0.9,-1.8 c 0.5,0.3 1.1,0.4 1.7,0.4 0.6,0 1.5,-0.4 2.1,-1.5 l -5.6,-10.2 h 2.7 l 4.2,7.9 3.7,-7.9 h 2.6 l -5.3,10.6 c -1.1,2.3 -2.5,3.2 -4.3,3.2 -1,0 -1.9,-0.3 -2.7,-0.7 z"
   id="path160"
   style="fill:#ffffff" />
			<path
   class="st4"
   d="m 310.2,36 h -4.3 v -2.2 h 11 V 36 h -4.3 v 11.3 h -2.4 z"
   id="path162"
   style="fill:#ffffff" />
			<path
   class="st4"
   d="m 325.2,33.8 h 2.3 v 9.9 l 6.8,-9.9 h 2.2 v 13.5 h -2.3 v -9.9 l -6.8,9.9 h -2.2 z"
   id="path164"
   style="fill:#ffffff" />
			<path
   class="st4"
   d="m 349.5,37.2 c 0,1.7 -1.1,2.6 -2.3,3.2 1.5,0.5 2.6,1.5 2.6,3.2 0,2.2 -2,4 -5,4 -2.6,0 -4.3,-0.8 -5.9,-2.2 l 1.3,-1.6 c 1.2,1.2 2.7,1.8 4.5,1.8 1.4,0 2.6,-0.8 2.6,-2 0,-1.4 -1.3,-2 -3.1,-2 h -1.5 v -2 h 1.5 c 1.7,0 2.8,-0.7 2.8,-2 0,-1.1 -1,-1.9 -2.6,-1.9 -1.6,0 -2.8,0.5 -3.8,1.5 l -1.3,-1.5 c 1.3,-1.2 2.8,-2 5.2,-2 3,-0.1 5,1.4 5,3.5 z"
   id="path166"
   style="fill:#ffffff" />
			<path
   class="st4"
   d="m 352.3,46.9 0.9,-1.8 c 0.5,0.3 1.1,0.4 1.7,0.4 0.6,0 1.5,-0.4 2.1,-1.5 l -5.6,-10.2 h 2.7 l 4.2,7.9 3.7,-7.9 h 2.6 l -5.3,10.6 c -1.1,2.3 -2.5,3.2 -4.3,3.2 -1.1,0 -1.9,-0.3 -2.7,-0.7 z"
   id="path168"
   style="fill:#ffffff" />
			<path
   class="st4"
   d="m 374.7,42 c -1,0.5 -2.5,1.1 -3.8,1.1 -2.6,0 -4.5,-1.4 -4.5,-4.3 v -5 h 2.4 v 4.4 c 0,1.7 0.8,2.7 2.5,2.7 1.3,0 2.6,-0.5 3.4,-1.1 v -6.1 h 2.4 v 13.5 h -2.4 z"
   id="path170"
   style="fill:#ffffff" />
			<path
   class="st4"
   d="m 380.6,33.8 h 10 V 36 H 383 v 3.5 h 6.8 v 2.1 H 383 v 3.6 h 7.8 v 2.1 H 380.7 V 33.8 Z"
   id="path172"
   style="fill:#ffffff" />
			<path
   class="st4"
   d="m 393.5,33.8 h 2.4 v 5.6 h 6.5 v -5.6 h 2.4 v 13.5 h -2.4 v -5.7 h -6.5 v 5.7 h -2.4 z"
   id="path174"
   style="fill:#ffffff" />
			<path
   class="st4"
   d="m 408.2,33.8 h 2.3 v 9.9 l 6.8,-9.9 h 2.2 v 13.5 h -2.3 v -9.9 l -6.8,9.9 h -2.2 z"
   id="path176"
   style="fill:#ffffff" />
			<path
   class="st4"
   d="m 425.8,42.3 c -1.9,-0.5 -3.2,-1.9 -3.2,-4.1 0,-2.6 1.9,-4.3 5,-4.3 h 6 v 13.5 h -2.4 v -4.7 h -3 l -3.4,4.7 H 422 Z m 5.4,-1.7 V 36 h -3.5 c -1.8,0 -2.8,0.9 -2.8,2.3 0,1.4 1.1,2.3 2.8,2.3 z"
   id="path178"
   style="fill:#ffffff" />
			<path
   class="st4"
   d="m 207.4,75.6 h 1.3 c 1.1,-2.2 1.7,-5 1.7,-9.5 v -1.9 h 9.4 v 11.4 h 1.7 l -0.3,5 h -2 v -2.9 h -9.5 l -0.2,2.9 h -2.1 z m 10.1,0 v -9.3 h -4.8 v 1.5 c 0,3.1 -0.5,5.8 -1.5,7.7 h 6.3 z"
   id="path180"
   style="fill:#ffffff" />
			<path
   class="st4"
   d="m 223.7,64.2 h 10 v 2.1 H 226 v 3.5 h 6.8 V 72 H 226 v 3.6 h 7.8 v 2.1 h -10.1 z"
   id="path182"
   style="fill:#ffffff" />
			<path
   class="st4"
   d="m 239.9,66.4 h -4.3 v -2.2 h 11 v 2.2 h -4.3 v 11.3 h -2.4 z"
   id="path184"
   style="fill:#ffffff" />
			<path
   class="st4"
   d="m 247.6,71 c 0,-3.8 2.9,-7 7,-7 2.5,0 4,0.9 5.3,2.1 l -1.5,1.8 c -1.1,-1 -2.2,-1.7 -3.8,-1.7 -2.6,0 -4.5,2.1 -4.5,4.8 0,2.6 1.9,4.8 4.5,4.8 1.7,0 2.7,-0.7 3.9,-1.8 l 1.5,1.5 c -1.4,1.5 -3,2.4 -5.5,2.4 -4,0.1 -6.9,-3 -6.9,-6.9 z"
   id="path186"
   style="fill:#ffffff" />
			<path
   class="st4"
   d="m 265.8,66.4 h -4.3 v -2.2 h 11 v 2.2 h -4.3 v 11.3 h -2.4 z"
   id="path188"
   style="fill:#ffffff" />
			<path
   class="st4"
   d="m 275,64.2 h 6.1 c 1.5,0 2.8,0.4 3.5,1.2 0.6,0.6 0.9,1.3 0.9,2.3 0,1.6 -0.9,2.5 -1.9,3 1.6,0.5 2.7,1.4 2.7,3.3 0,2.4 -2,3.7 -5,3.7 H 275 Z m 5.6,5.7 c 1.5,0 2.6,-0.6 2.6,-1.9 0,-1.1 -0.9,-1.7 -2.4,-1.7 h -3.4 v 3.6 z m 0.7,5.7 c 1.6,0 2.6,-0.6 2.6,-1.9 0,-1.1 -0.9,-1.8 -2.8,-1.8 h -3.8 v 3.7 z"
   id="path190"
   style="fill:#ffffff" />
			<path
   class="st4"
   d="m 293.3,64.1 h 2.2 l 6,13.6 H 299 l -1.4,-3.3 h -6.4 l -1.4,3.3 h -2.4 z m 3.4,8.3 -2.3,-5.4 -2.3,5.4 z"
   id="path192"
   style="fill:#ffffff" />
			<path
   class="st4"
   d="m 302.7,79.6 c 1.1,-0.2 1.7,-0.7 1.7,-1.6 0,-0.1 0,-0.1 0,-0.2 h -1 v -2.6 h 2.6 v 2.2 c 0,2.1 -1,3.1 -3,3.2 z"
   id="path194"
   style="fill:#ffffff" />
			<path
   class="st4"
   d="m 314.2,71 c 0,-3.8 2.9,-7 7,-7 2.5,0 4,0.9 5.3,2.1 l -1.5,1.8 c -1.1,-1 -2.2,-1.7 -3.8,-1.7 -2.6,0 -4.5,2.1 -4.5,4.8 0,2.6 1.9,4.8 4.5,4.8 1.7,0 2.7,-0.7 3.9,-1.8 l 1.5,1.5 c -1.4,1.5 -3,2.4 -5.5,2.4 -3.9,0.1 -6.9,-3 -6.9,-6.9 z"
   id="path196"
   style="fill:#ffffff" />
			<path
   class="st4"
   d="m 329.1,64.2 h 10 v 2.1 h -7.7 v 3.5 h 6.8 V 72 h -6.8 v 3.6 h 7.8 v 2.1 h -10.1 z"
   id="path198"
   style="fill:#ffffff" />
			<path
   class="st4"
   d="m 342,64.2 h 2.5 l 4.1,6.4 4.1,-6.4 h 2.5 V 77.7 H 353 V 68 l -4.3,6.4 h -0.1 l -4.2,-6.3 v 9.7 H 342 Z"
   id="path200"
   style="fill:#ffffff" />
			<path
   class="st4"
   d="m 358.8,64.2 h 2.4 v 4.9 h 3.1 c 3,0 5.1,1.5 5.1,4.2 0,2.7 -2,4.4 -5.1,4.4 h -5.5 z m 5.4,11.4 c 1.8,0 2.8,-0.8 2.8,-2.3 0,-1.4 -1,-2.1 -2.8,-2.1 h -3 v 4.5 h 3 z"
   id="path202"
   style="fill:#ffffff" />
			<path
   class="st4"
   d="m 371.9,64.2 h 2.3 v 9.9 l 6.8,-9.9 h 2.2 v 13.5 h -2.3 v -9.9 l -6.8,9.9 h -2.2 z"
   id="path204"
   style="fill:#ffffff" />
			<path
   class="st4"
   d="m 208.9,94.6 h 2.3 v 9.9 l 6.8,-9.9 h 2.2 v 13.5 H 218 v -9.9 l -6.8,9.9 H 209 V 94.6 Z"
   id="path206"
   style="fill:#ffffff" />
			<path
   class="st4"
   d="m 229.6,94.6 h 6.1 c 1.5,0 2.8,0.4 3.5,1.2 0.6,0.6 0.9,1.3 0.9,2.3 0,1.6 -0.9,2.5 -1.9,3 1.6,0.5 2.7,1.5 2.7,3.3 0,2.4 -2,3.7 -5,3.7 h -6.3 z m 5.6,5.7 c 1.5,0 2.6,-0.6 2.6,-1.9 0,-1.1 -0.9,-1.7 -2.4,-1.7 H 232 v 3.6 z m 0.7,5.7 c 1.6,0 2.6,-0.6 2.6,-1.9 0,-1.1 -0.9,-1.8 -2.8,-1.8 H 232 v 3.7 z"
   id="path208"
   style="fill:#ffffff" />
			<path
   class="st4"
   d="m 243,101.4 c 0,-3.8 2.9,-7 7.1,-7 4.2,0 7.1,3.2 7.1,7 0,3.8 -2.9,7 -7.1,7 -4.2,0 -7.1,-3.2 -7.1,-7 z m 11.7,0 c 0,-2.6 -1.9,-4.8 -4.6,-4.8 -2.7,0 -4.6,2.1 -4.6,4.8 0,2.6 1.9,4.8 4.6,4.8 2.7,0 4.6,-2.2 4.6,-4.8 z"
   id="path210"
   style="fill:#ffffff" />
			<path
   class="st4"
   d="m 259.4,101.4 c 0,-3.8 2.9,-7 7,-7 2.5,0 4,0.9 5.3,2.1 l -1.5,1.8 c -1.1,-1 -2.2,-1.7 -3.8,-1.7 -2.6,0 -4.5,2.1 -4.5,4.8 0,2.6 1.9,4.8 4.5,4.8 1.7,0 2.7,-0.7 3.9,-1.8 l 1.5,1.5 c -1.4,1.5 -3,2.4 -5.5,2.4 -3.9,0.1 -6.9,-3 -6.9,-6.9 z"
   id="path212"
   style="fill:#ffffff" />
			<path
   class="st4"
   d="m 274.3,94.6 h 11 v 13.5 H 283 V 96.7 h -6.3 v 11.4 h -2.4 z"
   id="path214"
   style="fill:#ffffff" />
			<path
   class="st4"
   d="m 288.8,94.6 h 2.3 v 9.9 l 6.8,-9.9 h 2.2 v 13.5 h -2.3 v -9.9 l -6.8,9.9 h -2.2 z"
   id="path216"
   style="fill:#ffffff" />
			<path
   class="st4"
   d="m 307,96.8 h -4.3 v -2.2 h 11 v 2.2 h -4.3 v 11.3 H 307 Z"
   id="path218"
   style="fill:#ffffff" />
			<path
   class="st4"
   d="m 319.3,94.5 h 2.2 l 6,13.6 H 325 l -1.4,-3.3 h -6.4 l -1.4,3.3 h -2.4 z m 3.4,8.3 -2.3,-5.4 -2.3,5.4 z"
   id="path220"
   style="fill:#ffffff" />
			<path
   class="st4"
   d="m 329.8,94.6 h 2.4 v 5.6 h 6.5 v -5.6 h 2.4 v 13.5 h -2.4 v -5.7 h -6.5 v 5.7 h -2.4 z"
   id="path222"
   style="fill:#ffffff" />
			<path
   class="st4"
   d="m 344.5,94.6 h 2.3 v 9.9 l 6.8,-9.9 h 2.2 v 13.5 h -2.3 v -9.9 l -6.8,9.9 h -2.2 z"
   id="path224"
   style="fill:#ffffff" />
			<path
   class="st4"
   d="m 362,103 c -1.9,-0.5 -3.2,-1.9 -3.2,-4.1 0,-2.6 1.9,-4.3 5,-4.3 h 6 v 13.5 h -2.4 v -4.7 h -3 l -3.4,4.7 h -2.8 z m 5.5,-1.6 V 96.8 H 364 c -1.8,0 -2.8,0.9 -2.8,2.3 0,1.4 1.1,2.3 2.8,2.3 z"
   id="path226"
   style="fill:#ffffff" />
		</g>
	</g>
</g>
</svg>
