<?xml version="1.0" encoding="UTF-8" standalone="no"?>
<svg
   xmlns:dc="http://purl.org/dc/elements/1.1/"
   xmlns:cc="http://creativecommons.org/ns#"
   xmlns:rdf="http://www.w3.org/1999/02/22-rdf-syntax-ns#"
   xmlns:svg="http://www.w3.org/2000/svg"
   xmlns="http://www.w3.org/2000/svg"
   xmlns:sodipodi="http://sodipodi.sourceforge.net/DTD/sodipodi-0.dtd"
   xmlns:inkscape="http://www.inkscape.org/namespaces/inkscape"
   version="1.1"
   id="Слой_1"
   x="0px"
   y="0px"
   viewBox="0 0 230.75271 74.920313"
   xml:space="preserve"
   sodipodi:docname="logo.svg"
   width="230.75272"
   height="74.920311"
   inkscape:version="1.0.1 (3bc2e813f5, 2020-09-07)"><metadata
   id="metadata239"><rdf:RDF><cc:Work
       rdf:about=""><dc:format>image/svg+xml</dc:format><dc:type
         rdf:resource="http://purl.org/dc/dcmitype/StillImage" /><dc:title></dc:title></cc:Work></rdf:RDF></metadata><defs
   id="defs237" /><sodipodi:namedview
   pagecolor="#ffffff"
   bordercolor="#666666"
   borderopacity="1"
   objecttolerance="10"
   gridtolerance="10"
   guidetolerance="10"
   inkscape:pageopacity="0"
   inkscape:pageshadow="2"
   inkscape:window-width="1904"
   inkscape:window-height="894"
   id="namedview235"
   showgrid="false"
   fit-margin-top="0"
   fit-margin-left="0"
   fit-margin-right="0"
   fit-margin-bottom="0"
   inkscape:zoom="0.74410889"
   inkscape:cx="29.195085"
   inkscape:cy="11.26604"
   inkscape:window-x="0"
   inkscape:window-y="0"
   inkscape:window-maximized="0"
   inkscape:current-layer="Слой_1" />
<style
   type="text/css"
   id="style2">
	.st0{display:none;fill:#C12A21;}
	.st1{display:none;}
	.st2{display:inline;fill:#302E2B;}
	.st3{fill:#C12A21;}
	.st4{fill:#302E2B;}
</style>
<path
   class="st0"
   d="m -35.847284,39.770888 c -0.2,-1.8 -2.1,-3 -3.9,-2.5 l -63.299996,14.1 c -0.3,-0.1 -0.7,-0.2 -1,-0.2 l -48.1,-0.8 -18.2,-49.0000001 c -0.7,-1.80000003 -3,-2.7 -4.8,-1.80000003 -0.1,0.1 -0.2,0.2 -0.3,0.3 l -25.7,12.00000013 c -1.6,0.7 -2.3,2.7 -1.6,4.3 0.7,1.1 1.8,1.8 3,1.8 0.7,0 1.1,-0.2 1.6,-0.2 l 12.8,-6 14,52.2 -27.4,7 c -1,0.3 -1.8,1.1 -2.1,2 -0.6,1.1 -0.5,2.5 0.3,3.4 l 19.4,25.400002 -10.9,34.6 c -0.7,1.6 0.2,3.7 2.1,4.1 0.2,0.2 0.7,0.2 0.9,0.2 1.4,0 2.7,-0.7 3.2,-2.3 l 9.6,-30.4 5.7,7.5 c 0.7,0.9 1.8,1.4 2.7,1.4 0.7,0 1.4,-0.2 1.8,-0.5 1.6,-1.1 1.8,-3.2 0.7,-4.6 l -8.6,-11.4 9.2,-29.300002 45,6.2 21.099996,58.900002 c 0.5,1.4 1.8,2.3 3.2,2.3 0.5,0 0.9,0 1.4,-0.2 1.4,-0.9 1.8,-2.7 1.4,-4.3 l -20.199996,-55.300002 9.3,1.3 22.699996,58.000002 c 0.5,1.1 1.6,2.1 3,2.1 0.2,0 0.7,0 1.1,-0.2 1.6,-0.7 2.5,-2.7 1.8,-4.3 l -22.8,-58.800002 2.2,-20.3 57.2,-12.7 c 1.8,-0.4 3,-2.2 2.5,-4 z M -175.34728,6.9708879 l 15.8,43.2000001 -8.8,-0.1 -11,-41.2000001 z m 8.8,49.8000001 9.4,0.2 3.5,9.6 -10.7,-1.5 z m -26.1,19.7 21,-5.5 -7.4,23.5 z m 73.7,-15 c -0.5,-1.8 -2.7,-2.7 -4.6,-1.8 -1.4,0.9 -1.8,2.7 -1.4,4.3 l 2.5,6.8 -24.9,-3.4 c 0.6,-0.9 0.7,-2.1 0.3,-3.2 l -2.7,-7.2 45.6,0.8 c 0.3,0 0.6,0 0.8,-0.1 0.3,0.1 0.5,0.1 0.8,0.1 0.1,0 0.1,0 0.2,0 l -1.7,15.4 c -0.1,0.1 -0.1,0.1 -0.2,0.2 l -11.1,-1.5 z"
   id="path4" />
<g
   class="st1"
   id="g144"
   transform="translate(-202.84728,-0.82911213)">
	<path
   class="st2"
   d="m 210.4,47.7 h 2.1 v 8.5 l 5.9,-8.5 h 1.8 v 11.6 h -2.1 v -8.5 l -5.9,8.2 h -1.8 z"
   id="path6" />
	<path
   class="st2"
   d="m 223.2,47.7 h 2.1 v 4.8 h 5.5 v -4.8 h 2.1 v 11.6 h -2.1 v -4.8 h -5.5 v 4.8 h -2.1 z"
   id="path8" />
	<path
   class="st2"
   d="m 235.1,53.4 c 0,-3.2 2.5,-5.9 5.9,-5.9 2.1,0 3.4,0.7 4.6,1.8 l -1.4,1.6 c -0.9,-0.9 -1.8,-1.4 -3.2,-1.4 -2.3,0 -3.9,1.8 -3.9,4.1 0,2.3 1.6,4.1 3.9,4.1 1.4,0 2.3,-0.7 3.4,-1.6 l 1.4,1.4 c -1.1,1.1 -2.5,2.1 -4.6,2.1 -3.6,-0.3 -6.1,-3 -6.1,-6.2 z"
   id="path10" />
	<path
   class="st2"
   d="M 250.6,49.5 H 247 v -1.8 h 9.4 v 1.8 h -3.7 v 9.6 h -2.1 z"
   id="path12" />
	<path
   class="st2"
   d="m 258.6,47.7 h 2.1 v 8.5 l 5.9,-8.5 h 1.8 v 11.6 h -2.1 v -8.5 l -5.7,8.5 h -1.8 z"
   id="path14" />
	<path
   class="st2"
   d="m 274.1,49.5 h -3.7 v -1.8 h 9.4 v 1.8 h -3.7 v 9.6 H 274 v -9.6 z"
   id="path16" />
	<path
   class="st2"
   d="m 281.7,58.6 0.7,-1.6 c 0.5,0.2 0.9,0.5 1.4,0.5 0.5,0 1.1,-0.2 1.8,-1.1 l -4.8,-8.7 h 2.3 l 3.7,6.6 3.2,-6.6 h 2.3 l -4.6,8.9 c -0.9,2.1 -2.1,2.7 -3.7,2.7 -1,0 -1.6,-0.2 -2.3,-0.7 z"
   id="path18" />
	<path
   class="st2"
   d="M 296.7,49.5 H 293 v -1.8 h 9.4 v 1.8 h -3.7 v 9.6 h -2.1 v -9.6 z"
   id="path20" />
	<path
   class="st2"
   d="m 309.5,47.7 h 2.1 v 8.5 l 5.9,-8.5 h 1.8 v 11.6 h -2.1 v -8.5 l -5.7,8.5 h -1.8 z"
   id="path22" />
	<path
   class="st2"
   d="m 330.3,50.4 c 0,1.4 -0.9,2.3 -2.1,2.7 1.4,0.5 2.3,1.4 2.3,2.7 0,1.8 -1.6,3.4 -4.3,3.4 -2.3,0 -3.7,-0.7 -5,-1.8 l 1.1,-1.4 c 1.1,0.9 2.3,1.6 3.9,1.6 1.1,0 2.3,-0.7 2.3,-1.8 0,-1.1 -1.1,-1.6 -2.7,-1.6 h -1.4 v -1.8 h 1.4 c 1.4,0 2.3,-0.7 2.3,-1.6 0,-0.9 -0.9,-1.6 -2.3,-1.6 -1.4,0 -2.3,0.5 -3.2,1.4 l -1.1,-1.4 c 1.1,-1.1 2.5,-1.8 4.3,-1.8 2.9,0 4.5,1.2 4.5,3 z"
   id="path24" />
	<path
   class="st2"
   d="m 332.8,58.6 0.7,-1.6 c 0.5,0.2 0.9,0.5 1.4,0.5 0.5,0 1.1,-0.2 1.8,-1.1 l -4.8,-8.7 h 2.3 l 3.7,6.6 3.2,-6.6 h 2.3 l -4.6,8.9 c -0.9,2.1 -2.1,2.7 -3.7,2.7 -0.9,0 -1.6,-0.2 -2.3,-0.7 z"
   id="path26" />
	<path
   class="st2"
   d="m 351.8,54.5 c -0.9,0.5 -2.1,0.9 -3.2,0.9 -2.3,0 -3.9,-1.1 -3.9,-3.7 v -4.3 h 2.1 v 3.7 c 0,1.4 0.7,2.3 2.1,2.3 1.1,0 2.3,-0.5 3,-0.9 v -5.3 h 2.1 v 11.6 h -2.1 v -4.3 z"
   id="path28" />
	<path
   class="st2"
   d="m 356.8,47.7 h 8.5 v 1.8 h -6.6 v 3 h 5.7 v 1.8 h -5.7 v 3.2 h 6.6 v 1.8 h -8.7 V 47.7 Z"
   id="path30" />
	<path
   class="st2"
   d="m 368,47.7 h 2.1 v 4.8 h 5.5 v -4.8 h 2.1 v 11.6 h -2.1 v -4.8 h -5.5 v 4.8 H 368 Z"
   id="path32" />
	<path
   class="st2"
   d="m 380.6,47.7 h 2.1 v 8.5 l 5.9,-8.5 h 1.8 v 11.6 h -2.3 v -8.5 l -5.7,8.5 h -1.8 z"
   id="path34" />
	<path
   class="st2"
   d="m 395.4,54.7 c -1.6,-0.5 -2.7,-1.6 -2.7,-3.4 0,-2.3 1.6,-3.7 4.3,-3.7 h 5 v 11.6 h -2 v -3.9 h -2.5 l -3,3.9 h -2.3 z m 4.8,-1.3 v -3.9 h -3 c -1.6,0 -2.5,0.7 -2.5,2.1 0,1.1 0.9,2.1 2.3,2.1 z"
   id="path36" />
	<path
   class="st2"
   d="m 408.7,57.2 h 1.1 c 0.9,-1.8 1.4,-4.3 1.4,-8 v -1.6 h 8 v 9.8 h 1.4 l -0.2,4.3 h -1.6 v -2.5 h -8.2 l -0.2,2.5 h -1.6 v -4.5 z m 8.6,0 v -8 h -4.1 v 1.4 c 0,2.7 -0.5,5 -1.1,6.6 z"
   id="path38" />
	<path
   class="st2"
   d="m 422.6,47.7 h 8.5 v 1.8 h -6.4 v 3 h 5.7 v 1.8 h -5.7 v 3.2 h 6.6 v 1.8 h -8.7 z"
   id="path40" />
	<path
   class="st2"
   d="m 436.5,49.5 h -3.7 v -1.8 h 9.4 v 1.8 h -3.7 v 9.6 h -2.1 v -9.6 z"
   id="path42" />
	<path
   class="st2"
   d="m 442.9,53.4 c 0,-3.2 2.5,-5.9 5.9,-5.9 2.1,0 3.4,0.7 4.6,1.8 l -1.4,1.6 c -0.9,-0.9 -1.8,-1.4 -3.2,-1.4 -2.3,0 -3.9,1.8 -3.9,4.1 0,2.3 1.6,4.1 3.9,4.1 1.4,0 2.3,-0.7 3.4,-1.6 l 1.4,1.4 c -1.1,1.1 -2.5,2.1 -4.6,2.1 -3.6,-0.3 -6.1,-3 -6.1,-6.2 z"
   id="path44" />
	<path
   class="st2"
   d="m 458.4,49.5 h -3.7 v -1.8 h 9.4 v 1.8 h -3.7 v 9.6 h -2.1 v -9.6 z"
   id="path46" />
	<path
   class="st2"
   d="m 466.4,47.7 h 5.3 c 1.4,0 2.3,0.5 3,0.9 0.5,0.5 0.7,1.1 0.7,2.1 0,1.4 -0.7,2.1 -1.6,2.5 1.4,0.5 2.3,1.1 2.3,2.7 0,2.1 -1.6,3.2 -4.3,3.2 h -5.3 z m 4.8,4.8 c 1.4,0 2.3,-0.5 2.3,-1.6 0,-0.9 -0.7,-1.4 -2.1,-1.4 h -3 v 3 z m 0.5,4.7 c 1.4,0 2.3,-0.5 2.3,-1.6 0,-0.9 -0.7,-1.6 -2.3,-1.6 h -3.2 v 3.2 c 0,0 3.2,0 3.2,0 z"
   id="path48" />
	<path
   class="st2"
   d="m 482,47.4 h 1.8 l 5,11.6 h -2.1 l -1.1,-2.7 h -5.5 L 479,59 h -2.1 z m 2.9,7.1 -2.1,-4.6 -2.1,4.6 z"
   id="path50" />
	<path
   class="st2"
   d="m 490.2,60.7 c 0.9,-0.2 1.4,-0.7 1.4,-1.4 0,0 0,0 0,-0.2 h -0.9 v -2.3 h 2.3 v 1.8 c 0,1.8 -0.9,2.5 -2.5,2.7 z"
   id="path52" />
	<path
   class="st2"
   d="m 210,78.9 c 0,-3.2 2.5,-5.9 5.9,-5.9 2.1,0 3.4,0.7 4.6,1.8 l -1.4,1.4 c -0.9,-0.9 -1.8,-1.4 -3.2,-1.4 -2.3,0 -3.9,1.8 -3.9,4.1 0,2.3 1.6,4.1 3.9,4.1 1.4,0 2.3,-0.7 3.4,-1.6 l 1.4,1.4 c -1.1,1.1 -2.5,2.1 -4.6,2.1 -3.6,0 -6.1,-2.5 -6.1,-6 z"
   id="path54" />
	<path
   class="st2"
   d="M 222.5,73.2 H 231 V 75 h -6.6 v 3 h 5.7 v 1.8 h -5.7 V 83 h 6.6 v 1.8 h -8.7 V 73.2 c 0,0 0.2,0 0.2,0 z"
   id="path56" />
	<path
   class="st2"
   d="m 233.7,73.2 h 2.1 l 3.4,5.5 3.4,-5.5 h 2.1 v 11.6 h -2.1 v -8.2 l -3.7,5.5 v 0 l -3.7,-5.5 v 8.2 h -2.1 V 73.2 Z"
   id="path58" />
	<path
   class="st2"
   d="m 247.9,73.2 h 2.1 v 4.1 h 2.7 c 2.5,0 4.3,1.4 4.3,3.7 0,2.3 -1.6,3.9 -4.3,3.9 h -4.6 z m 4.5,9.6 c 1.6,0 2.3,-0.7 2.3,-2.1 0,-1.1 -0.9,-1.8 -2.5,-1.8 h -2.5 v 3.9 z"
   id="path60" />
	<path
   class="st2"
   d="m 259.1,73.2 h 2.1 v 8.5 l 5.9,-8.5 h 1.8 v 11.6 h -2.1 v -8.5 l -5.7,8.5 h -1.8 z"
   id="path62" />
	<path
   class="st2"
   d="m 276.6,73.2 h 2.1 v 8.5 l 5.9,-8.5 h 1.8 v 11.6 h -2.1 v -8.5 l -5.7,8.5 h -1.8 z"
   id="path64" />
	<path
   class="st2"
   d="m 294.5,73.2 h 5.3 c 1.4,0 2.3,0.5 3,0.9 0.5,0.5 0.7,1.1 0.7,2.1 0,1.4 -0.7,2.1 -1.6,2.5 1.4,0.5 2.3,1.1 2.3,2.7 0,2.1 -1.6,3.2 -4.3,3.2 h -5.3 V 73.2 Z m 4.8,4.8 c 1.4,0 2.3,-0.5 2.3,-1.6 0,-0.9 -0.7,-1.4 -2.1,-1.4 h -3 v 3 z m 0.4,5.1 c 1.4,0 2.3,-0.5 2.3,-1.6 0,-0.9 -0.7,-1.6 -2.3,-1.6 h -3.2 v 3.2 z"
   id="path66" />
	<path
   class="st2"
   d="m 305.9,78.9 c 0,-3.2 2.5,-5.9 5.9,-5.9 3.4,0 5.9,2.7 5.9,5.9 0,3.2 -2.5,5.9 -5.9,5.9 -3.4,0.1 -5.9,-2.4 -5.9,-5.9 z m 9.8,0 c 0,-2.3 -1.6,-4.1 -3.9,-4.1 -2.3,0 -3.9,1.8 -3.9,4.1 0,2.3 1.6,4.1 3.9,4.1 2.3,0.1 3.9,-1.8 3.9,-4.1 z"
   id="path68" />
	<path
   class="st2"
   d="m 319.8,78.9 c 0,-3.2 2.5,-5.9 5.9,-5.9 2.1,0 3.4,0.7 4.6,1.8 l -1.4,1.6 C 328,75.5 327.1,75 325.7,75 c -2.3,0 -3.9,1.8 -3.9,4.1 0,2.3 1.6,4.1 3.9,4.1 1.4,0 2.3,-0.7 3.4,-1.6 l 1.4,1.4 c -1.1,1.1 -2.5,2.1 -4.6,2.1 -3.6,-0.2 -6.1,-2.7 -6.1,-6.2 z"
   id="path70" />
	<path
   class="st2"
   d="m 332.6,73.2 h 9.4 v 11.6 h -2.1 V 75 h -5.3 v 9.8 h -2.1 z"
   id="path72" />
	<path
   class="st2"
   d="m 344.9,73.2 h 2.1 v 8.5 l 5.9,-8.5 h 1.8 v 11.6 h -2.1 v -8.5 l -5.7,8.5 h -1.8 V 73.2 Z"
   id="path74" />
	<path
   class="st2"
   d="m 360.5,75.1 h -3.7 v -1.8 h 9.4 v 1.8 h -3.7 v 9.6 h -2.1 v -9.6 z"
   id="path76" />
	<path
   class="st2"
   d="m 371,73.2 h 1.8 l 5,11.6 h -2.1 l -1.1,-2.7 h -5.5 l -1.1,2.7 h -2.1 z m 2.7,6.9 -2.1,-4.6 -2.1,4.6 z"
   id="path78" />
	<path
   class="st2"
   d="M 379.9,73.2 H 382 V 78 h 5.5 v -4.8 h 2.1 v 11.6 h -2.1 v -5 H 382 v 4.8 h -2.1 z"
   id="path80" />
	<path
   class="st2"
   d="m 392.4,73.2 h 2.1 v 8.5 l 5.9,-8.5 h 1.8 v 11.6 h -2.1 v -8.5 l -5.7,8.5 h -1.8 V 73.2 Z"
   id="path82" />
	<path
   class="st2"
   d="m 407.3,80.3 c -1.6,-0.5 -2.7,-1.6 -2.7,-3.4 0,-2.3 1.6,-3.7 4.3,-3.7 h 5 v 11.6 h -2.1 V 81 h -2.5 l -3,3.9 H 404 Z m 4.8,-1.4 V 75 h -3 c -1.6,0 -2.5,0.7 -2.5,2.1 0,1.1 0.9,2.1 2.3,2.1 h 3.2 z"
   id="path84" />
	<path
   class="st2"
   d="m 210.4,98.8 h 4.6 c 2.7,0 4.3,1.6 4.3,3.9 0,2.5 -2.1,3.9 -4.6,3.9 h -2.3 v 3.7 h -2.1 V 98.8 Z m 4.4,6.2 c 1.6,0 2.5,-0.9 2.5,-2.1 0,-1.4 -0.9,-2.1 -2.5,-2.1 h -2.3 v 4.1 h 2.3 z"
   id="path86" />
	<path
   class="st2"
   d="m 220.9,104.8 c 0,-3.2 2.5,-5.9 5.9,-5.9 3.4,0 5.9,2.7 5.9,5.9 0,3.2 -2.5,5.9 -5.9,5.9 -3.4,0 -5.9,-2.7 -5.9,-5.9 z m 9.8,0 c 0,-2.3 -1.6,-4.1 -3.9,-4.1 -2.3,0 -3.9,1.8 -3.9,4.1 0,2.3 1.6,4.1 3.9,4.1 2.3,0 3.9,-2.1 3.9,-4.1 z"
   id="path88" />
	<path
   class="st2"
   d="m 234.9,104.8 c 0,-3.2 2.5,-5.9 5.9,-5.9 2.1,0 3.4,0.7 4.6,1.8 l -1.4,1.6 c -0.9,-0.9 -1.8,-1.4 -3.2,-1.4 -2.3,0 -3.9,1.8 -3.9,4.1 0,2.3 1.6,4.1 3.9,4.1 1.4,0 2.3,-0.7 3.4,-1.6 l 1.4,1.4 c -1.1,1.1 -2.5,2.1 -4.6,2.1 -3.6,-0.3 -6.1,-3 -6.1,-6.2 z"
   id="path90" />
	<path
   class="st2"
   d="m 247.2,104.8 c 0,-3.2 2.5,-5.9 5.9,-5.9 2.1,0 3.4,0.7 4.6,1.8 l -1.4,1.6 c -0.9,-0.9 -1.8,-1.4 -3.2,-1.4 -2.3,0 -3.9,1.8 -3.9,4.1 0,2.3 1.6,4.1 3.9,4.1 1.4,0 2.3,-0.7 3.4,-1.6 l 1.4,1.4 c -1.1,1.1 -2.5,2.1 -4.6,2.1 -3.6,-0.3 -6.1,-3 -6.1,-6.2 z"
   id="path92" />
	<path
   class="st2"
   d="m 259.7,98.8 h 2.1 v 8.5 l 5.9,-8.5 h 1.8 v 11.6 h -2.1 V 102 l -5.7,8.5 H 260 Z"
   id="path94" />
	<path
   class="st2"
   d="m 272.5,98.8 h 2.1 v 8.5 l 5.9,-8.5 h 1.8 v 11.6 h -2.1 V 102 l -5.7,8.5 h -1.8 z m 2.3,-3.2 1.1,-0.2 c 0.2,0.7 0.7,1.1 1.4,1.1 0.7,0 1.1,-0.5 1.4,-1.1 l 1.1,0.2 c -0.2,1.4 -1.1,2.3 -2.5,2.3 -1.4,0 -2.3,-0.9 -2.5,-2.3 z"
   id="path96" />
	<path
   class="st2"
   d="m 284.6,104.8 c 0,-3.2 2.5,-5.9 5.9,-5.9 2.1,0 3.4,0.7 4.6,1.8 l -1.4,1.6 c -0.9,-0.9 -1.8,-1.4 -3.2,-1.4 -2.3,0 -3.9,1.8 -3.9,4.1 0,2.3 1.6,4.1 3.9,4.1 1.4,0 2.3,-0.7 3.4,-1.6 l 1.4,1.4 c -1.1,1.1 -2.5,2.1 -4.6,2.1 -3.5,-0.3 -6.1,-3 -6.1,-6.2 z"
   id="path98" />
	<path
   class="st2"
   d="m 297.4,98.8 h 2.1 v 5.7 l 5.5,-5.7 h 2.5 l -4.8,5 5,6.6 h -2.5 l -3.9,-5.3 -1.8,1.8 v 3.4 h -2.1 z"
   id="path100" />
	<path
   class="st2"
   d="m 308.4,104.8 c 0,-3.2 2.5,-5.9 5.9,-5.9 3.4,0 5.9,2.7 5.9,5.9 0,3.2 -2.5,5.9 -5.9,5.9 -3.4,0 -5.9,-2.7 -5.9,-5.9 z m 9.8,0 c 0,-2.3 -1.6,-4.1 -3.9,-4.1 -2.3,0 -3.9,1.8 -3.9,4.1 0,2.3 1.6,4.1 3.9,4.1 2.3,0 3.9,-2.1 3.9,-4.1 z"
   id="path102" />
	<path
   class="st2"
   d="m 322.8,98.8 h 2.1 v 8.5 l 5.9,-8.5 h 1.8 v 11.6 h -2.1 V 102 l -5.7,8.5 H 323 V 98.8 Z m 2.5,-3.2 1.1,-0.2 c 0.2,0.7 0.7,1.1 1.4,1.1 0.7,0 1.1,-0.5 1.4,-1.1 l 1.1,0.2 c -0.2,1.4 -1.1,2.3 -2.5,2.3 -1.4,0 -2.3,-0.9 -2.5,-2.3 z"
   id="path104" />
	<path
   class="st2"
   d="m 344.7,98.8 h 1.8 l 5,11.6 h -2.1 l -1.1,-2.7 h -5.5 l -1.1,2.7 h -2.1 z m 2.7,7.1 -2.1,-4.6 -2.1,4.6 z"
   id="path106" />
	<path
   class="st2"
   d="m 353.6,98.8 h 2.1 v 5.7 l 5.5,-5.7 h 2.5 l -4.8,5 5,6.6 h -2.5 l -3.9,-5.3 -1.8,1.8 v 3.4 h -2.1 z"
   id="path108" />
	<path
   class="st2"
   d="m 369.6,98.8 h 1.8 l 5,11.6 h -2.1 l -1.1,-2.7 h -5.5 l -1.1,2.7 h -2.1 z m 3,7.1 -2.1,-4.6 -2.1,4.6 z"
   id="path110" />
	<path
   class="st2"
   d="m 377.4,108.6 h 1.1 c 0.9,-1.8 1.4,-4.3 1.4,-8 V 99 h 8 v 9.8 h 1.4 l -0.2,4.3 h -1.6 v -2.5 h -8.2 l -0.2,2.5 h -1.8 v -4.6 h 0.1 z m 8.4,0 v -8 h -4.1 v 1.4 c 0,2.7 -0.5,5 -1.1,6.6 z"
   id="path112" />
	<path
   class="st2"
   d="m 391.1,98.8 h 8.5 v 1.8 H 393 v 3 h 5.7 v 1.8 H 393 v 3.2 h 6.6 v 1.8 h -8.7 V 98.8 Z"
   id="path114" />
	<path
   class="st2"
   d="m 402.3,98.8 h 2.1 l 3.4,5.5 3.4,-5.5 h 2.1 v 11.6 h -2.1 v -8.2 l -3.7,5.5 v 0 l -3.7,-5.5 v 8.2 h -2.1 V 98.8 Z"
   id="path116" />
	<path
   class="st2"
   d="m 416.4,98.8 h 2.1 v 8.5 l 5.9,-8.5 h 1.8 v 11.6 h -2.1 V 102 l -5.7,8.5 h -1.8 V 98.8 Z"
   id="path118" />
	<path
   class="st2"
   d="m 429.2,98.8 h 2.1 v 8.5 l 5.9,-8.5 h 1.8 v 11.6 h -2 V 102 l -5.7,8.5 h -2.1 z"
   id="path120" />
	<path
   class="st2"
   d="m 210,130.3 c 0,-3.2 2.5,-5.9 5.9,-5.9 3.4,0 5.9,2.7 5.9,5.9 0,3.2 -2.5,5.9 -5.9,5.9 -3.4,0 -5.9,-2.7 -5.9,-5.9 z m 9.8,0 c 0,-2.3 -1.6,-4.1 -3.9,-4.1 -2.3,0 -3.9,1.8 -3.9,4.1 0,2.3 1.6,4.1 3.9,4.1 2.3,0 3.9,-1.8 3.9,-4.1 z"
   id="path122" />
	<path
   class="st2"
   d="m 224.3,124.6 h 8.7 v 1.8 h -6.6 v 2.7 h 3.2 c 2.5,0 4.1,1.4 4.1,3.4 0,2.3 -1.6,3.7 -4.3,3.7 h -5 c -0.1,0.1 -0.1,-11.6 -0.1,-11.6 z m 4.8,9.6 c 1.8,0 2.7,-0.5 2.7,-1.8 0,-1.1 -0.9,-1.6 -2.3,-1.6 h -3 v 3.4 z"
   id="path124" />
	<path
   class="st2"
   d="m 236.2,124.6 h 4.6 c 2.7,0 4.3,1.6 4.3,3.9 0,2.5 -2.1,3.9 -4.6,3.9 h -2.3 v 3.7 h -2.1 v -11.5 z m 4.4,6 c 1.6,0 2.5,-0.9 2.5,-2.1 0,-1.4 -0.9,-2.1 -2.5,-2.1 h -2.3 v 4.1 c 0,0.1 2.3,0.1 2.3,0.1 z"
   id="path126" />
	<path
   class="st2"
   d="m 250.2,124.4 h 1.8 l 5,11.6 h -2 l -1.1,-2.7 h -5.5 l -1.1,2.7 h -2.1 z m 2.7,7.1 -2.1,-4.6 -2.1,4.6 z"
   id="path128" />
	<path
   class="st2"
   d="m 266.6,127.4 c 0,1.4 -0.9,2.3 -2.1,2.7 1.4,0.5 2.3,1.4 2.3,2.7 0,1.8 -1.6,3.4 -4.3,3.4 -2.3,0 -3.7,-0.7 -5,-1.8 l 1.1,-1.4 c 1.1,0.9 2.3,1.6 3.9,1.6 1.1,0 2.3,-0.7 2.3,-1.8 0,-1.1 -1.1,-1.6 -2.7,-1.6 h -1.4 v -1.6 h 1.4 c 1.4,0 2.3,-0.7 2.3,-1.6 0,-0.9 -0.9,-1.6 -2.3,-1.6 -1.4,0 -2.3,0.5 -3.2,1.4 l -1.1,-1.4 c 1.1,-1.1 2.5,-1.8 4.3,-1.8 2.9,-0.2 4.5,0.9 4.5,2.8 z"
   id="path130" />
	<path
   class="st2"
   d="m 268.9,130.3 c 0,-3.2 2.5,-5.9 5.9,-5.9 3.4,0 5.9,2.7 5.9,5.9 0,3.2 -2.5,5.9 -5.9,5.9 -3.4,0.1 -5.9,-2.7 -5.9,-5.9 z m 9.8,0 c 0,-2.3 -1.6,-4.1 -3.9,-4.1 -2.3,0 -3.9,1.8 -3.9,4.1 0,2.3 1.6,4.1 3.9,4.1 2.3,0 3.9,-1.8 3.9,-4.1 z"
   id="path132" />
	<path
   class="st2"
   d="m 283.3,124.6 h 5.3 c 1.4,0 2.3,0.5 3,0.9 0.5,0.5 0.7,1.1 0.7,2.1 0,1.4 -0.7,2.1 -1.6,2.5 1.4,0.5 2.3,1.1 2.3,2.7 0,2.1 -1.6,3.2 -4.3,3.2 h -5.3 v -11.4 z m 4.8,4.8 c 1.4,0 2.3,-0.5 2.3,-1.6 0,-0.9 -0.7,-1.4 -2.1,-1.4 h -3 v 3 z m 0.7,4.8 c 1.4,0 2.3,-0.5 2.3,-1.6 0,-0.9 -0.7,-1.6 -2.3,-1.6 h -3.4 v 3.2 z"
   id="path134" />
	<path
   class="st2"
   d="m 299,124.4 h 1.8 l 5,11.6 h -2.1 l -1.1,-2.7 h -5.5 L 296,136 h -2 z m 3,7.1 -2.1,-4.6 -2.1,4.6 z"
   id="path136" />
	<path
   class="st2"
   d="m 307.9,124.6 h 2.1 v 4.8 h 5.5 v -4.8 h 2.1 v 11.6 h -2.1 v -4.8 H 310 v 4.8 h -2.1 z"
   id="path138" />
	<path
   class="st2"
   d="m 320.5,124.6 h 2.1 v 8.5 l 5.9,-8.5 h 1.8 v 11.6 h -2.1 v -8.5 l -5.7,8.5 h -1.8 v -11.6 c 0,0 -0.2,0 -0.2,0 z"
   id="path140" />
	<path
   class="st2"
   d="m 335.6,131.7 c -1.6,-0.5 -2.7,-1.6 -2.7,-3.4 0,-2.3 1.6,-3.7 4.3,-3.7 h 5 v 11.6 h -2.1 v -3.9 h -2.5 l -3,3.9 h -2.3 z m 4.5,-1.4 v -3.9 h -3 c -1.6,0 -2.5,0.7 -2.5,2.1 0,1.1 0.9,2.1 2.3,2.1 h 3.2 z"
   id="path142" />
</g>
<g
   id="g232"
   transform="matrix(0.53221452,0,0,0.53221452,-0.0154939,-0.44126551)">
	<g
   id="g230">
		<path
   class="st3"
   d="m 165.7,41 c -0.4,-1.8 -2.1,-2.9 -3.9,-2.5 L 98.9,52.6 c 0,0 -0.1,0 -0.1,0 -0.2,-0.1 -0.5,-0.1 -0.7,-0.1 L 50.3,51.7 32.5,3.4 C 32.4,3.2 32.4,2.9 32.3,2.7 31.5,1.1 29.6,0.4 27.9,1.1 l -26,12.2 c -1.6,0.8 -2.3,2.7 -1.6,4.4 0.6,1.2 1.7,1.9 3,1.9 0.5,0 0.9,-0.1 1.4,-0.3 l 12.7,-6 11.2,41.7 c 0,0.3 0.1,0.6 0.2,0.9 l 2.5,9.5 -27.1,6.9 c 0,0 0,0 0,0 -0.2,0.1 -0.4,0.1 -0.6,0.2 -0.2,0.1 -0.4,0.2 -0.6,0.3 0,0 0,0 0,0 0,0 0,0 -0.1,0.1 -0.1,0.1 -0.3,0.2 -0.4,0.4 -0.1,0.1 -0.1,0.2 -0.2,0.3 -0.1,0.1 -0.1,0.2 -0.2,0.3 0,0 -0.1,0.1 -0.1,0.2 0,0.1 -0.1,0.2 -0.1,0.3 0,0.1 -0.1,0.2 -0.1,0.3 0,0.1 -0.1,0.2 -0.1,0.3 0,0.1 0,0.2 0,0.3 0,0.1 0,0.2 0,0.3 0,0.2 0,0.4 0.1,0.6 0,0 0,0 0,0 0,0 0,0 0,0 0,0 0,0.1 0,0.1 0,0.2 0.1,0.3 0.2,0.5 0,0.1 0,0.2 0.1,0.2 0.1,0.1 0.1,0.3 0.2,0.4 0,0 0,0 0,0.1 l 19,25.1 -10.9,34.7 c -0.5,1.7 0.4,3.6 2.1,4.1 0.3,0.1 0.7,0.2 1,0.2 1.4,0 2.7,-0.9 3.1,-2.3 l 9.5,-30.2 5.8,7.6 c 0.6,0.8 1.6,1.3 2.6,1.3 0.7,0 1.4,-0.2 2,-0.7 1.4,-1.1 1.7,-3.1 0.6,-4.6 l -8.6,-11.3 9.1,-28.8 44.6,6.2 20.9,58.6 c 0.5,1.3 1.7,2.2 3.1,2.2 0.5,0 1,-0.1 1.5,-0.4 1.5,-0.8 2,-2.6 1.5,-4.2 l -19.6,-55.3 9,1.3 22.2,57.5 c 0.5,1.3 1.7,2.1 3.1,2.1 0.4,0 0.8,-0.1 1.2,-0.2 1.7,-0.7 2.5,-2.5 1.9,-4.2 l -22.6,-58.5 2.1,-20 56.7,-12.7 c 1.8,-0.5 2.9,-2.2 2.5,-4 z M 27.4,8.5 l 15.9,43 -8.9,-0.2 -10.9,-41 z m 10.8,57.4 -2.1,-7.9 9.6,0.2 3.4,9.3 z M 10.6,77.4 31,72.3 23.9,94.9 Z M 83.5,62.6 c -0.7,-1.9 -2.8,-2.7 -4.6,-1.8 -1.5,0.8 -2,2.7 -1.5,4.2 l 2.4,6.7 -24.6,-3.4 c 0.5,-0.9 0.5,-2 0.2,-3 L 52.8,58.3 98,59 c 0,0 0,0 0.1,0 0.3,0 0.5,0 0.8,-0.1 0.2,0.1 0.5,0.1 0.8,0.1 0.1,0 0.1,0 0.2,0 l -1.6,15.2 -11,-1.5 z"
   id="path146" />
		<g
   id="g228">
			<path
   class="st4"
   d="m 208.9,33.8 h 2.3 v 9.9 l 6.8,-9.9 h 2.2 V 47.3 H 218 v -9.9 l -6.8,9.9 H 209 V 33.8 Z"
   id="path148" />
			<path
   class="st4"
   d="m 223.8,33.8 h 2.4 v 5.6 h 6.5 v -5.6 h 2.4 v 13.5 h -2.4 v -5.7 h -6.5 v 5.7 h -2.4 z"
   id="path150" />
			<path
   class="st4"
   d="m 237.9,40.6 c 0,-3.8 2.9,-7 7,-7 2.5,0 4,0.9 5.3,2.1 l -1.5,1.8 c -1.1,-1 -2.2,-1.7 -3.8,-1.7 -2.6,0 -4.5,2.1 -4.5,4.8 0,2.6 1.9,4.8 4.5,4.8 1.7,0 2.7,-0.7 3.9,-1.8 l 1.5,1.5 c -1.4,1.5 -3,2.4 -5.5,2.4 -3.9,0.1 -6.9,-3 -6.9,-6.9 z"
   id="path152" />
			<path
   class="st4"
   d="m 256.1,36 h -4.3 v -2.2 h 11 V 36 h -4.3 v 11.3 h -2.4 z"
   id="path154" />
			<path
   class="st4"
   d="m 265.3,33.8 h 2.3 v 9.9 l 6.8,-9.9 h 2.2 v 13.5 h -2.3 v -9.9 l -6.8,9.9 h -2.2 z"
   id="path156" />
			<path
   class="st4"
   d="m 283.6,36 h -4.3 v -2.2 h 11 V 36 H 286 v 11.3 h -2.4 z"
   id="path158" />
			<path
   class="st4"
   d="m 292.4,46.9 0.9,-1.8 c 0.5,0.3 1.1,0.4 1.7,0.4 0.6,0 1.5,-0.4 2.1,-1.5 l -5.6,-10.2 h 2.7 l 4.2,7.9 3.7,-7.9 h 2.6 l -5.3,10.6 c -1.1,2.3 -2.5,3.2 -4.3,3.2 -1,0 -1.9,-0.3 -2.7,-0.7 z"
   id="path160" />
			<path
   class="st4"
   d="m 310.2,36 h -4.3 v -2.2 h 11 V 36 h -4.3 v 11.3 h -2.4 z"
   id="path162" />
			<path
   class="st4"
   d="m 325.2,33.8 h 2.3 v 9.9 l 6.8,-9.9 h 2.2 v 13.5 h -2.3 v -9.9 l -6.8,9.9 h -2.2 z"
   id="path164" />
			<path
   class="st4"
   d="m 349.5,37.2 c 0,1.7 -1.1,2.6 -2.3,3.2 1.5,0.5 2.6,1.5 2.6,3.2 0,2.2 -2,4 -5,4 -2.6,0 -4.3,-0.8 -5.9,-2.2 l 1.3,-1.6 c 1.2,1.2 2.7,1.8 4.5,1.8 1.4,0 2.6,-0.8 2.6,-2 0,-1.4 -1.3,-2 -3.1,-2 h -1.5 v -2 h 1.5 c 1.7,0 2.8,-0.7 2.8,-2 0,-1.1 -1,-1.9 -2.6,-1.9 -1.6,0 -2.8,0.5 -3.8,1.5 l -1.3,-1.5 c 1.3,-1.2 2.8,-2 5.2,-2 3,-0.1 5,1.4 5,3.5 z"
   id="path166" />
			<path
   class="st4"
   d="m 352.3,46.9 0.9,-1.8 c 0.5,0.3 1.1,0.4 1.7,0.4 0.6,0 1.5,-0.4 2.1,-1.5 l -5.6,-10.2 h 2.7 l 4.2,7.9 3.7,-7.9 h 2.6 l -5.3,10.6 c -1.1,2.3 -2.5,3.2 -4.3,3.2 -1.1,0 -1.9,-0.3 -2.7,-0.7 z"
   id="path168" />
			<path
   class="st4"
   d="m 374.7,42 c -1,0.5 -2.5,1.1 -3.8,1.1 -2.6,0 -4.5,-1.4 -4.5,-4.3 v -5 h 2.4 v 4.4 c 0,1.7 0.8,2.7 2.5,2.7 1.3,0 2.6,-0.5 3.4,-1.1 v -6.1 h 2.4 v 13.5 h -2.4 z"
   id="path170" />
			<path
   class="st4"
   d="m 380.6,33.8 h 10 V 36 H 383 v 3.5 h 6.8 v 2.1 H 383 v 3.6 h 7.8 v 2.1 H 380.7 V 33.8 Z"
   id="path172" />
			<path
   class="st4"
   d="m 393.5,33.8 h 2.4 v 5.6 h 6.5 v -5.6 h 2.4 v 13.5 h -2.4 v -5.7 h -6.5 v 5.7 h -2.4 z"
   id="path174" />
			<path
   class="st4"
   d="m 408.2,33.8 h 2.3 v 9.9 l 6.8,-9.9 h 2.2 v 13.5 h -2.3 v -9.9 l -6.8,9.9 h -2.2 z"
   id="path176" />
			<path
   class="st4"
   d="m 425.8,42.3 c -1.9,-0.5 -3.2,-1.9 -3.2,-4.1 0,-2.6 1.9,-4.3 5,-4.3 h 6 v 13.5 h -2.4 v -4.7 h -3 l -3.4,4.7 H 422 Z m 5.4,-1.7 V 36 h -3.5 c -1.8,0 -2.8,0.9 -2.8,2.3 0,1.4 1.1,2.3 2.8,2.3 z"
   id="path178" />
			<path
   class="st4"
   d="m 207.4,75.6 h 1.3 c 1.1,-2.2 1.7,-5 1.7,-9.5 v -1.9 h 9.4 v 11.4 h 1.7 l -0.3,5 h -2 v -2.9 h -9.5 l -0.2,2.9 h -2.1 z m 10.1,0 v -9.3 h -4.8 v 1.5 c 0,3.1 -0.5,5.8 -1.5,7.7 h 6.3 z"
   id="path180" />
			<path
   class="st4"
   d="m 223.7,64.2 h 10 v 2.1 H 226 v 3.5 h 6.8 V 72 H 226 v 3.6 h 7.8 v 2.1 h -10.1 z"
   id="path182" />
			<path
   class="st4"
   d="m 239.9,66.4 h -4.3 v -2.2 h 11 v 2.2 h -4.3 v 11.3 h -2.4 z"
   id="path184" />
			<path
   class="st4"
   d="m 247.6,71 c 0,-3.8 2.9,-7 7,-7 2.5,0 4,0.9 5.3,2.1 l -1.5,1.8 c -1.1,-1 -2.2,-1.7 -3.8,-1.7 -2.6,0 -4.5,2.1 -4.5,4.8 0,2.6 1.9,4.8 4.5,4.8 1.7,0 2.7,-0.7 3.9,-1.8 l 1.5,1.5 c -1.4,1.5 -3,2.4 -5.5,2.4 -4,0.1 -6.9,-3 -6.9,-6.9 z"
   id="path186" />
			<path
   class="st4"
   d="m 265.8,66.4 h -4.3 v -2.2 h 11 v 2.2 h -4.3 v 11.3 h -2.4 z"
   id="path188" />
			<path
   class="st4"
   d="m 275,64.2 h 6.1 c 1.5,0 2.8,0.4 3.5,1.2 0.6,0.6 0.9,1.3 0.9,2.3 0,1.6 -0.9,2.5 -1.9,3 1.6,0.5 2.7,1.4 2.7,3.3 0,2.4 -2,3.7 -5,3.7 H 275 Z m 5.6,5.7 c 1.5,0 2.6,-0.6 2.6,-1.9 0,-1.1 -0.9,-1.7 -2.4,-1.7 h -3.4 v 3.6 z m 0.7,5.7 c 1.6,0 2.6,-0.6 2.6,-1.9 0,-1.1 -0.9,-1.8 -2.8,-1.8 h -3.8 v 3.7 z"
   id="path190" />
			<path
   class="st4"
   d="m 293.3,64.1 h 2.2 l 6,13.6 H 299 l -1.4,-3.3 h -6.4 l -1.4,3.3 h -2.4 z m 3.4,8.3 -2.3,-5.4 -2.3,5.4 z"
   id="path192" />
			<path
   class="st4"
   d="m 302.7,79.6 c 1.1,-0.2 1.7,-0.7 1.7,-1.6 0,-0.1 0,-0.1 0,-0.2 h -1 v -2.6 h 2.6 v 2.2 c 0,2.1 -1,3.1 -3,3.2 z"
   id="path194" />
			<path
   class="st4"
   d="m 314.2,71 c 0,-3.8 2.9,-7 7,-7 2.5,0 4,0.9 5.3,2.1 l -1.5,1.8 c -1.1,-1 -2.2,-1.7 -3.8,-1.7 -2.6,0 -4.5,2.1 -4.5,4.8 0,2.6 1.9,4.8 4.5,4.8 1.7,0 2.7,-0.7 3.9,-1.8 l 1.5,1.5 c -1.4,1.5 -3,2.4 -5.5,2.4 -3.9,0.1 -6.9,-3 -6.9,-6.9 z"
   id="path196" />
			<path
   class="st4"
   d="m 329.1,64.2 h 10 v 2.1 h -7.7 v 3.5 h 6.8 V 72 h -6.8 v 3.6 h 7.8 v 2.1 h -10.1 z"
   id="path198" />
			<path
   class="st4"
   d="m 342,64.2 h 2.5 l 4.1,6.4 4.1,-6.4 h 2.5 V 77.7 H 353 V 68 l -4.3,6.4 h -0.1 l -4.2,-6.3 v 9.7 H 342 Z"
   id="path200" />
			<path
   class="st4"
   d="m 358.8,64.2 h 2.4 v 4.9 h 3.1 c 3,0 5.1,1.5 5.1,4.2 0,2.7 -2,4.4 -5.1,4.4 h -5.5 z m 5.4,11.4 c 1.8,0 2.8,-0.8 2.8,-2.3 0,-1.4 -1,-2.1 -2.8,-2.1 h -3 v 4.5 h 3 z"
   id="path202" />
			<path
   class="st4"
   d="m 371.9,64.2 h 2.3 v 9.9 l 6.8,-9.9 h 2.2 v 13.5 h -2.3 v -9.9 l -6.8,9.9 h -2.2 z"
   id="path204" />
			<path
   class="st4"
   d="m 208.9,94.6 h 2.3 v 9.9 l 6.8,-9.9 h 2.2 v 13.5 H 218 v -9.9 l -6.8,9.9 H 209 V 94.6 Z"
   id="path206" />
			<path
   class="st4"
   d="m 229.6,94.6 h 6.1 c 1.5,0 2.8,0.4 3.5,1.2 0.6,0.6 0.9,1.3 0.9,2.3 0,1.6 -0.9,2.5 -1.9,3 1.6,0.5 2.7,1.5 2.7,3.3 0,2.4 -2,3.7 -5,3.7 h -6.3 z m 5.6,5.7 c 1.5,0 2.6,-0.6 2.6,-1.9 0,-1.1 -0.9,-1.7 -2.4,-1.7 H 232 v 3.6 z m 0.7,5.7 c 1.6,0 2.6,-0.6 2.6,-1.9 0,-1.1 -0.9,-1.8 -2.8,-1.8 H 232 v 3.7 z"
   id="path208" />
			<path
   class="st4"
   d="m 243,101.4 c 0,-3.8 2.9,-7 7.1,-7 4.2,0 7.1,3.2 7.1,7 0,3.8 -2.9,7 -7.1,7 -4.2,0 -7.1,-3.2 -7.1,-7 z m 11.7,0 c 0,-2.6 -1.9,-4.8 -4.6,-4.8 -2.7,0 -4.6,2.1 -4.6,4.8 0,2.6 1.9,4.8 4.6,4.8 2.7,0 4.6,-2.2 4.6,-4.8 z"
   id="path210" />
			<path
   class="st4"
   d="m 259.4,101.4 c 0,-3.8 2.9,-7 7,-7 2.5,0 4,0.9 5.3,2.1 l -1.5,1.8 c -1.1,-1 -2.2,-1.7 -3.8,-1.7 -2.6,0 -4.5,2.1 -4.5,4.8 0,2.6 1.9,4.8 4.5,4.8 1.7,0 2.7,-0.7 3.9,-1.8 l 1.5,1.5 c -1.4,1.5 -3,2.4 -5.5,2.4 -3.9,0.1 -6.9,-3 -6.9,-6.9 z"
   id="path212" />
			<path
   class="st4"
   d="m 274.3,94.6 h 11 v 13.5 H 283 V 96.7 h -6.3 v 11.4 h -2.4 z"
   id="path214" />
			<path
   class="st4"
   d="m 288.8,94.6 h 2.3 v 9.9 l 6.8,-9.9 h 2.2 v 13.5 h -2.3 v -9.9 l -6.8,9.9 h -2.2 z"
   id="path216" />
			<path
   class="st4"
   d="m 307,96.8 h -4.3 v -2.2 h 11 v 2.2 h -4.3 v 11.3 H 307 Z"
   id="path218" />
			<path
   class="st4"
   d="m 319.3,94.5 h 2.2 l 6,13.6 H 325 l -1.4,-3.3 h -6.4 l -1.4,3.3 h -2.4 z m 3.4,8.3 -2.3,-5.4 -2.3,5.4 z"
   id="path220" />
			<path
   class="st4"
   d="m 329.8,94.6 h 2.4 v 5.6 h 6.5 v -5.6 h 2.4 v 13.5 h -2.4 v -5.7 h -6.5 v 5.7 h -2.4 z"
   id="path222" />
			<path
   class="st4"
   d="m 344.5,94.6 h 2.3 v 9.9 l 6.8,-9.9 h 2.2 v 13.5 h -2.3 v -9.9 l -6.8,9.9 h -2.2 z"
   id="path224" />
			<path
   class="st4"
   d="m 362,103 c -1.9,-0.5 -3.2,-1.9 -3.2,-4.1 0,-2.6 1.9,-4.3 5,-4.3 h 6 v 13.5 h -2.4 v -4.7 h -3 l -3.4,4.7 h -2.8 z m 5.5,-1.6 V 96.8 H 364 c -1.8,0 -2.8,0.9 -2.8,2.3 0,1.4 1.1,2.3 2.8,2.3 z"
   id="path226" />
		</g>
	</g>
</g>
</svg>
