<svg width="143" height="35" viewBox="0 0 143 35" fill="none" xmlns="http://www.w3.org/2000/svg">
<path d="M0.00012207 31.9032V3.09679C0.00012207 1.38648 1.3866 0 3.09692 0H16.6161C18.2994 0 19.6691 1.34289 19.712 3.01578H31.9033C33.6136 3.01578 35.0001 4.40227 35.0001 6.11258V31.9032C35.0001 33.6135 33.6136 35 31.9033 35H3.09692C1.3866 35 0.00012207 33.6135 0.00012207 31.9032ZM2.03382 31.9032C2.03382 32.4719 2.4805 32.9364 3.04213 32.9649L3.09692 32.9663H31.9033L31.9581 32.9649C32.5197 32.9364 32.9664 32.4719 32.9664 31.9032V6.11258C32.9664 5.52551 32.4904 5.0496 31.9033 5.0496H17.6791V3.09679C17.6791 2.50972 17.2032 2.0337 16.6161 2.0337H3.09692C2.50985 2.0337 2.03382 2.50972 2.03382 3.09679V31.9032Z" fill="#FF553E"/>
<path d="M43.8341 4.25288H48.1838C49.7935 4.25288 50.977 4.61387 51.7345 5.33586C52.5039 6.04601 52.8885 7.05206 52.8885 8.354C52.8885 9.64411 52.4979 10.6561 51.7168 11.3899C50.9356 12.1237 49.758 12.4906 48.1838 12.4906H45.9646V16.6805H43.8341V4.25288ZM45.9646 6.20579V10.5377H48.095C49.0064 10.5377 49.6573 10.3543 50.0479 9.98735C50.4503 9.62044 50.6516 9.07599 50.6516 8.354C50.6516 7.67936 50.4444 7.15266 50.0302 6.77392C49.6159 6.39517 48.9709 6.20579 48.095 6.20579H45.9646Z" fill="#FF553E"/>
<path d="M56.7951 4.25288H59.2806L63.719 16.6805H61.4465L60.4168 13.5736H55.5345L54.4871 16.6805H52.3566L56.7951 4.25288ZM59.7777 11.6207L58.0201 6.29456H57.9846L56.1914 11.6207H59.7777Z" fill="#FF553E"/>
<path d="M68.688 16.8581C67.1849 16.8581 66.0486 16.4911 65.2793 15.7573C64.51 15.0117 64.0779 13.9583 63.9833 12.5972H66.2202C66.3149 13.3783 66.5516 13.9583 66.9304 14.337C67.321 14.7158 67.9068 14.9051 68.688 14.9051C69.4692 14.9051 70.0432 14.7394 70.4101 14.408C70.7889 14.0648 70.9782 13.6091 70.9782 13.041C70.9782 12.4965 70.7889 12.0586 70.4101 11.7272C70.0432 11.3958 69.4692 11.2301 68.688 11.2301H67.1789V9.34821H68.688C69.3982 9.34821 69.913 9.20618 70.2326 8.92212C70.5522 8.62622 70.7119 8.22381 70.7119 7.71487C70.7119 7.18225 70.5522 6.768 70.2326 6.4721C69.913 6.1762 69.3982 6.02826 68.688 6.02826C67.9779 6.02826 67.4571 6.19396 67.1257 6.52536C66.7943 6.85677 66.5812 7.40121 66.4865 8.15871H64.2496C64.3442 6.84493 64.7585 5.83888 65.4923 5.14057C66.2262 4.43042 67.2914 4.07534 68.688 4.07534C69.3863 4.07534 70.0018 4.16411 70.5344 4.34165C71.067 4.50735 71.5109 4.74999 71.8659 5.06955C72.221 5.37729 72.4873 5.7442 72.6649 6.17029C72.8542 6.58454 72.9489 7.04022 72.9489 7.53733C72.9489 8.75642 72.4459 9.65594 71.4398 10.2359V10.2714C72.6234 10.8987 73.2152 11.8811 73.2152 13.2185C73.2152 13.7393 73.1205 14.2246 72.9312 14.6743C72.7418 15.1123 72.4518 15.4969 72.0612 15.8283C71.6825 16.1479 71.209 16.4024 70.6409 16.5917C70.0846 16.7693 69.4337 16.8581 68.688 16.8581Z" fill="#FF553E"/>
<path d="M75.1633 4.25288H82.7974V6.20579H77.2937V16.6805H75.1633V4.25288Z" fill="#FF553E"/>
<path d="M88.8226 16.8581C87.9822 16.8581 87.2248 16.7279 86.5501 16.4675C85.8755 16.1952 85.2955 15.8047 84.8102 15.2957C84.3368 14.7749 83.9699 14.1358 83.7095 13.3783C83.4491 12.609 83.3189 11.7331 83.3189 10.7508V10.0051C83.3189 9.07007 83.4491 8.23564 83.7095 7.50182C83.9699 6.768 84.3368 6.14661 84.8102 5.63767C85.2955 5.12873 85.8755 4.74407 86.5501 4.48368C87.2366 4.21145 87.9941 4.07534 88.8226 4.07534C89.6511 4.07534 90.4027 4.21145 91.0773 4.48368C91.7638 4.74407 92.3438 5.12873 92.8172 5.63767C93.3025 6.13478 93.6753 6.75616 93.9357 7.50182C94.1961 8.23564 94.3263 9.07007 94.3263 10.0051V10.7508C94.3263 11.7331 94.1961 12.6031 93.9357 13.3606C93.6753 14.1181 93.3025 14.7572 92.8172 15.278C92.3438 15.7987 91.7638 16.1952 91.0773 16.4675C90.4027 16.7279 89.6511 16.8581 88.8226 16.8581ZM88.8226 14.9051C89.805 14.9051 90.5921 14.5737 91.1838 13.9109C91.7875 13.2481 92.0893 12.1947 92.0893 10.7508V10.0051C92.0893 8.67949 91.7875 7.68527 91.1838 7.02247C90.5802 6.35966 89.7931 6.02826 88.8226 6.02826C87.8284 6.02826 87.0354 6.35374 86.4436 7.00471C85.8518 7.65569 85.5559 8.65581 85.5559 10.0051V10.7508C85.5559 12.1711 85.8518 13.2185 86.4436 13.8932C87.0472 14.5678 87.8402 14.9051 88.8226 14.9051Z" fill="#FF553E"/>
<path d="M96.3673 4.25288H100.628C102.226 4.25288 103.362 4.54878 104.037 5.14057C104.723 5.73236 105.067 6.56087 105.067 7.6261C105.067 8.77417 104.54 9.63227 103.487 10.2004V10.2359C104.777 10.7803 105.422 11.7331 105.422 13.0943C105.422 14.266 105.078 15.1596 104.392 15.7751C103.717 16.3787 102.581 16.6805 100.983 16.6805H96.3673V4.25288ZM98.4977 6.20579V9.40147H100.539C101.403 9.40147 102.001 9.26536 102.333 8.99314C102.664 8.72091 102.83 8.32441 102.83 7.80363C102.83 7.28286 102.664 6.88636 102.333 6.61413C102.001 6.34191 101.403 6.20579 100.539 6.20579H98.4977ZM98.4977 11.1768V14.7276H100.894C101.758 14.7276 102.356 14.5856 102.688 14.3015C103.019 14.0056 103.185 13.5559 103.185 12.9522C103.185 12.3486 103.019 11.9048 102.688 11.6207C102.356 11.3248 101.758 11.1768 100.894 11.1768H98.4977Z" fill="#FF553E"/>
<path d="M112.437 16.8581C111.596 16.8581 110.839 16.7279 110.164 16.4675C109.489 16.1952 108.909 15.8047 108.424 15.2957C107.951 14.7749 107.584 14.1358 107.323 13.3783C107.063 12.609 106.933 11.7331 106.933 10.7508V10.0051C106.933 9.07007 107.063 8.23564 107.323 7.50182C107.584 6.768 107.951 6.14661 108.424 5.63767C108.909 5.12873 109.489 4.74407 110.164 4.48368C110.851 4.21145 111.608 4.07534 112.437 4.07534C113.265 4.07534 114.017 4.21145 114.691 4.48368C115.378 4.74407 115.958 5.12873 116.431 5.63767C116.916 6.13478 117.289 6.75616 117.55 7.50182C117.81 8.23564 117.94 9.07007 117.94 10.0051V10.7508C117.94 11.7331 117.81 12.6031 117.55 13.3606C117.289 14.1181 116.916 14.7572 116.431 15.278C115.958 15.7987 115.378 16.1952 114.691 16.4675C114.017 16.7279 113.265 16.8581 112.437 16.8581ZM112.437 14.9051C113.419 14.9051 114.206 14.5737 114.798 13.9109C115.401 13.2481 115.703 12.1947 115.703 10.7508V10.0051C115.703 8.67949 115.401 7.68527 114.798 7.02247C114.194 6.35966 113.407 6.02826 112.437 6.02826C111.442 6.02826 110.649 6.35374 110.058 7.00471C109.466 7.65569 109.17 8.65581 109.17 10.0051V10.7508C109.17 12.1711 109.466 13.2185 110.058 13.8932C110.661 14.5678 111.454 14.9051 112.437 14.9051Z" fill="#FF553E"/>
<path d="M119.981 4.25288H124.331C125.941 4.25288 127.124 4.61387 127.882 5.33586C128.651 6.04601 129.036 7.05206 129.036 8.354C129.036 9.64411 128.645 10.6561 127.864 11.3899C127.083 12.1237 125.905 12.4906 124.331 12.4906H122.112V16.6805H119.981V4.25288ZM122.112 6.20579V10.5377H124.242C125.153 10.5377 125.804 10.3543 126.195 9.98735C126.597 9.62044 126.799 9.07599 126.799 8.354C126.799 7.67936 126.591 7.15266 126.177 6.77392C125.763 6.39517 125.118 6.20579 124.242 6.20579H122.112Z" fill="#FF553E"/>
<path d="M140.746 4.25288H142.877V16.6805H140.746V4.25288ZM130.626 4.25288H132.757V8.44277H134.71C136.272 8.44277 137.444 8.8156 138.225 9.56126C139.018 10.2951 139.415 11.3011 139.415 12.5794C139.415 13.8813 139.03 14.8933 138.261 15.6153C137.503 16.3254 136.32 16.6805 134.71 16.6805H130.626V4.25288ZM134.621 14.7276C135.497 14.7276 136.142 14.5382 136.556 14.1595C136.971 13.7807 137.178 13.254 137.178 12.5794C137.178 11.8692 136.971 11.3307 136.556 10.9638C136.154 10.5851 135.509 10.3957 134.621 10.3957H132.757V14.7276H134.621Z" fill="#FF553E"/>
<path d="M48.8939 33.9536C48.0536 33.9536 47.2961 33.8234 46.6214 33.563C45.9468 33.2908 45.3668 32.9002 44.8816 32.3912C44.4081 31.8705 44.0412 31.2313 43.7808 30.4738C43.5205 29.7045 43.3903 28.8287 43.3903 27.8463V27.1006C43.3903 26.1656 43.5205 25.3312 43.7808 24.5973C44.0412 23.8635 44.4081 23.2421 44.8816 22.7332C45.3668 22.2243 45.9468 21.8396 46.6214 21.5792C47.3079 21.307 48.0654 21.1709 48.8939 21.1709C49.7224 21.1709 50.474 21.307 51.1487 21.5792C51.8351 21.8396 52.4151 22.2243 52.8885 22.7332C53.3738 23.2303 53.7466 23.8517 54.007 24.5973C54.2674 25.3312 54.3976 26.1656 54.3976 27.1006V27.8463C54.3976 28.8287 54.2674 29.6986 54.007 30.4561C53.7466 31.2136 53.3738 31.8527 52.8885 32.3735C52.4151 32.8943 51.8351 33.2908 51.1487 33.563C50.474 33.8234 49.7224 33.9536 48.8939 33.9536ZM48.8939 32.0007C49.8763 32.0007 50.6634 31.6693 51.2552 31.0064C51.8588 30.3436 52.1606 29.2903 52.1606 27.8463V27.1006C52.1606 25.775 51.8588 24.7808 51.2552 24.118C50.6516 23.4552 49.8645 23.1238 48.8939 23.1238C47.8997 23.1238 47.1067 23.4493 46.5149 24.1002C45.9231 24.7512 45.6272 25.7513 45.6272 27.1006V27.8463C45.6272 29.2666 45.9231 30.3141 46.5149 30.9887C47.1186 31.6633 47.9116 32.0007 48.8939 32.0007Z" fill="#FF553E"/>
<path d="M60.877 21.3484H65.1379C66.7358 21.3484 67.872 21.6443 68.5467 22.2361C69.2331 22.8279 69.5764 23.6564 69.5764 24.7216C69.5764 25.8697 69.0497 26.7278 67.9963 27.2959V27.3314C69.2864 27.8759 69.9315 28.8287 69.9315 30.1898C69.9315 31.3615 69.5882 32.2551 68.9017 32.8706C68.2271 33.4742 67.0909 33.776 65.493 33.776H60.877V21.3484ZM63.0075 23.3013V26.497H65.0492C65.9132 26.497 66.5109 26.3609 66.8423 26.0887C67.1737 25.8164 67.3394 25.4199 67.3394 24.8992C67.3394 24.3784 67.1737 23.9819 66.8423 23.7097C66.5109 23.4374 65.9132 23.3013 65.0492 23.3013H63.0075ZM63.0075 28.2724V31.8231H65.4042C66.2683 31.8231 66.866 31.6811 67.1974 31.397C67.5288 31.1011 67.6945 30.6514 67.6945 30.0477C67.6945 29.4441 67.5288 29.0003 67.1974 28.7162C66.866 28.4203 66.2683 28.2724 65.4042 28.2724H63.0075Z" fill="#FF553E"/>
<path d="M75.0863 21.3484H77.5718L82.0103 33.776H79.7378L78.7081 30.6691H73.8258L72.7783 33.776H70.6479L75.0863 21.3484ZM78.0689 28.7162L76.3113 23.3901H76.2758L74.4827 28.7162H78.0689Z" fill="#FF553E"/>
<path d="M86.4651 27.3669L82.8966 21.3484H85.3111L88.2227 26.4437H89.4655V21.3484H91.5959V26.4437H92.8387L95.7858 21.3484H98.1648L94.5963 27.2959L98.4311 33.776H95.9456L92.8387 28.3256H91.5959V33.776H89.4655V28.3256H88.2227L85.0803 33.776H82.6303L86.4651 27.3669Z" fill="#FF553E"/>
<path d="M99.9388 21.3484H102.069V26.4082H107.928V21.3484H110.058V33.776H107.928V28.3611H102.069V33.776H99.9388V21.3484Z" fill="#FF553E"/>
<path d="M117.603 33.9536C116.763 33.9536 116.005 33.8234 115.331 33.563C114.656 33.2908 114.076 32.9002 113.591 32.3912C113.117 31.8705 112.75 31.2313 112.49 30.4738C112.23 29.7045 112.099 28.8287 112.099 27.8463V27.1006C112.099 26.1656 112.23 25.3312 112.49 24.5973C112.75 23.8635 113.117 23.2421 113.591 22.7332C114.076 22.2243 114.656 21.8396 115.331 21.5792C116.017 21.307 116.775 21.1709 117.603 21.1709C118.432 21.1709 119.183 21.307 119.858 21.5792C120.544 21.8396 121.124 22.2243 121.598 22.7332C122.083 23.2303 122.456 23.8517 122.716 24.5973C122.977 25.3312 123.107 26.1656 123.107 27.1006V27.8463C123.107 28.8287 122.977 29.6986 122.716 30.4561C122.456 31.2136 122.083 31.8527 121.598 32.3735C121.124 32.8943 120.544 33.2908 119.858 33.563C119.183 33.8234 118.432 33.9536 117.603 33.9536ZM117.603 32.0007C118.586 32.0007 119.373 31.6693 119.964 31.0064C120.568 30.3436 120.87 29.2903 120.87 27.8463V27.1006C120.87 25.775 120.568 24.7808 119.964 24.118C119.361 23.4552 118.574 23.1238 117.603 23.1238C116.609 23.1238 115.816 23.4493 115.224 24.1002C114.632 24.7512 114.336 25.7513 114.336 27.1006V27.8463C114.336 29.2666 114.632 30.3141 115.224 30.9887C115.828 31.6633 116.621 32.0007 117.603 32.0007Z" fill="#FF553E"/>
<path d="M125.148 21.3484H128.379L131.149 28.2369H131.184L133.954 21.3484H137.043V33.776H134.912V23.7452H134.877L132.161 30.4916H130.03L127.314 23.7452H127.278V33.776H125.148V21.3484Z" fill="#FF553E"/>
</svg>
