<svg width="43" height="36" viewBox="0 0 43 36" fill="none" xmlns="http://www.w3.org/2000/svg">
<path d="M42.9787 10.2731C42.875 9.81277 42.4339 9.53146 41.967 9.63375L25.6493 13.2396H25.6234C25.5715 13.214 25.4937 13.214 25.4418 13.214L13.0414 13.0095L8.42367 0.657465C8.39773 0.606318 8.39773 0.529598 8.37179 0.478451C8.16425 0.0692754 7.67135 -0.109739 7.23033 0.0692754L0.48535 3.18924C0.0702743 3.39383 -0.111321 3.87972 0.0702744 4.31447C0.225928 4.62135 0.511292 4.80037 0.848541 4.80037C0.978252 4.80037 1.08202 4.77479 1.21173 4.72365L4.5064 3.18924L7.41193 13.8534C7.41193 13.9301 7.43787 14.0068 7.46381 14.0835L8.11237 16.513L1.08202 18.2776C1.03014 18.3032 0.978252 18.3032 0.926368 18.3287C0.874483 18.3543 0.822599 18.3799 0.770715 18.4055C0.770715 18.4055 0.770715 18.4055 0.744772 18.431C0.71883 18.4566 0.666946 18.4822 0.641004 18.5333C0.615061 18.5589 0.615061 18.5845 0.589119 18.61C0.563177 18.6356 0.563177 18.6612 0.537234 18.6868C0.537234 18.6868 0.511292 18.7123 0.511292 18.7379C0.511292 18.7635 0.48535 18.7891 0.48535 18.8146C0.48535 18.8402 0.459408 18.8658 0.459408 18.8913C0.459408 18.9169 0.433466 18.9425 0.433466 18.9681C0.433466 18.9936 0.433466 19.0192 0.433466 19.0448C0.433466 19.0704 0.433466 19.0959 0.433466 19.1215C0.433466 19.1727 0.433466 19.2238 0.459408 19.275V19.3005C0.459408 19.3517 0.48535 19.3772 0.511292 19.4284C0.511292 19.454 0.511292 19.4795 0.537234 19.4795C0.563177 19.5051 0.563177 19.5563 0.589119 19.5818C0.589119 19.5818 0.589119 19.5818 0.589119 19.6074L5.51814 26.0263L2.69044 34.9003C2.56073 35.3351 2.79421 35.821 3.23523 35.9488C3.31305 35.9744 3.41682 36 3.49465 36C3.85784 36 4.19509 35.7698 4.29886 35.4118L6.76337 27.6886L8.26802 29.6322C8.42367 29.8368 8.6831 29.9647 8.94252 29.9647C9.12411 29.9647 9.30571 29.9135 9.46136 29.7857C9.82455 29.5043 9.90238 28.9929 9.61701 28.6093L7.38598 25.7195L9.74673 18.3543L21.317 19.9399L26.7389 34.9259C26.8686 35.2584 27.1799 35.4885 27.5431 35.4885C27.6728 35.4885 27.8025 35.463 27.9322 35.3862C28.3214 35.1816 28.4511 34.7213 28.3214 34.3122L25.779 27.2411L23.2367 20.17L25.5715 20.5025L31.3307 35.2072C31.4604 35.5397 31.7717 35.7443 32.1349 35.7443C32.2386 35.7443 32.3424 35.7187 32.4462 35.6931C32.8872 35.5141 33.0947 35.0538 32.9391 34.619L27.0761 19.6586L27.6209 14.5439L42.3302 11.296C42.7971 11.1682 43.0825 10.7334 42.9787 10.2731ZM7.10062 1.96171L11.2254 12.9583L8.91658 12.9072L6.08887 2.42203L7.10062 1.96171ZM9.90238 16.6409L9.35759 14.6206L11.848 14.6717L12.7301 17.0501L9.90238 16.6409ZM2.74232 19.5818L8.03454 18.2776L6.19264 24.0572L2.74232 19.5818ZM21.6542 15.797C21.4726 15.3111 20.9278 15.1065 20.4609 15.3366C20.0717 15.5412 19.942 16.0271 20.0717 16.4107L20.6943 18.1241L14.6348 17.2667C14.6348 17.2667 14.4423 16.7432 14.3644 16.4874L13.6899 14.6973L25.4158 14.8763C25.4158 14.8763 25.4158 14.8763 25.4418 14.8763C25.5196 14.8763 25.5715 14.8763 25.6493 14.8507C25.7012 14.8763 25.779 14.8763 25.8569 14.8763C25.8828 14.8763 25.8828 14.8763 25.9087 14.8763L25.4937 18.7635L22.64 18.3799L21.6542 15.797Z" fill="#E52517"/>
</svg>
