<svg width="158" height="52" viewBox="0 0 158 52" fill="none" xmlns="http://www.w3.org/2000/svg">
<path d="M60.2641 14.6212C60.1259 13.9777 59.4932 13.5704 58.8497 13.7086L35.9719 18.8281C35.9719 18.8281 35.9538 18.8353 35.9429 18.839C35.8592 18.8172 35.772 18.8062 35.6811 18.8026L18.3046 18.5081L11.8144 0.935451C11.7962 0.851823 11.7707 0.76456 11.7307 0.684569C11.4508 0.0882696 10.7417 -0.166248 10.1454 0.113721L0.684576 4.55688C0.0882724 4.83685 -0.16625 5.54586 0.113722 6.14216C0.317338 6.57484 0.746386 6.82572 1.19361 6.82572C1.36451 6.82572 1.5354 6.78936 1.69902 6.71301L6.33128 4.53506L10.3854 19.7261C10.4 19.8461 10.4291 19.9588 10.4763 20.0643L11.3999 23.5185L1.51358 26.0055C1.43723 26.0236 1.36087 26.0527 1.28815 26.0855C1.21543 26.1218 1.14635 26.1618 1.08454 26.2091C1.07727 26.2164 1.06999 26.2236 1.06635 26.2273C1.01181 26.2709 0.960906 26.3145 0.917274 26.3691C0.891822 26.3981 0.870017 26.4309 0.848201 26.46C0.826385 26.4927 0.800924 26.5218 0.782744 26.5545C0.760928 26.5909 0.74639 26.6272 0.731846 26.6636C0.717302 26.6963 0.699124 26.729 0.688216 26.7617C0.673672 26.7981 0.67003 26.8345 0.659122 26.8745C0.648214 26.9108 0.637303 26.9472 0.633667 26.9872C0.626395 27.0272 0.630035 27.0708 0.626399 27.1108C0.626399 27.1472 0.619123 27.1799 0.622759 27.2162C0.626395 27.2926 0.637313 27.369 0.655493 27.4453C0.655493 27.4453 0.666393 27.4744 0.670029 27.4889C0.688209 27.5471 0.706394 27.6017 0.731846 27.6562C0.739118 27.6744 0.753661 27.6962 0.764569 27.7144C0.790021 27.7616 0.819113 27.8089 0.848201 27.8525C0.855473 27.8598 0.859101 27.8707 0.862737 27.878L7.78932 36.997L3.81517 49.5993C3.61882 50.2283 3.96425 50.8937 4.59328 51.0937C4.71326 51.13 4.83325 51.1482 4.95324 51.1482C5.45864 51.1482 5.92768 50.8246 6.08767 50.3156L9.55641 39.3204L11.6508 42.0765C11.8835 42.3855 12.2398 42.5455 12.5997 42.5455C12.8506 42.5455 13.1052 42.4655 13.3197 42.3019C13.8433 41.9056 13.9451 41.1566 13.5487 40.633L10.4363 36.5352L13.7451 26.0491L29.9435 28.3107L37.5572 49.6029C37.7318 50.0901 38.1899 50.3919 38.6771 50.3919C38.8662 50.3919 39.0553 50.3483 39.2371 50.2501C39.7752 49.9665 39.9715 49.2902 39.7679 48.7157L32.605 28.6779L35.8956 29.136L43.9821 50.0356C44.1639 50.5083 44.6147 50.7955 45.091 50.7955C45.2328 50.7955 45.3783 50.7701 45.5201 50.7155C46.1346 50.4792 46.4364 49.7883 46.2 49.1739L37.9681 27.8962L38.7462 20.6351L59.3623 16.0211C60.0059 15.8829 60.4131 15.2503 60.275 14.6067L60.2641 14.6212ZM9.97455 2.82252L15.7522 18.4645L12.5016 18.4099L8.52379 3.50608L9.97455 2.82616V2.82252ZM13.9051 23.6712L13.1379 20.7988L16.6357 20.8569L17.8792 24.2238L13.9051 23.6675V23.6712ZM3.84062 27.8744L11.2472 26.0127L8.65832 34.2191L3.84062 27.878V27.8744ZM30.3652 22.4568C30.1253 21.7841 29.3399 21.4605 28.6818 21.8059C28.1436 22.0895 27.9473 22.7731 28.1545 23.3476L29.0272 25.7837L20.0754 24.5329C20.2426 24.2129 20.2681 23.813 20.1372 23.4566L19.1918 20.9006L35.6411 21.1805C35.6411 21.1805 35.6556 21.1805 35.6629 21.1805C35.7611 21.1805 35.852 21.166 35.9429 21.1442C36.0338 21.166 36.1247 21.1805 36.2228 21.1805C36.2446 21.1805 36.2665 21.1733 36.2846 21.1733L35.692 26.7108L31.6887 26.1509L30.3652 22.4531V22.4568Z" fill="white"/>
<path d="M75.9772 12.0183H76.828V15.6106L79.315 12.0183H80.1222V16.9378H79.2714V13.3527L76.7916 16.9378H75.9772V12.0183Z" fill="white"/>
<path d="M81.391 12.0183H82.2564V14.0654H84.6052V12.0183H85.4706V16.9378H84.6052V14.8653H82.2564V16.9378H81.391V12.0183Z" fill="white"/>
<path d="M86.5148 14.4797C86.5148 13.0799 87.5619 11.9346 89.0527 11.9346C89.9581 11.9346 90.5071 12.2509 90.9798 12.7018L90.4235 13.3417C90.0308 12.9745 89.609 12.7308 89.0454 12.7308C88.1037 12.7308 87.4201 13.5053 87.4201 14.4797C87.4201 15.4542 88.1037 16.2286 89.0454 16.2286C89.649 16.2286 90.038 15.9814 90.4598 15.5887L91.0161 16.1523C90.5034 16.6868 89.9399 17.0249 89.02 17.0249C87.5874 17.0249 86.5184 15.9087 86.5184 14.4797H86.5148Z" fill="white"/>
<path d="M93.128 12.8182H91.5681V12.0183H95.5604V12.8182H94.0006V16.9378H93.128V12.8182Z" fill="white"/>
<path d="M96.4744 12.0183H97.3252V15.6106L99.8122 12.0183H100.619V16.9378H99.7686V13.3527L97.2888 16.9378H96.4744V12.0183Z" fill="white"/>
<path d="M103.102 12.8182H101.542V12.0183H105.534V12.8182H103.974V16.9378H103.102V12.8182Z" fill="white"/>
<path d="M106.337 16.7705L106.668 16.1233C106.864 16.236 107.054 16.2797 107.272 16.2797C107.49 16.2797 107.799 16.1451 108.046 15.7452L105.992 12.0183H106.963L108.493 14.8798L109.842 12.0183H110.777L108.857 15.8652C108.442 16.7014 107.937 17.0178 107.297 17.0178C106.919 17.0178 106.621 16.9269 106.334 16.7705H106.337Z" fill="white"/>
<path d="M112.804 12.8182H111.244V12.0183H115.237V12.8182H113.677V16.9378H112.804V12.8182Z" fill="white"/>
<path d="M118.258 12.0183H119.109V15.6106L121.596 12.0183H122.403V16.9378H121.552V13.3527L119.073 16.9378H118.258V12.0183Z" fill="white"/>
<path d="M127.078 13.2544C127.078 13.8871 126.678 14.218 126.242 14.3998C126.791 14.567 127.205 14.9415 127.205 15.5814C127.205 16.3959 126.496 17.0213 125.398 17.0213C124.442 17.0213 123.816 16.7413 123.267 16.2141L123.736 15.6178C124.18 16.0396 124.707 16.2723 125.373 16.2723C125.893 16.2723 126.336 15.9996 126.336 15.5342C126.336 15.0288 125.853 14.8179 125.213 14.8179H124.656V14.1016H125.205C125.831 14.1016 126.216 13.8471 126.216 13.3853C126.216 12.9708 125.838 12.6945 125.289 12.6945C124.707 12.6945 124.285 12.8836 123.911 13.2435L123.445 12.6799C123.918 12.2291 124.471 11.9346 125.343 11.9346C126.362 11.9346 127.074 12.4909 127.074 13.2544H127.078Z" fill="white"/>
<path d="M128.105 16.7705L128.436 16.1233C128.632 16.236 128.821 16.2797 129.039 16.2797C129.257 16.2797 129.566 16.1451 129.814 15.7452L127.759 12.0183H128.73L130.261 14.8798L131.61 12.0183H132.544L130.625 15.8652C130.21 16.7014 129.705 17.0178 129.065 17.0178C128.687 17.0178 128.388 16.9269 128.101 16.7705H128.105Z" fill="white"/>
<path d="M136.252 14.9925C135.9 15.1743 135.347 15.407 134.852 15.407C133.889 15.407 133.227 14.9016 133.227 13.8399V12.0183H134.092V13.6218C134.092 14.2399 134.394 14.6071 135.005 14.6071C135.463 14.6071 135.947 14.4253 136.249 14.2217V12.0219H137.114V16.9414H136.249V14.9962L136.252 14.9925Z" fill="white"/>
<path d="M138.38 12.0183H142.027V12.7928H139.242V14.0726H141.711V14.8471H139.242V16.167H142.06V16.9414H138.376V12.0219L138.38 12.0183Z" fill="white"/>
<path d="M143.091 12.0183H143.956V14.0654H146.305V12.0183H147.17V16.9378H146.305V14.8653H143.956V16.9378H143.091V12.0183Z" fill="white"/>
<path d="M148.434 12.0183H149.285V15.6106L151.772 12.0183H152.579V16.9378H151.729V13.3527L149.249 16.9378H148.434V12.0183Z" fill="white"/>
<path d="M154.813 15.0907C154.126 14.9016 153.639 14.4035 153.639 13.5854C153.639 12.6292 154.333 12.0183 155.475 12.0183H157.66V16.9378H156.802V15.2361H155.711L154.49 16.9378H153.472L154.813 15.0907ZM156.802 14.4871V12.8H155.544C154.897 12.8 154.511 13.1091 154.511 13.6436C154.511 14.1781 154.911 14.4871 155.53 14.4871H156.802Z" fill="white"/>
<path d="M75.41 27.2097H75.8863C76.2935 26.4025 76.5117 25.4026 76.5117 23.7592V23.0647H79.9405V27.2133H80.5513L80.4313 29.0422H79.715V27.9878H76.2499L76.1663 29.0422H75.4064V27.2133L75.41 27.2097ZM79.0787 27.2097V23.8428H77.3407V24.4064C77.3407 25.5444 77.1444 26.5298 76.8062 27.2097H79.0751H79.0787Z" fill="white"/>
<path d="M81.3291 23.0647H84.976V23.8392H82.1908V25.119H84.6596V25.8935H82.1908V27.2133H85.0087V27.9878H81.3254V23.0683L81.3291 23.0647Z" fill="white"/>
<path d="M87.244 23.8646H85.6842V23.0647H89.6765V23.8646H88.1167V27.9842H87.244V23.8646Z" fill="white"/>
<path d="M90.024 25.5227C90.024 24.1229 91.0712 22.9775 92.562 22.9775C93.4673 22.9775 94.0164 23.2939 94.4891 23.7447L93.9327 24.3847C93.5401 24.0174 93.1183 23.7738 92.5547 23.7738C91.613 23.7738 90.9294 24.5483 90.9294 25.5227C90.9294 26.4972 91.613 27.2716 92.5547 27.2716C93.1583 27.2716 93.5473 27.0244 93.9691 26.6317L94.5254 27.1953C94.0127 27.7298 93.4492 28.0679 92.5293 28.0679C91.0967 28.0679 90.0277 26.9517 90.0277 25.5227H90.024Z" fill="white"/>
<path d="M96.6375 23.8646H95.0776V23.0647H99.07V23.8646H97.5101V27.9842H96.6375V23.8646Z" fill="white"/>
<path d="M99.9836 23.0647H102.191C102.754 23.0647 103.194 23.221 103.478 23.501C103.696 23.7192 103.809 23.9846 103.809 24.33C103.809 24.919 103.471 25.2354 103.107 25.4281C103.681 25.6244 104.085 25.9553 104.085 26.6389C104.085 27.5188 103.361 27.9878 102.263 27.9878H99.9873V23.0683L99.9836 23.0647ZM102.016 25.1372C102.572 25.1372 102.943 24.919 102.943 24.4536C102.943 24.0682 102.634 23.8283 102.078 23.8283H100.834V25.1372H102.016ZM102.267 27.217C102.856 27.217 103.216 26.9843 103.216 26.5298C103.216 26.1153 102.885 25.868 102.205 25.868H100.834V27.217H102.267Z" fill="white"/>
<path d="M106.66 23.0283H107.46L109.627 27.9841H108.715L108.216 26.7952H105.889L105.384 27.9841H104.497L106.66 23.0283ZM107.9 26.0316L107.049 24.0646L106.206 26.0316H107.9Z" fill="white"/>
<path d="M110.076 28.6461C110.476 28.5697 110.679 28.377 110.679 28.0643C110.679 28.0352 110.672 28.0134 110.672 27.9879H110.312V27.0244H111.247V27.8389C111.247 28.6206 110.876 28.9478 110.163 29.006L110.072 28.6461H110.076Z" fill="white"/>
<path d="M114.251 25.5227C114.251 24.1229 115.298 22.9775 116.789 22.9775C117.694 22.9775 118.243 23.2939 118.716 23.7447L118.159 24.3847C117.767 24.0174 117.345 23.7738 116.781 23.7738C115.84 23.7738 115.156 24.5483 115.156 25.5227C115.156 26.4972 115.84 27.2716 116.781 27.2716C117.385 27.2716 117.774 27.0244 118.196 26.6317L118.752 27.1953C118.239 27.7298 117.676 28.0679 116.756 28.0679C115.323 28.0679 114.254 26.9517 114.254 25.5227H114.251Z" fill="white"/>
<path d="M119.656 23.0647H123.303V23.8392H120.518V25.119H122.987V25.8935H120.518V27.2133H123.336V27.9878H119.653V23.0683L119.656 23.0647Z" fill="white"/>
<path d="M124.365 23.0647H125.285L126.783 25.3917L128.281 23.0647H129.2V27.9842H128.335V24.4536L126.783 26.7734H126.753L125.215 24.4682V27.9842H124.365V23.0647Z" fill="white"/>
<path d="M130.466 23.0647H131.324V24.8354H132.455C133.561 24.8354 134.302 25.3844 134.302 26.3734C134.302 27.3624 133.586 27.9842 132.448 27.9842H130.466V23.0647ZM132.433 27.2097C133.073 27.2097 133.444 26.9225 133.444 26.3662C133.444 25.8608 133.07 25.5844 132.419 25.5844H131.321V27.2097H132.43H132.433Z" fill="white"/>
<path d="M135.213 23.0647H136.064V26.657L138.551 23.0647H139.358V27.9842H138.507V24.3991L136.028 27.9842H135.213V23.0647Z" fill="white"/>
<path d="M75.9772 34.1067H76.828V37.699L79.315 34.1067H80.1222V39.0262H79.2714V35.4411L76.7916 39.0262H75.9772V34.1067Z" fill="white"/>
<path d="M83.5012 34.1067H85.7083C86.2719 34.1067 86.7118 34.263 86.9954 34.543C87.2136 34.7612 87.3263 35.0266 87.3263 35.372C87.3263 35.961 86.9882 36.2774 86.6246 36.4701C87.2027 36.6664 87.6026 36.9973 87.6026 37.6808C87.6026 38.5608 86.8791 39.0298 85.781 39.0298H83.5049V34.1103L83.5012 34.1067ZM85.5338 36.1828C86.0901 36.1828 86.4609 35.9647 86.4609 35.4993C86.4609 35.1139 86.1519 34.8739 85.5956 34.8739H84.3521V36.1828H85.5338ZM85.7846 38.2626C86.3737 38.2626 86.7336 38.0299 86.7336 37.5754C86.7336 37.1609 86.4027 36.9137 85.7228 36.9137H84.3521V38.2626H85.7846Z" fill="white"/>
<path d="M88.3583 36.5684C88.3583 35.1831 89.4273 34.0232 90.9398 34.0232C92.4524 34.0232 93.5069 35.1685 93.5069 36.5684C93.5069 37.9682 92.4379 39.1136 90.9253 39.1136C89.4127 39.1136 88.3583 37.9682 88.3583 36.5684ZM92.5942 36.5684C92.5942 35.6121 91.8998 34.8195 90.9217 34.8195C89.9436 34.8195 89.2637 35.6012 89.2637 36.5684C89.2637 37.5355 89.9581 38.3173 90.9362 38.3173C91.9143 38.3173 92.5942 37.5355 92.5942 36.5684Z" fill="white"/>
<path d="M94.3313 36.5684C94.3313 35.1685 95.3785 34.0232 96.8692 34.0232C97.7746 34.0232 98.3236 34.3395 98.7963 34.7904L98.24 35.4303C97.8473 35.0667 97.4255 34.8195 96.8619 34.8195C95.9202 34.8195 95.2367 35.5939 95.2367 36.5684C95.2367 37.5428 95.9202 38.3173 96.8619 38.3173C97.4655 38.3173 97.8546 38.07 98.2763 37.6773L98.8326 38.2409C98.32 38.7754 97.7564 39.1136 96.8365 39.1136C95.4039 39.1136 94.3349 37.9973 94.3349 36.5684H94.3313Z" fill="white"/>
<path d="M99.7356 34.1067H103.75V39.0262H102.884V34.8848H100.601V39.0262H99.7356V34.1067Z" fill="white"/>
<path d="M105.016 34.1067H105.867V37.699L108.354 34.1067H109.161V39.0262H108.31V35.4411L105.831 39.0262H105.016V34.1067Z" fill="white"/>
<path d="M111.643 34.9103H110.084V34.1104H114.076V34.9103H112.516V39.0298H111.643V34.9103Z" fill="white"/>
<path d="M116.1 34.0745H116.9L119.067 39.0303H118.155L117.657 37.8413H115.33L114.824 39.0303H113.937L116.1 34.0745ZM117.337 37.0741L116.486 35.1071L115.642 37.0741H117.337Z" fill="white"/>
<path d="M119.91 34.1067H120.775V36.1537H123.124V34.1067H123.99V39.0262H123.124V36.9537H120.775V39.0262H119.91V34.1067Z" fill="white"/>
<path d="M125.249 34.1067H126.1V37.699L128.587 34.1067H129.394V39.0262H128.543V35.4411L126.063 39.0262H125.249V34.1067Z" fill="white"/>
<path d="M131.635 37.1791C130.948 36.99 130.46 36.4919 130.46 35.6738C130.46 34.7175 131.155 34.1067 132.297 34.1067H134.482V39.0262H133.624V37.3245H132.533L131.311 39.0262H130.293L131.635 37.1791ZM133.624 36.5755V34.8884H132.366C131.718 34.8884 131.333 35.1975 131.333 35.732C131.333 36.2665 131.733 36.5755 132.351 36.5755H133.624Z" fill="white"/>
</svg>
